M48
; DRILL file {KiCad 9.0.4-unknown} date 2025-11-20T10:04:44+0100
; FORMAT={-:-/ absolute / inch / decimal}
; #@! TF.CreationDate,2025-11-20T10:04:44+01:00
; #@! TF.GenerationSoftware,Kicad,Pcbnew,9.0.4-unknown
; #@! TF.FileFunction,Plated,1,2,PTH
FMAT,2
INCH
; #@! TA.AperFunction,Plated,PTH,ComponentDrill
T1C0.0295
; #@! TA.AperFunction,Plated,PTH,ComponentDrill
T2C0.0315
; #@! TA.AperFunction,Plated,PTH,ComponentDrill
T3C0.0394
; #@! TA.AperFunction,Plated,PTH,ComponentDrill
T4C0.0591
%
G90
G05
T1
X5.4169Y-1.9028
X5.4169Y-2.0028
X5.4169Y-2.5799
X5.4169Y-2.6799
X5.7169Y-1.9028
X5.7169Y-2.0028
X5.7169Y-2.5799
X5.7169Y-2.6799
T2
X5.0157Y-2.8898
X5.3937Y-2.2283
X5.3937Y-2.3543
T3
X5.1811Y-1.852
X5.1811Y-1.952
X5.1811Y-2.052
X5.1811Y-2.152
X5.1811Y-2.252
T4
X4.1732Y-1.8898
X4.1732Y-2.0866
X4.1732Y-2.2835
X4.1732Y-2.4803
X4.1732Y-2.6772
X5.9921Y-1.9882
X5.9921Y-2.185
X5.9921Y-2.3819
X5.9921Y-2.5787
M30
