%TF.GenerationSoftware,KiCad,Pcbnew,9.0.4-unknown*%
%TF.CreationDate,2025-11-20T10:05:47+01:00*%
%TF.ProjectId,KlimatizaceSamsung,4b6c696d-6174-4697-9a61-636553616d73,rev?*%
%TF.SameCoordinates,Original*%
%TF.FileFunction,Legend,Top*%
%TF.FilePolarity,Positive*%
%FSLAX46Y46*%
G04 Gerber Fmt 4.6, Leading zero omitted, Abs format (unit mm)*
G04 Created by KiCad (PCBNEW 9.0.4-unknown) date 2025-11-20 10:05:47*
%MOMM*%
%LPD*%
G01*
G04 APERTURE LIST*
%ADD10C,0.150000*%
%ADD11C,0.250000*%
%ADD12C,0.300000*%
%ADD13C,0.120000*%
%ADD14C,0.000000*%
%ADD15C,0.200660*%
%ADD16C,0.500000*%
%ADD17C,3.200000*%
%ADD18O,4.000000X2.500000*%
%ADD19C,1.600000*%
%ADD20C,4.000000*%
%ADD21O,4.000000X4.000000*%
%ADD22R,1.700000X1.700000*%
%ADD23O,1.700000X1.700000*%
%ADD24R,2.500000X1.600000*%
%ADD25O,2.500000X1.600000*%
G04 APERTURE END LIST*
D10*
X120865057Y-60966666D02*
X120817438Y-60919047D01*
X120817438Y-60919047D02*
X120769819Y-60823809D01*
X120769819Y-60823809D02*
X120769819Y-60585714D01*
X120769819Y-60585714D02*
X120817438Y-60490476D01*
X120817438Y-60490476D02*
X120865057Y-60442857D01*
X120865057Y-60442857D02*
X120960295Y-60395238D01*
X120960295Y-60395238D02*
X121055533Y-60395238D01*
X121055533Y-60395238D02*
X121198390Y-60442857D01*
X121198390Y-60442857D02*
X121769819Y-61014285D01*
X121769819Y-61014285D02*
X121769819Y-60395238D01*
X120769819Y-59490476D02*
X120769819Y-59966666D01*
X120769819Y-59966666D02*
X121246009Y-60014285D01*
X121246009Y-60014285D02*
X121198390Y-59966666D01*
X121198390Y-59966666D02*
X121150771Y-59871428D01*
X121150771Y-59871428D02*
X121150771Y-59633333D01*
X121150771Y-59633333D02*
X121198390Y-59538095D01*
X121198390Y-59538095D02*
X121246009Y-59490476D01*
X121246009Y-59490476D02*
X121341247Y-59442857D01*
X121341247Y-59442857D02*
X121579342Y-59442857D01*
X121579342Y-59442857D02*
X121674580Y-59490476D01*
X121674580Y-59490476D02*
X121722200Y-59538095D01*
X121722200Y-59538095D02*
X121769819Y-59633333D01*
X121769819Y-59633333D02*
X121769819Y-59871428D01*
X121769819Y-59871428D02*
X121722200Y-59966666D01*
X121722200Y-59966666D02*
X121674580Y-60014285D01*
X121769819Y-58490476D02*
X121769819Y-59061904D01*
X121769819Y-58776190D02*
X120769819Y-58776190D01*
X120769819Y-58776190D02*
X120912676Y-58871428D01*
X120912676Y-58871428D02*
X121007914Y-58966666D01*
X121007914Y-58966666D02*
X121055533Y-59061904D01*
X121769819Y-57538095D02*
X121769819Y-58109523D01*
X121769819Y-57823809D02*
X120769819Y-57823809D01*
X120769819Y-57823809D02*
X120912676Y-57919047D01*
X120912676Y-57919047D02*
X121007914Y-58014285D01*
X121007914Y-58014285D02*
X121055533Y-58109523D01*
X120865057Y-57157142D02*
X120817438Y-57109523D01*
X120817438Y-57109523D02*
X120769819Y-57014285D01*
X120769819Y-57014285D02*
X120769819Y-56776190D01*
X120769819Y-56776190D02*
X120817438Y-56680952D01*
X120817438Y-56680952D02*
X120865057Y-56633333D01*
X120865057Y-56633333D02*
X120960295Y-56585714D01*
X120960295Y-56585714D02*
X121055533Y-56585714D01*
X121055533Y-56585714D02*
X121198390Y-56633333D01*
X121198390Y-56633333D02*
X121769819Y-57204761D01*
X121769819Y-57204761D02*
X121769819Y-56585714D01*
X120769819Y-55966666D02*
X120769819Y-55871428D01*
X120769819Y-55871428D02*
X120817438Y-55776190D01*
X120817438Y-55776190D02*
X120865057Y-55728571D01*
X120865057Y-55728571D02*
X120960295Y-55680952D01*
X120960295Y-55680952D02*
X121150771Y-55633333D01*
X121150771Y-55633333D02*
X121388866Y-55633333D01*
X121388866Y-55633333D02*
X121579342Y-55680952D01*
X121579342Y-55680952D02*
X121674580Y-55728571D01*
X121674580Y-55728571D02*
X121722200Y-55776190D01*
X121722200Y-55776190D02*
X121769819Y-55871428D01*
X121769819Y-55871428D02*
X121769819Y-55966666D01*
X121769819Y-55966666D02*
X121722200Y-56061904D01*
X121722200Y-56061904D02*
X121674580Y-56109523D01*
X121674580Y-56109523D02*
X121579342Y-56157142D01*
X121579342Y-56157142D02*
X121388866Y-56204761D01*
X121388866Y-56204761D02*
X121150771Y-56204761D01*
X121150771Y-56204761D02*
X120960295Y-56157142D01*
X120960295Y-56157142D02*
X120865057Y-56109523D01*
X120865057Y-56109523D02*
X120817438Y-56061904D01*
X120817438Y-56061904D02*
X120769819Y-55966666D01*
D11*
X116888512Y-67242857D02*
X116174226Y-67742857D01*
X116888512Y-68100000D02*
X115388512Y-68100000D01*
X115388512Y-68100000D02*
X115388512Y-67528571D01*
X115388512Y-67528571D02*
X115459941Y-67385714D01*
X115459941Y-67385714D02*
X115531369Y-67314285D01*
X115531369Y-67314285D02*
X115674226Y-67242857D01*
X115674226Y-67242857D02*
X115888512Y-67242857D01*
X115888512Y-67242857D02*
X116031369Y-67314285D01*
X116031369Y-67314285D02*
X116102798Y-67385714D01*
X116102798Y-67385714D02*
X116174226Y-67528571D01*
X116174226Y-67528571D02*
X116174226Y-68100000D01*
X114817084Y-67957143D02*
X115031369Y-67671428D01*
X115031369Y-67671428D02*
X114817084Y-67385714D01*
X116888512Y-66600000D02*
X115888512Y-66600000D01*
X115317084Y-66457143D02*
X115531369Y-66671428D01*
X115888512Y-66028571D02*
X115888512Y-65242857D01*
X115888512Y-65242857D02*
X116888512Y-66028571D01*
X116888512Y-66028571D02*
X116888512Y-65242857D01*
X116817084Y-64099999D02*
X116888512Y-64242856D01*
X116888512Y-64242856D02*
X116888512Y-64528571D01*
X116888512Y-64528571D02*
X116817084Y-64671428D01*
X116817084Y-64671428D02*
X116674226Y-64742856D01*
X116674226Y-64742856D02*
X116102798Y-64742856D01*
X116102798Y-64742856D02*
X115959941Y-64671428D01*
X115959941Y-64671428D02*
X115888512Y-64528571D01*
X115888512Y-64528571D02*
X115888512Y-64242856D01*
X115888512Y-64242856D02*
X115959941Y-64099999D01*
X115959941Y-64099999D02*
X116102798Y-64028571D01*
X116102798Y-64028571D02*
X116245655Y-64028571D01*
X116245655Y-64028571D02*
X116388512Y-64742856D01*
X115888512Y-63385714D02*
X116888512Y-63385714D01*
X116031369Y-63385714D02*
X115959941Y-63314285D01*
X115959941Y-63314285D02*
X115888512Y-63171428D01*
X115888512Y-63171428D02*
X115888512Y-62957142D01*
X115888512Y-62957142D02*
X115959941Y-62814285D01*
X115959941Y-62814285D02*
X116102798Y-62742857D01*
X116102798Y-62742857D02*
X116888512Y-62742857D01*
X116888512Y-62028571D02*
X115888512Y-62028571D01*
X115317084Y-61885714D02*
X115531369Y-62099999D01*
X116888512Y-60171428D02*
X115388512Y-60171428D01*
X116317084Y-60028571D02*
X116888512Y-59599999D01*
X115888512Y-59599999D02*
X116459941Y-60171428D01*
X116888512Y-58742856D02*
X116817084Y-58885713D01*
X116817084Y-58885713D02*
X116674226Y-58957142D01*
X116674226Y-58957142D02*
X115388512Y-58957142D01*
X116888512Y-58171428D02*
X115888512Y-58171428D01*
X115388512Y-58171428D02*
X115459941Y-58242856D01*
X115459941Y-58242856D02*
X115531369Y-58171428D01*
X115531369Y-58171428D02*
X115459941Y-58099999D01*
X115459941Y-58099999D02*
X115388512Y-58171428D01*
X115388512Y-58171428D02*
X115531369Y-58171428D01*
X116888512Y-57457142D02*
X115888512Y-57457142D01*
X116031369Y-57457142D02*
X115959941Y-57385713D01*
X115959941Y-57385713D02*
X115888512Y-57242856D01*
X115888512Y-57242856D02*
X115888512Y-57028570D01*
X115888512Y-57028570D02*
X115959941Y-56885713D01*
X115959941Y-56885713D02*
X116102798Y-56814285D01*
X116102798Y-56814285D02*
X116888512Y-56814285D01*
X116102798Y-56814285D02*
X115959941Y-56742856D01*
X115959941Y-56742856D02*
X115888512Y-56599999D01*
X115888512Y-56599999D02*
X115888512Y-56385713D01*
X115888512Y-56385713D02*
X115959941Y-56242856D01*
X115959941Y-56242856D02*
X116102798Y-56171427D01*
X116102798Y-56171427D02*
X116888512Y-56171427D01*
X116888512Y-54814285D02*
X116102798Y-54814285D01*
X116102798Y-54814285D02*
X115959941Y-54885713D01*
X115959941Y-54885713D02*
X115888512Y-55028570D01*
X115888512Y-55028570D02*
X115888512Y-55314285D01*
X115888512Y-55314285D02*
X115959941Y-55457142D01*
X116817084Y-54814285D02*
X116888512Y-54957142D01*
X116888512Y-54957142D02*
X116888512Y-55314285D01*
X116888512Y-55314285D02*
X116817084Y-55457142D01*
X116817084Y-55457142D02*
X116674226Y-55528570D01*
X116674226Y-55528570D02*
X116531369Y-55528570D01*
X116531369Y-55528570D02*
X116388512Y-55457142D01*
X116388512Y-55457142D02*
X116317084Y-55314285D01*
X116317084Y-55314285D02*
X116317084Y-54957142D01*
X116317084Y-54957142D02*
X116245655Y-54814285D01*
X115888512Y-54314284D02*
X115888512Y-53742856D01*
X115388512Y-54099999D02*
X116674226Y-54099999D01*
X116674226Y-54099999D02*
X116817084Y-54028570D01*
X116817084Y-54028570D02*
X116888512Y-53885713D01*
X116888512Y-53885713D02*
X116888512Y-53742856D01*
X116888512Y-53242856D02*
X115888512Y-53242856D01*
X115388512Y-53242856D02*
X115459941Y-53314284D01*
X115459941Y-53314284D02*
X115531369Y-53242856D01*
X115531369Y-53242856D02*
X115459941Y-53171427D01*
X115459941Y-53171427D02*
X115388512Y-53242856D01*
X115388512Y-53242856D02*
X115531369Y-53242856D01*
X115888512Y-52671427D02*
X115888512Y-51885713D01*
X115888512Y-51885713D02*
X116888512Y-52671427D01*
X116888512Y-52671427D02*
X116888512Y-51885713D01*
X116888512Y-50671427D02*
X116102798Y-50671427D01*
X116102798Y-50671427D02*
X115959941Y-50742855D01*
X115959941Y-50742855D02*
X115888512Y-50885712D01*
X115888512Y-50885712D02*
X115888512Y-51171427D01*
X115888512Y-51171427D02*
X115959941Y-51314284D01*
X116817084Y-50671427D02*
X116888512Y-50814284D01*
X116888512Y-50814284D02*
X116888512Y-51171427D01*
X116888512Y-51171427D02*
X116817084Y-51314284D01*
X116817084Y-51314284D02*
X116674226Y-51385712D01*
X116674226Y-51385712D02*
X116531369Y-51385712D01*
X116531369Y-51385712D02*
X116388512Y-51314284D01*
X116388512Y-51314284D02*
X116317084Y-51171427D01*
X116317084Y-51171427D02*
X116317084Y-50814284D01*
X116317084Y-50814284D02*
X116245655Y-50671427D01*
X116817084Y-49314284D02*
X116888512Y-49457141D01*
X116888512Y-49457141D02*
X116888512Y-49742855D01*
X116888512Y-49742855D02*
X116817084Y-49885712D01*
X116817084Y-49885712D02*
X116745655Y-49957141D01*
X116745655Y-49957141D02*
X116602798Y-50028569D01*
X116602798Y-50028569D02*
X116174226Y-50028569D01*
X116174226Y-50028569D02*
X116031369Y-49957141D01*
X116031369Y-49957141D02*
X115959941Y-49885712D01*
X115959941Y-49885712D02*
X115888512Y-49742855D01*
X115888512Y-49742855D02*
X115888512Y-49457141D01*
X115888512Y-49457141D02*
X115959941Y-49314284D01*
X116817084Y-48099998D02*
X116888512Y-48242855D01*
X116888512Y-48242855D02*
X116888512Y-48528570D01*
X116888512Y-48528570D02*
X116817084Y-48671427D01*
X116817084Y-48671427D02*
X116674226Y-48742855D01*
X116674226Y-48742855D02*
X116102798Y-48742855D01*
X116102798Y-48742855D02*
X115959941Y-48671427D01*
X115959941Y-48671427D02*
X115888512Y-48528570D01*
X115888512Y-48528570D02*
X115888512Y-48242855D01*
X115888512Y-48242855D02*
X115959941Y-48099998D01*
X115959941Y-48099998D02*
X116102798Y-48028570D01*
X116102798Y-48028570D02*
X116245655Y-48028570D01*
X116245655Y-48028570D02*
X116388512Y-48742855D01*
X119232000Y-62849999D02*
X119303428Y-62635714D01*
X119303428Y-62635714D02*
X119303428Y-62278571D01*
X119303428Y-62278571D02*
X119232000Y-62135714D01*
X119232000Y-62135714D02*
X119160571Y-62064285D01*
X119160571Y-62064285D02*
X119017714Y-61992856D01*
X119017714Y-61992856D02*
X118874857Y-61992856D01*
X118874857Y-61992856D02*
X118732000Y-62064285D01*
X118732000Y-62064285D02*
X118660571Y-62135714D01*
X118660571Y-62135714D02*
X118589142Y-62278571D01*
X118589142Y-62278571D02*
X118517714Y-62564285D01*
X118517714Y-62564285D02*
X118446285Y-62707142D01*
X118446285Y-62707142D02*
X118374857Y-62778571D01*
X118374857Y-62778571D02*
X118232000Y-62849999D01*
X118232000Y-62849999D02*
X118089142Y-62849999D01*
X118089142Y-62849999D02*
X117946285Y-62778571D01*
X117946285Y-62778571D02*
X117874857Y-62707142D01*
X117874857Y-62707142D02*
X117803428Y-62564285D01*
X117803428Y-62564285D02*
X117803428Y-62207142D01*
X117803428Y-62207142D02*
X117874857Y-61992856D01*
X119303428Y-60707143D02*
X118517714Y-60707143D01*
X118517714Y-60707143D02*
X118374857Y-60778571D01*
X118374857Y-60778571D02*
X118303428Y-60921428D01*
X118303428Y-60921428D02*
X118303428Y-61207143D01*
X118303428Y-61207143D02*
X118374857Y-61350000D01*
X119232000Y-60707143D02*
X119303428Y-60850000D01*
X119303428Y-60850000D02*
X119303428Y-61207143D01*
X119303428Y-61207143D02*
X119232000Y-61350000D01*
X119232000Y-61350000D02*
X119089142Y-61421428D01*
X119089142Y-61421428D02*
X118946285Y-61421428D01*
X118946285Y-61421428D02*
X118803428Y-61350000D01*
X118803428Y-61350000D02*
X118732000Y-61207143D01*
X118732000Y-61207143D02*
X118732000Y-60850000D01*
X118732000Y-60850000D02*
X118660571Y-60707143D01*
X119303428Y-59992857D02*
X118303428Y-59992857D01*
X118446285Y-59992857D02*
X118374857Y-59921428D01*
X118374857Y-59921428D02*
X118303428Y-59778571D01*
X118303428Y-59778571D02*
X118303428Y-59564285D01*
X118303428Y-59564285D02*
X118374857Y-59421428D01*
X118374857Y-59421428D02*
X118517714Y-59350000D01*
X118517714Y-59350000D02*
X119303428Y-59350000D01*
X118517714Y-59350000D02*
X118374857Y-59278571D01*
X118374857Y-59278571D02*
X118303428Y-59135714D01*
X118303428Y-59135714D02*
X118303428Y-58921428D01*
X118303428Y-58921428D02*
X118374857Y-58778571D01*
X118374857Y-58778571D02*
X118517714Y-58707142D01*
X118517714Y-58707142D02*
X119303428Y-58707142D01*
X119232000Y-58064285D02*
X119303428Y-57921428D01*
X119303428Y-57921428D02*
X119303428Y-57635714D01*
X119303428Y-57635714D02*
X119232000Y-57492857D01*
X119232000Y-57492857D02*
X119089142Y-57421428D01*
X119089142Y-57421428D02*
X119017714Y-57421428D01*
X119017714Y-57421428D02*
X118874857Y-57492857D01*
X118874857Y-57492857D02*
X118803428Y-57635714D01*
X118803428Y-57635714D02*
X118803428Y-57850000D01*
X118803428Y-57850000D02*
X118732000Y-57992857D01*
X118732000Y-57992857D02*
X118589142Y-58064285D01*
X118589142Y-58064285D02*
X118517714Y-58064285D01*
X118517714Y-58064285D02*
X118374857Y-57992857D01*
X118374857Y-57992857D02*
X118303428Y-57850000D01*
X118303428Y-57850000D02*
X118303428Y-57635714D01*
X118303428Y-57635714D02*
X118374857Y-57492857D01*
X118303428Y-56135714D02*
X119303428Y-56135714D01*
X118303428Y-56778571D02*
X119089142Y-56778571D01*
X119089142Y-56778571D02*
X119232000Y-56707142D01*
X119232000Y-56707142D02*
X119303428Y-56564285D01*
X119303428Y-56564285D02*
X119303428Y-56349999D01*
X119303428Y-56349999D02*
X119232000Y-56207142D01*
X119232000Y-56207142D02*
X119160571Y-56135714D01*
X118303428Y-55421428D02*
X119303428Y-55421428D01*
X118446285Y-55421428D02*
X118374857Y-55349999D01*
X118374857Y-55349999D02*
X118303428Y-55207142D01*
X118303428Y-55207142D02*
X118303428Y-54992856D01*
X118303428Y-54992856D02*
X118374857Y-54849999D01*
X118374857Y-54849999D02*
X118517714Y-54778571D01*
X118517714Y-54778571D02*
X119303428Y-54778571D01*
X118303428Y-53421428D02*
X119517714Y-53421428D01*
X119517714Y-53421428D02*
X119660571Y-53492856D01*
X119660571Y-53492856D02*
X119732000Y-53564285D01*
X119732000Y-53564285D02*
X119803428Y-53707142D01*
X119803428Y-53707142D02*
X119803428Y-53921428D01*
X119803428Y-53921428D02*
X119732000Y-54064285D01*
X119232000Y-53421428D02*
X119303428Y-53564285D01*
X119303428Y-53564285D02*
X119303428Y-53849999D01*
X119303428Y-53849999D02*
X119232000Y-53992856D01*
X119232000Y-53992856D02*
X119160571Y-54064285D01*
X119160571Y-54064285D02*
X119017714Y-54135713D01*
X119017714Y-54135713D02*
X118589142Y-54135713D01*
X118589142Y-54135713D02*
X118446285Y-54064285D01*
X118446285Y-54064285D02*
X118374857Y-53992856D01*
X118374857Y-53992856D02*
X118303428Y-53849999D01*
X118303428Y-53849999D02*
X118303428Y-53564285D01*
X118303428Y-53564285D02*
X118374857Y-53421428D01*
D10*
X128200000Y-58200000D02*
X128200000Y-56200000D01*
X129200000Y-57200000D02*
X128200000Y-56200000D01*
X129200000Y-57200000D02*
X128200000Y-58200000D01*
D12*
X100202632Y-48147733D02*
X101726442Y-48147733D01*
X100964537Y-48909638D02*
X100964537Y-47385828D01*
D10*
X156136779Y-56054819D02*
X156136779Y-55054819D01*
X157184397Y-56054819D02*
X156851064Y-55578628D01*
X156612969Y-56054819D02*
X156612969Y-55054819D01*
X156612969Y-55054819D02*
X156993921Y-55054819D01*
X156993921Y-55054819D02*
X157089159Y-55102438D01*
X157089159Y-55102438D02*
X157136778Y-55150057D01*
X157136778Y-55150057D02*
X157184397Y-55245295D01*
X157184397Y-55245295D02*
X157184397Y-55388152D01*
X157184397Y-55388152D02*
X157136778Y-55483390D01*
X157136778Y-55483390D02*
X157089159Y-55531009D01*
X157089159Y-55531009D02*
X156993921Y-55578628D01*
X156993921Y-55578628D02*
X156612969Y-55578628D01*
X157612969Y-55673866D02*
X158374874Y-55673866D01*
X156136779Y-51054819D02*
X156136779Y-50054819D01*
X157184397Y-51054819D02*
X156851064Y-50578628D01*
X156612969Y-51054819D02*
X156612969Y-50054819D01*
X156612969Y-50054819D02*
X156993921Y-50054819D01*
X156993921Y-50054819D02*
X157089159Y-50102438D01*
X157089159Y-50102438D02*
X157136778Y-50150057D01*
X157136778Y-50150057D02*
X157184397Y-50245295D01*
X157184397Y-50245295D02*
X157184397Y-50388152D01*
X157184397Y-50388152D02*
X157136778Y-50483390D01*
X157136778Y-50483390D02*
X157089159Y-50531009D01*
X157089159Y-50531009D02*
X156993921Y-50578628D01*
X156993921Y-50578628D02*
X156612969Y-50578628D01*
X157612969Y-50673866D02*
X158374874Y-50673866D01*
X157993921Y-51054819D02*
X157993921Y-50292914D01*
D12*
X100478822Y-53909638D02*
X100478822Y-51909638D01*
X100478822Y-51909638D02*
X100955012Y-51909638D01*
X100955012Y-51909638D02*
X101240727Y-52004876D01*
X101240727Y-52004876D02*
X101431203Y-52195352D01*
X101431203Y-52195352D02*
X101526441Y-52385828D01*
X101526441Y-52385828D02*
X101621679Y-52766780D01*
X101621679Y-52766780D02*
X101621679Y-53052495D01*
X101621679Y-53052495D02*
X101526441Y-53433447D01*
X101526441Y-53433447D02*
X101431203Y-53623923D01*
X101431203Y-53623923D02*
X101240727Y-53814400D01*
X101240727Y-53814400D02*
X100955012Y-53909638D01*
X100955012Y-53909638D02*
X100478822Y-53909638D01*
D10*
X99806077Y-63369104D02*
X100282267Y-63369104D01*
X99710839Y-63654819D02*
X100044172Y-62654819D01*
X100044172Y-62654819D02*
X100377505Y-63654819D01*
X101139410Y-63607200D02*
X101044172Y-63654819D01*
X101044172Y-63654819D02*
X100853696Y-63654819D01*
X100853696Y-63654819D02*
X100758458Y-63607200D01*
X100758458Y-63607200D02*
X100710839Y-63559580D01*
X100710839Y-63559580D02*
X100663220Y-63464342D01*
X100663220Y-63464342D02*
X100663220Y-63178628D01*
X100663220Y-63178628D02*
X100710839Y-63083390D01*
X100710839Y-63083390D02*
X100758458Y-63035771D01*
X100758458Y-63035771D02*
X100853696Y-62988152D01*
X100853696Y-62988152D02*
X101044172Y-62988152D01*
X101044172Y-62988152D02*
X101139410Y-63035771D01*
X101425125Y-62988152D02*
X101806077Y-62988152D01*
X101567982Y-62654819D02*
X101567982Y-63511961D01*
X101567982Y-63511961D02*
X101615601Y-63607200D01*
X101615601Y-63607200D02*
X101710839Y-63654819D01*
X101710839Y-63654819D02*
X101806077Y-63654819D01*
D12*
X100202632Y-58147733D02*
X101726442Y-58147733D01*
D10*
X99806077Y-68169104D02*
X100282267Y-68169104D01*
X99710839Y-68454819D02*
X100044172Y-67454819D01*
X100044172Y-67454819D02*
X100377505Y-68454819D01*
X101139410Y-68407200D02*
X101044172Y-68454819D01*
X101044172Y-68454819D02*
X100853696Y-68454819D01*
X100853696Y-68454819D02*
X100758458Y-68407200D01*
X100758458Y-68407200D02*
X100710839Y-68359580D01*
X100710839Y-68359580D02*
X100663220Y-68264342D01*
X100663220Y-68264342D02*
X100663220Y-67978628D01*
X100663220Y-67978628D02*
X100710839Y-67883390D01*
X100710839Y-67883390D02*
X100758458Y-67835771D01*
X100758458Y-67835771D02*
X100853696Y-67788152D01*
X100853696Y-67788152D02*
X101044172Y-67788152D01*
X101044172Y-67788152D02*
X101139410Y-67835771D01*
X101425125Y-67788152D02*
X101806077Y-67788152D01*
X101567982Y-67454819D02*
X101567982Y-68311961D01*
X101567982Y-68311961D02*
X101615601Y-68407200D01*
X101615601Y-68407200D02*
X101710839Y-68454819D01*
X101710839Y-68454819D02*
X101806077Y-68454819D01*
X156089160Y-66007200D02*
X156232017Y-66054819D01*
X156232017Y-66054819D02*
X156470112Y-66054819D01*
X156470112Y-66054819D02*
X156565350Y-66007200D01*
X156565350Y-66007200D02*
X156612969Y-65959580D01*
X156612969Y-65959580D02*
X156660588Y-65864342D01*
X156660588Y-65864342D02*
X156660588Y-65769104D01*
X156660588Y-65769104D02*
X156612969Y-65673866D01*
X156612969Y-65673866D02*
X156565350Y-65626247D01*
X156565350Y-65626247D02*
X156470112Y-65578628D01*
X156470112Y-65578628D02*
X156279636Y-65531009D01*
X156279636Y-65531009D02*
X156184398Y-65483390D01*
X156184398Y-65483390D02*
X156136779Y-65435771D01*
X156136779Y-65435771D02*
X156089160Y-65340533D01*
X156089160Y-65340533D02*
X156089160Y-65245295D01*
X156089160Y-65245295D02*
X156136779Y-65150057D01*
X156136779Y-65150057D02*
X156184398Y-65102438D01*
X156184398Y-65102438D02*
X156279636Y-65054819D01*
X156279636Y-65054819D02*
X156517731Y-65054819D01*
X156517731Y-65054819D02*
X156660588Y-65102438D01*
X157089160Y-65673866D02*
X157851065Y-65673866D01*
X156089160Y-61007200D02*
X156232017Y-61054819D01*
X156232017Y-61054819D02*
X156470112Y-61054819D01*
X156470112Y-61054819D02*
X156565350Y-61007200D01*
X156565350Y-61007200D02*
X156612969Y-60959580D01*
X156612969Y-60959580D02*
X156660588Y-60864342D01*
X156660588Y-60864342D02*
X156660588Y-60769104D01*
X156660588Y-60769104D02*
X156612969Y-60673866D01*
X156612969Y-60673866D02*
X156565350Y-60626247D01*
X156565350Y-60626247D02*
X156470112Y-60578628D01*
X156470112Y-60578628D02*
X156279636Y-60531009D01*
X156279636Y-60531009D02*
X156184398Y-60483390D01*
X156184398Y-60483390D02*
X156136779Y-60435771D01*
X156136779Y-60435771D02*
X156089160Y-60340533D01*
X156089160Y-60340533D02*
X156089160Y-60245295D01*
X156089160Y-60245295D02*
X156136779Y-60150057D01*
X156136779Y-60150057D02*
X156184398Y-60102438D01*
X156184398Y-60102438D02*
X156279636Y-60054819D01*
X156279636Y-60054819D02*
X156517731Y-60054819D01*
X156517731Y-60054819D02*
X156660588Y-60102438D01*
X157089160Y-60673866D02*
X157851065Y-60673866D01*
X157470112Y-61054819D02*
X157470112Y-60292914D01*
X111945180Y-52666666D02*
X111230895Y-52666666D01*
X111230895Y-52666666D02*
X111088038Y-52619047D01*
X111088038Y-52619047D02*
X110992800Y-52523809D01*
X110992800Y-52523809D02*
X110945180Y-52380952D01*
X110945180Y-52380952D02*
X110945180Y-52285714D01*
X111611847Y-53571428D02*
X110945180Y-53571428D01*
X111992800Y-53333333D02*
X111278514Y-53095238D01*
X111278514Y-53095238D02*
X111278514Y-53714285D01*
X139193922Y-55254819D02*
X139765350Y-55254819D01*
X139479636Y-56254819D02*
X139479636Y-55254819D01*
X140098684Y-56254819D02*
X140098684Y-55254819D01*
X140098684Y-55254819D02*
X140479636Y-55254819D01*
X140479636Y-55254819D02*
X140574874Y-55302438D01*
X140574874Y-55302438D02*
X140622493Y-55350057D01*
X140622493Y-55350057D02*
X140670112Y-55445295D01*
X140670112Y-55445295D02*
X140670112Y-55588152D01*
X140670112Y-55588152D02*
X140622493Y-55683390D01*
X140622493Y-55683390D02*
X140574874Y-55731009D01*
X140574874Y-55731009D02*
X140479636Y-55778628D01*
X140479636Y-55778628D02*
X140098684Y-55778628D01*
X141003446Y-55254819D02*
X141622493Y-55254819D01*
X141622493Y-55254819D02*
X141289160Y-55635771D01*
X141289160Y-55635771D02*
X141432017Y-55635771D01*
X141432017Y-55635771D02*
X141527255Y-55683390D01*
X141527255Y-55683390D02*
X141574874Y-55731009D01*
X141574874Y-55731009D02*
X141622493Y-55826247D01*
X141622493Y-55826247D02*
X141622493Y-56064342D01*
X141622493Y-56064342D02*
X141574874Y-56159580D01*
X141574874Y-56159580D02*
X141527255Y-56207200D01*
X141527255Y-56207200D02*
X141432017Y-56254819D01*
X141432017Y-56254819D02*
X141146303Y-56254819D01*
X141146303Y-56254819D02*
X141051065Y-56207200D01*
X141051065Y-56207200D02*
X141003446Y-56159580D01*
D13*
X139469423Y-57763855D02*
X139469423Y-56963855D01*
X140307518Y-57763855D02*
X140040851Y-57382902D01*
X139850375Y-57763855D02*
X139850375Y-56963855D01*
X139850375Y-56963855D02*
X140155137Y-56963855D01*
X140155137Y-56963855D02*
X140231327Y-57001950D01*
X140231327Y-57001950D02*
X140269422Y-57040045D01*
X140269422Y-57040045D02*
X140307518Y-57116236D01*
X140307518Y-57116236D02*
X140307518Y-57230521D01*
X140307518Y-57230521D02*
X140269422Y-57306712D01*
X140269422Y-57306712D02*
X140231327Y-57344807D01*
X140231327Y-57344807D02*
X140155137Y-57382902D01*
X140155137Y-57382902D02*
X139850375Y-57382902D01*
X141602756Y-57725760D02*
X141526565Y-57763855D01*
X141526565Y-57763855D02*
X141374184Y-57763855D01*
X141374184Y-57763855D02*
X141297994Y-57725760D01*
X141297994Y-57725760D02*
X141259899Y-57687664D01*
X141259899Y-57687664D02*
X141221803Y-57611474D01*
X141221803Y-57611474D02*
X141221803Y-57382902D01*
X141221803Y-57382902D02*
X141259899Y-57306712D01*
X141259899Y-57306712D02*
X141297994Y-57268617D01*
X141297994Y-57268617D02*
X141374184Y-57230521D01*
X141374184Y-57230521D02*
X141526565Y-57230521D01*
X141526565Y-57230521D02*
X141602756Y-57268617D01*
X142059898Y-57763855D02*
X141983708Y-57725760D01*
X141983708Y-57725760D02*
X141945613Y-57687664D01*
X141945613Y-57687664D02*
X141907517Y-57611474D01*
X141907517Y-57611474D02*
X141907517Y-57382902D01*
X141907517Y-57382902D02*
X141945613Y-57306712D01*
X141945613Y-57306712D02*
X141983708Y-57268617D01*
X141983708Y-57268617D02*
X142059898Y-57230521D01*
X142059898Y-57230521D02*
X142174184Y-57230521D01*
X142174184Y-57230521D02*
X142250375Y-57268617D01*
X142250375Y-57268617D02*
X142288470Y-57306712D01*
X142288470Y-57306712D02*
X142326565Y-57382902D01*
X142326565Y-57382902D02*
X142326565Y-57611474D01*
X142326565Y-57611474D02*
X142288470Y-57687664D01*
X142288470Y-57687664D02*
X142250375Y-57725760D01*
X142250375Y-57725760D02*
X142174184Y-57763855D01*
X142174184Y-57763855D02*
X142059898Y-57763855D01*
X142669423Y-57230521D02*
X142669423Y-57763855D01*
X142669423Y-57306712D02*
X142707518Y-57268617D01*
X142707518Y-57268617D02*
X142783708Y-57230521D01*
X142783708Y-57230521D02*
X142897994Y-57230521D01*
X142897994Y-57230521D02*
X142974185Y-57268617D01*
X142974185Y-57268617D02*
X143012280Y-57344807D01*
X143012280Y-57344807D02*
X143012280Y-57763855D01*
X143278947Y-57230521D02*
X143583709Y-57230521D01*
X143393233Y-56963855D02*
X143393233Y-57649569D01*
X143393233Y-57649569D02*
X143431328Y-57725760D01*
X143431328Y-57725760D02*
X143507518Y-57763855D01*
X143507518Y-57763855D02*
X143583709Y-57763855D01*
X143850376Y-57763855D02*
X143850376Y-57230521D01*
X143850376Y-57382902D02*
X143888471Y-57306712D01*
X143888471Y-57306712D02*
X143926566Y-57268617D01*
X143926566Y-57268617D02*
X144002757Y-57230521D01*
X144002757Y-57230521D02*
X144078947Y-57230521D01*
X144459899Y-57763855D02*
X144383709Y-57725760D01*
X144383709Y-57725760D02*
X144345614Y-57687664D01*
X144345614Y-57687664D02*
X144307518Y-57611474D01*
X144307518Y-57611474D02*
X144307518Y-57382902D01*
X144307518Y-57382902D02*
X144345614Y-57306712D01*
X144345614Y-57306712D02*
X144383709Y-57268617D01*
X144383709Y-57268617D02*
X144459899Y-57230521D01*
X144459899Y-57230521D02*
X144574185Y-57230521D01*
X144574185Y-57230521D02*
X144650376Y-57268617D01*
X144650376Y-57268617D02*
X144688471Y-57306712D01*
X144688471Y-57306712D02*
X144726566Y-57382902D01*
X144726566Y-57382902D02*
X144726566Y-57611474D01*
X144726566Y-57611474D02*
X144688471Y-57687664D01*
X144688471Y-57687664D02*
X144650376Y-57725760D01*
X144650376Y-57725760D02*
X144574185Y-57763855D01*
X144574185Y-57763855D02*
X144459899Y-57763855D01*
X145183709Y-57763855D02*
X145107519Y-57725760D01*
X145107519Y-57725760D02*
X145069424Y-57649569D01*
X145069424Y-57649569D02*
X145069424Y-56963855D01*
D10*
X146254819Y-63333333D02*
X146969104Y-63333333D01*
X146969104Y-63333333D02*
X147111961Y-63380952D01*
X147111961Y-63380952D02*
X147207200Y-63476190D01*
X147207200Y-63476190D02*
X147254819Y-63619047D01*
X147254819Y-63619047D02*
X147254819Y-63714285D01*
X146350057Y-62904761D02*
X146302438Y-62857142D01*
X146302438Y-62857142D02*
X146254819Y-62761904D01*
X146254819Y-62761904D02*
X146254819Y-62523809D01*
X146254819Y-62523809D02*
X146302438Y-62428571D01*
X146302438Y-62428571D02*
X146350057Y-62380952D01*
X146350057Y-62380952D02*
X146445295Y-62333333D01*
X146445295Y-62333333D02*
X146540533Y-62333333D01*
X146540533Y-62333333D02*
X146683390Y-62380952D01*
X146683390Y-62380952D02*
X147254819Y-62952380D01*
X147254819Y-62952380D02*
X147254819Y-62333333D01*
X126138095Y-70354819D02*
X126709523Y-70354819D01*
X126423809Y-71354819D02*
X126423809Y-70354819D01*
X127042857Y-71354819D02*
X127042857Y-70354819D01*
X127042857Y-70354819D02*
X127423809Y-70354819D01*
X127423809Y-70354819D02*
X127519047Y-70402438D01*
X127519047Y-70402438D02*
X127566666Y-70450057D01*
X127566666Y-70450057D02*
X127614285Y-70545295D01*
X127614285Y-70545295D02*
X127614285Y-70688152D01*
X127614285Y-70688152D02*
X127566666Y-70783390D01*
X127566666Y-70783390D02*
X127519047Y-70831009D01*
X127519047Y-70831009D02*
X127423809Y-70878628D01*
X127423809Y-70878628D02*
X127042857Y-70878628D01*
X128566666Y-71354819D02*
X127995238Y-71354819D01*
X128280952Y-71354819D02*
X128280952Y-70354819D01*
X128280952Y-70354819D02*
X128185714Y-70497676D01*
X128185714Y-70497676D02*
X128090476Y-70592914D01*
X128090476Y-70592914D02*
X127995238Y-70640533D01*
D13*
X125800000Y-76035283D02*
X126180953Y-76035283D01*
X125723810Y-76263855D02*
X125990477Y-75463855D01*
X125990477Y-75463855D02*
X126257143Y-76263855D01*
X126866667Y-76225760D02*
X126790476Y-76263855D01*
X126790476Y-76263855D02*
X126638095Y-76263855D01*
X126638095Y-76263855D02*
X126561905Y-76225760D01*
X126561905Y-76225760D02*
X126523810Y-76187664D01*
X126523810Y-76187664D02*
X126485714Y-76111474D01*
X126485714Y-76111474D02*
X126485714Y-75882902D01*
X126485714Y-75882902D02*
X126523810Y-75806712D01*
X126523810Y-75806712D02*
X126561905Y-75768617D01*
X126561905Y-75768617D02*
X126638095Y-75730521D01*
X126638095Y-75730521D02*
X126790476Y-75730521D01*
X126790476Y-75730521D02*
X126866667Y-75768617D01*
X127095238Y-75730521D02*
X127400000Y-75730521D01*
X127209524Y-75463855D02*
X127209524Y-76149569D01*
X127209524Y-76149569D02*
X127247619Y-76225760D01*
X127247619Y-76225760D02*
X127323809Y-76263855D01*
X127323809Y-76263855D02*
X127400000Y-76263855D01*
X127666667Y-76263855D02*
X127666667Y-75730521D01*
X127666667Y-75463855D02*
X127628571Y-75501950D01*
X127628571Y-75501950D02*
X127666667Y-75540045D01*
X127666667Y-75540045D02*
X127704762Y-75501950D01*
X127704762Y-75501950D02*
X127666667Y-75463855D01*
X127666667Y-75463855D02*
X127666667Y-75540045D01*
X127971428Y-75730521D02*
X128161904Y-76263855D01*
X128161904Y-76263855D02*
X128352381Y-75730521D01*
X128961905Y-76225760D02*
X128885714Y-76263855D01*
X128885714Y-76263855D02*
X128733333Y-76263855D01*
X128733333Y-76263855D02*
X128657143Y-76225760D01*
X128657143Y-76225760D02*
X128619047Y-76149569D01*
X128619047Y-76149569D02*
X128619047Y-75844807D01*
X128619047Y-75844807D02*
X128657143Y-75768617D01*
X128657143Y-75768617D02*
X128733333Y-75730521D01*
X128733333Y-75730521D02*
X128885714Y-75730521D01*
X128885714Y-75730521D02*
X128961905Y-75768617D01*
X128961905Y-75768617D02*
X129000000Y-75844807D01*
X129000000Y-75844807D02*
X129000000Y-75920998D01*
X129000000Y-75920998D02*
X128619047Y-75997188D01*
D10*
X139193922Y-58854819D02*
X139765350Y-58854819D01*
X139479636Y-59854819D02*
X139479636Y-58854819D01*
X140098684Y-59854819D02*
X140098684Y-58854819D01*
X140098684Y-58854819D02*
X140479636Y-58854819D01*
X140479636Y-58854819D02*
X140574874Y-58902438D01*
X140574874Y-58902438D02*
X140622493Y-58950057D01*
X140622493Y-58950057D02*
X140670112Y-59045295D01*
X140670112Y-59045295D02*
X140670112Y-59188152D01*
X140670112Y-59188152D02*
X140622493Y-59283390D01*
X140622493Y-59283390D02*
X140574874Y-59331009D01*
X140574874Y-59331009D02*
X140479636Y-59378628D01*
X140479636Y-59378628D02*
X140098684Y-59378628D01*
X141051065Y-58950057D02*
X141098684Y-58902438D01*
X141098684Y-58902438D02*
X141193922Y-58854819D01*
X141193922Y-58854819D02*
X141432017Y-58854819D01*
X141432017Y-58854819D02*
X141527255Y-58902438D01*
X141527255Y-58902438D02*
X141574874Y-58950057D01*
X141574874Y-58950057D02*
X141622493Y-59045295D01*
X141622493Y-59045295D02*
X141622493Y-59140533D01*
X141622493Y-59140533D02*
X141574874Y-59283390D01*
X141574874Y-59283390D02*
X141003446Y-59854819D01*
X141003446Y-59854819D02*
X141622493Y-59854819D01*
D13*
X139421804Y-60563855D02*
X139574185Y-60563855D01*
X139574185Y-60563855D02*
X139650375Y-60601950D01*
X139650375Y-60601950D02*
X139726566Y-60678140D01*
X139726566Y-60678140D02*
X139764661Y-60830521D01*
X139764661Y-60830521D02*
X139764661Y-61097188D01*
X139764661Y-61097188D02*
X139726566Y-61249569D01*
X139726566Y-61249569D02*
X139650375Y-61325760D01*
X139650375Y-61325760D02*
X139574185Y-61363855D01*
X139574185Y-61363855D02*
X139421804Y-61363855D01*
X139421804Y-61363855D02*
X139345613Y-61325760D01*
X139345613Y-61325760D02*
X139269423Y-61249569D01*
X139269423Y-61249569D02*
X139231327Y-61097188D01*
X139231327Y-61097188D02*
X139231327Y-60830521D01*
X139231327Y-60830521D02*
X139269423Y-60678140D01*
X139269423Y-60678140D02*
X139345613Y-60601950D01*
X139345613Y-60601950D02*
X139421804Y-60563855D01*
X140107518Y-60830521D02*
X140107518Y-61363855D01*
X140107518Y-60906712D02*
X140145613Y-60868617D01*
X140145613Y-60868617D02*
X140221803Y-60830521D01*
X140221803Y-60830521D02*
X140336089Y-60830521D01*
X140336089Y-60830521D02*
X140412280Y-60868617D01*
X140412280Y-60868617D02*
X140450375Y-60944807D01*
X140450375Y-60944807D02*
X140450375Y-61363855D01*
X140983709Y-60563855D02*
X141136090Y-60563855D01*
X141136090Y-60563855D02*
X141212280Y-60601950D01*
X141212280Y-60601950D02*
X141288471Y-60678140D01*
X141288471Y-60678140D02*
X141326566Y-60830521D01*
X141326566Y-60830521D02*
X141326566Y-61097188D01*
X141326566Y-61097188D02*
X141288471Y-61249569D01*
X141288471Y-61249569D02*
X141212280Y-61325760D01*
X141212280Y-61325760D02*
X141136090Y-61363855D01*
X141136090Y-61363855D02*
X140983709Y-61363855D01*
X140983709Y-61363855D02*
X140907518Y-61325760D01*
X140907518Y-61325760D02*
X140831328Y-61249569D01*
X140831328Y-61249569D02*
X140793232Y-61097188D01*
X140793232Y-61097188D02*
X140793232Y-60830521D01*
X140793232Y-60830521D02*
X140831328Y-60678140D01*
X140831328Y-60678140D02*
X140907518Y-60601950D01*
X140907518Y-60601950D02*
X140983709Y-60563855D01*
X141555137Y-60830521D02*
X141859899Y-60830521D01*
X141669423Y-61363855D02*
X141669423Y-60678140D01*
X141669423Y-60678140D02*
X141707518Y-60601950D01*
X141707518Y-60601950D02*
X141783708Y-60563855D01*
X141783708Y-60563855D02*
X141859899Y-60563855D01*
X142012280Y-60830521D02*
X142317042Y-60830521D01*
X142126566Y-61363855D02*
X142126566Y-60678140D01*
X142126566Y-60678140D02*
X142164661Y-60601950D01*
X142164661Y-60601950D02*
X142240851Y-60563855D01*
X142240851Y-60563855D02*
X142317042Y-60563855D01*
D10*
X131266666Y-43654819D02*
X131266666Y-44369104D01*
X131266666Y-44369104D02*
X131219047Y-44511961D01*
X131219047Y-44511961D02*
X131123809Y-44607200D01*
X131123809Y-44607200D02*
X130980952Y-44654819D01*
X130980952Y-44654819D02*
X130885714Y-44654819D01*
X132266666Y-44654819D02*
X131695238Y-44654819D01*
X131980952Y-44654819D02*
X131980952Y-43654819D01*
X131980952Y-43654819D02*
X131885714Y-43797676D01*
X131885714Y-43797676D02*
X131790476Y-43892914D01*
X131790476Y-43892914D02*
X131695238Y-43940533D01*
X140638095Y-62754819D02*
X140638095Y-63564342D01*
X140638095Y-63564342D02*
X140685714Y-63659580D01*
X140685714Y-63659580D02*
X140733333Y-63707200D01*
X140733333Y-63707200D02*
X140828571Y-63754819D01*
X140828571Y-63754819D02*
X141019047Y-63754819D01*
X141019047Y-63754819D02*
X141114285Y-63707200D01*
X141114285Y-63707200D02*
X141161904Y-63659580D01*
X141161904Y-63659580D02*
X141209523Y-63564342D01*
X141209523Y-63564342D02*
X141209523Y-62754819D01*
X141590476Y-62754819D02*
X142209523Y-62754819D01*
X142209523Y-62754819D02*
X141876190Y-63135771D01*
X141876190Y-63135771D02*
X142019047Y-63135771D01*
X142019047Y-63135771D02*
X142114285Y-63183390D01*
X142114285Y-63183390D02*
X142161904Y-63231009D01*
X142161904Y-63231009D02*
X142209523Y-63326247D01*
X142209523Y-63326247D02*
X142209523Y-63564342D01*
X142209523Y-63564342D02*
X142161904Y-63659580D01*
X142161904Y-63659580D02*
X142114285Y-63707200D01*
X142114285Y-63707200D02*
X142019047Y-63754819D01*
X142019047Y-63754819D02*
X141733333Y-63754819D01*
X141733333Y-63754819D02*
X141638095Y-63707200D01*
X141638095Y-63707200D02*
X141590476Y-63659580D01*
X146254819Y-53333333D02*
X146969104Y-53333333D01*
X146969104Y-53333333D02*
X147111961Y-53380952D01*
X147111961Y-53380952D02*
X147207200Y-53476190D01*
X147207200Y-53476190D02*
X147254819Y-53619047D01*
X147254819Y-53619047D02*
X147254819Y-53714285D01*
X146254819Y-52952380D02*
X146254819Y-52333333D01*
X146254819Y-52333333D02*
X146635771Y-52666666D01*
X146635771Y-52666666D02*
X146635771Y-52523809D01*
X146635771Y-52523809D02*
X146683390Y-52428571D01*
X146683390Y-52428571D02*
X146731009Y-52380952D01*
X146731009Y-52380952D02*
X146826247Y-52333333D01*
X146826247Y-52333333D02*
X147064342Y-52333333D01*
X147064342Y-52333333D02*
X147159580Y-52380952D01*
X147159580Y-52380952D02*
X147207200Y-52428571D01*
X147207200Y-52428571D02*
X147254819Y-52523809D01*
X147254819Y-52523809D02*
X147254819Y-52809523D01*
X147254819Y-52809523D02*
X147207200Y-52904761D01*
X147207200Y-52904761D02*
X147159580Y-52952380D01*
X111945180Y-65166666D02*
X111230895Y-65166666D01*
X111230895Y-65166666D02*
X111088038Y-65119047D01*
X111088038Y-65119047D02*
X110992800Y-65023809D01*
X110992800Y-65023809D02*
X110945180Y-64880952D01*
X110945180Y-64880952D02*
X110945180Y-64785714D01*
X111945180Y-66119047D02*
X111945180Y-65642857D01*
X111945180Y-65642857D02*
X111468990Y-65595238D01*
X111468990Y-65595238D02*
X111516609Y-65642857D01*
X111516609Y-65642857D02*
X111564228Y-65738095D01*
X111564228Y-65738095D02*
X111564228Y-65976190D01*
X111564228Y-65976190D02*
X111516609Y-66071428D01*
X111516609Y-66071428D02*
X111468990Y-66119047D01*
X111468990Y-66119047D02*
X111373752Y-66166666D01*
X111373752Y-66166666D02*
X111135657Y-66166666D01*
X111135657Y-66166666D02*
X111040419Y-66119047D01*
X111040419Y-66119047D02*
X110992800Y-66071428D01*
X110992800Y-66071428D02*
X110945180Y-65976190D01*
X110945180Y-65976190D02*
X110945180Y-65738095D01*
X110945180Y-65738095D02*
X110992800Y-65642857D01*
X110992800Y-65642857D02*
X111040419Y-65595238D01*
X140638095Y-45554819D02*
X140638095Y-46364342D01*
X140638095Y-46364342D02*
X140685714Y-46459580D01*
X140685714Y-46459580D02*
X140733333Y-46507200D01*
X140733333Y-46507200D02*
X140828571Y-46554819D01*
X140828571Y-46554819D02*
X141019047Y-46554819D01*
X141019047Y-46554819D02*
X141114285Y-46507200D01*
X141114285Y-46507200D02*
X141161904Y-46459580D01*
X141161904Y-46459580D02*
X141209523Y-46364342D01*
X141209523Y-46364342D02*
X141209523Y-45554819D01*
X142114285Y-45888152D02*
X142114285Y-46554819D01*
X141876190Y-45507200D02*
X141638095Y-46221485D01*
X141638095Y-46221485D02*
X142257142Y-46221485D01*
D14*
%TO.C,REF\u002A\u002A*%
G36*
X133204288Y-40999999D02*
G01*
X132608976Y-40999999D01*
X132608976Y-40404715D01*
X133204288Y-40404715D01*
X133204288Y-40999999D01*
G37*
G36*
X134990294Y-40999999D02*
G01*
X134394956Y-40999999D01*
X134394956Y-40404687D01*
X134990294Y-40404687D01*
X134990294Y-40999999D01*
G37*
G36*
X121682958Y-41107744D02*
G01*
X120136640Y-42190625D01*
X121682958Y-42190625D01*
X121682958Y-42785937D01*
X119301723Y-42785937D01*
X119301723Y-41975728D01*
X120695355Y-40999999D01*
X119301723Y-40999999D01*
X119301723Y-40404715D01*
X121682958Y-40404715D01*
X121682958Y-41107744D01*
G37*
G36*
X140365093Y-41951316D02*
G01*
X140365093Y-40404715D01*
X140960377Y-40404715D01*
X140960377Y-42785937D01*
X140150199Y-42785937D01*
X139174496Y-41392629D01*
X139174496Y-42785937D01*
X138579157Y-42785937D01*
X138579157Y-40404715D01*
X139282212Y-40404715D01*
X140365093Y-41951316D01*
G37*
G36*
X124138659Y-41000000D02*
G01*
X122650371Y-41000000D01*
X122650371Y-41327440D01*
X123811218Y-41327440D01*
X123811218Y-41863198D01*
X122650371Y-41863198D01*
X122650371Y-42190624D01*
X124138659Y-42190624D01*
X124138659Y-42785909D01*
X122055059Y-42785909D01*
X122055059Y-40404687D01*
X124138659Y-40404687D01*
X124138659Y-41000000D01*
G37*
G36*
X127583417Y-41297663D02*
G01*
X128774042Y-41297663D01*
X128774042Y-40404715D01*
X129369327Y-40404715D01*
X129369327Y-42785937D01*
X128774042Y-42785937D01*
X128774042Y-41892975D01*
X127583417Y-41892975D01*
X127583417Y-42785937D01*
X126988105Y-42785937D01*
X126988105Y-40404715D01*
X127583417Y-40404715D01*
X127583417Y-41297663D01*
G37*
G36*
X143389095Y-41000000D02*
G01*
X141900849Y-41000000D01*
X141900849Y-41327440D01*
X143061669Y-41327440D01*
X143061669Y-41863226D01*
X141900849Y-41863226D01*
X141900849Y-42190624D01*
X143389095Y-42190624D01*
X143389095Y-42785937D01*
X141305497Y-42785937D01*
X141305497Y-40404715D01*
X143389095Y-40404715D01*
X143389095Y-41000000D01*
G37*
G36*
X118900000Y-41000000D02*
G01*
X117440557Y-41000000D01*
X117118835Y-41595312D01*
X117440557Y-42190624D01*
X118900000Y-42190624D01*
X118900000Y-42785937D01*
X117262894Y-42785937D01*
X117000938Y-42629664D01*
X116518750Y-41736703D01*
X116518750Y-41453935D01*
X117000938Y-40560960D01*
X117262894Y-40404715D01*
X118900000Y-40404715D01*
X118900000Y-41000000D01*
G37*
G36*
X126643072Y-41000000D02*
G01*
X125183685Y-41000000D01*
X124862231Y-41595312D01*
X125183685Y-42190624D01*
X126643072Y-42190624D01*
X126643072Y-42785937D01*
X125005993Y-42785937D01*
X124744335Y-42629664D01*
X124261850Y-41736703D01*
X124261850Y-41453935D01*
X124744335Y-40560960D01*
X125005993Y-40404715D01*
X126643072Y-40404715D01*
X126643072Y-41000000D01*
G37*
G36*
X130344691Y-40404998D02*
G01*
X131839516Y-40408273D01*
X132105030Y-40572862D01*
X132401775Y-41166424D01*
X132401775Y-41432502D01*
X132105030Y-42026036D01*
X131838331Y-42190625D01*
X130344691Y-42187363D01*
X130344691Y-42785937D01*
X129722890Y-42785937D01*
X129722890Y-41592361D01*
X129722890Y-41000592D01*
X130344408Y-41000592D01*
X130344408Y-41592361D01*
X131654963Y-41595030D01*
X131802593Y-41299470D01*
X131654680Y-41003275D01*
X130344408Y-41000592D01*
X129722890Y-41000592D01*
X129722890Y-40404715D01*
X130344691Y-40404998D01*
G37*
G36*
X137870917Y-40560960D02*
G01*
X137870918Y-40560960D01*
X137870919Y-40560960D01*
X137871511Y-40560960D01*
X138353728Y-41453935D01*
X138353728Y-41736703D01*
X137871511Y-42629664D01*
X137609612Y-42785937D01*
X136121337Y-42785937D01*
X135859368Y-42629664D01*
X135461416Y-41892975D01*
X134990226Y-41892975D01*
X134990226Y-42785937D01*
X134394913Y-42785937D01*
X134394913Y-41892975D01*
X133204288Y-41892975D01*
X133204288Y-42785937D01*
X132608976Y-42785937D01*
X132608976Y-41595312D01*
X135976954Y-41595312D01*
X136298408Y-42190624D01*
X137431609Y-42190624D01*
X137753063Y-41595312D01*
X137431609Y-41000000D01*
X136298408Y-41000000D01*
X135976954Y-41595312D01*
X132608976Y-41595312D01*
X132608976Y-41297663D01*
X135461133Y-41297663D01*
X135859101Y-40560960D01*
X136121027Y-40404715D01*
X137609273Y-40404715D01*
X137870917Y-40560960D01*
G37*
D13*
%TO.C,J4*%
X102900000Y-45500000D02*
X102900000Y-60500000D01*
X102900000Y-55500000D02*
X110500000Y-55500000D01*
X102900000Y-60500000D02*
X110500000Y-60500000D01*
X103500000Y-45500000D02*
X103500000Y-60500000D01*
X110500000Y-45500000D02*
X102900000Y-45500000D01*
X110500000Y-50500000D02*
X102900000Y-50500000D01*
X110500000Y-60500000D02*
X110500000Y-45500000D01*
D15*
%TO.C,TP3*%
X135600460Y-55200460D02*
X135600460Y-57999540D01*
X135600460Y-57999540D02*
X138399540Y-57999540D01*
X135900180Y-55500180D02*
X135900180Y-57699820D01*
X135900180Y-57699820D02*
X138099820Y-57699820D01*
X138099820Y-55500180D02*
X135900180Y-55500180D01*
X138099820Y-57699820D02*
X138099820Y-55500180D01*
X138399540Y-55200460D02*
X135600460Y-55200460D01*
X138399540Y-57999540D02*
X138399540Y-55200460D01*
D13*
%TO.C,J2*%
X147700000Y-58000000D02*
X147700000Y-68000000D01*
X147700000Y-63000000D02*
X155300000Y-63000000D01*
X147700000Y-68000000D02*
X155300000Y-68000000D01*
X154700000Y-68000000D02*
X154700000Y-58000000D01*
X155300000Y-58000000D02*
X147700000Y-58000000D01*
X155300000Y-68000000D02*
X155300000Y-58000000D01*
D15*
%TO.C,TP1*%
X126000460Y-72000460D02*
X126000460Y-74799540D01*
X126000460Y-74799540D02*
X128799540Y-74799540D01*
X126300180Y-72300180D02*
X126300180Y-74499820D01*
X126300180Y-74499820D02*
X128499820Y-74499820D01*
X128499820Y-72300180D02*
X126300180Y-72300180D01*
X128499820Y-74499820D02*
X128499820Y-72300180D01*
X128799540Y-72000460D02*
X126000460Y-72000460D01*
X128799540Y-74799540D02*
X128799540Y-72000460D01*
%TO.C,TP2*%
X135600460Y-58400460D02*
X135600460Y-61199540D01*
X135600460Y-61199540D02*
X138399540Y-61199540D01*
X135900180Y-58700180D02*
X135900180Y-60899820D01*
X135900180Y-60899820D02*
X138099820Y-60899820D01*
X138099820Y-58700180D02*
X135900180Y-58700180D01*
X138099820Y-60899820D02*
X138099820Y-58700180D01*
X138399540Y-58400460D02*
X135600460Y-58400460D01*
X138399540Y-61199540D02*
X138399540Y-58400460D01*
D13*
%TO.C,J1*%
X130270000Y-55930000D02*
X130270000Y-45710000D01*
X130270000Y-58530000D02*
X130270000Y-57200000D01*
X131600000Y-58530000D02*
X130270000Y-58530000D01*
X132930000Y-45710000D02*
X130270000Y-45710000D01*
X132930000Y-55930000D02*
X130270000Y-55930000D01*
X132930000Y-55930000D02*
X132930000Y-45710000D01*
D10*
%TO.C,U3*%
X138150000Y-64300000D02*
X138150000Y-69300000D01*
X138150000Y-69300000D02*
X144650000Y-69300000D01*
X144650000Y-64300000D02*
X138150000Y-64300000D01*
X144650000Y-69300000D02*
X144650000Y-64300000D01*
D16*
X139900000Y-65300000D02*
G75*
G02*
X139400000Y-65300000I-250000J0D01*
G01*
X139400000Y-65300000D02*
G75*
G02*
X139900000Y-65300000I250000J0D01*
G01*
D13*
%TO.C,J3*%
X147700000Y-48000000D02*
X147700000Y-58000000D01*
X147700000Y-53000000D02*
X155300000Y-53000000D01*
X147700000Y-58000000D02*
X155300000Y-58000000D01*
X154700000Y-58000000D02*
X154700000Y-48000000D01*
X155300000Y-48000000D02*
X147700000Y-48000000D01*
X155300000Y-58000000D02*
X155300000Y-48000000D01*
%TO.C,J5*%
X102900000Y-60500000D02*
X102900000Y-70500000D01*
X102900000Y-70500000D02*
X110500000Y-70500000D01*
X103500000Y-60500000D02*
X103500000Y-70500000D01*
X110500000Y-60500000D02*
X102900000Y-60500000D01*
X110500000Y-65500000D02*
X102900000Y-65500000D01*
X110500000Y-70500000D02*
X110500000Y-60500000D01*
D10*
%TO.C,U4*%
X138150000Y-47100000D02*
X138150000Y-52100000D01*
X138150000Y-52100000D02*
X144650000Y-52100000D01*
X144650000Y-47100000D02*
X138150000Y-47100000D01*
X144650000Y-52100000D02*
X144650000Y-47100000D01*
D16*
X139900000Y-48100000D02*
G75*
G02*
X139400000Y-48100000I-250000J0D01*
G01*
X139400000Y-48100000D02*
G75*
G02*
X139900000Y-48100000I250000J0D01*
G01*
%TD*%
%LPC*%
D17*
%TO.C,*%
X106000000Y-74500000D03*
%TD*%
D18*
%TO.C,J4*%
X106000000Y-48000000D03*
X106000000Y-53000000D03*
X106000000Y-58000000D03*
%TD*%
D17*
%TO.C,Dira3mmNTPH*%
X152000000Y-74500000D03*
%TD*%
D19*
%TO.C,TP3*%
X137000000Y-56600000D03*
%TD*%
D17*
%TO.C,Dira3mmNTPH*%
X152000000Y-41500000D03*
%TD*%
D20*
%TO.C,J2*%
X152200000Y-65500000D03*
D21*
X152200000Y-60500000D03*
%TD*%
D17*
%TO.C,Dira3mmNTPH*%
X106000000Y-41500000D03*
%TD*%
D19*
%TO.C,TP1*%
X127400000Y-73400000D03*
%TD*%
%TO.C,TP2*%
X137000000Y-59800000D03*
%TD*%
D22*
%TO.C,J1*%
X131600000Y-57200000D03*
D23*
X131600000Y-54660000D03*
X131600000Y-52120000D03*
X131600000Y-49580000D03*
X131600000Y-47040000D03*
%TD*%
D24*
%TO.C,U3*%
X137590000Y-65530000D03*
D25*
X137590000Y-68070000D03*
X145210000Y-68070000D03*
X145210000Y-65530000D03*
%TD*%
D20*
%TO.C,J3*%
X152200000Y-55500000D03*
D21*
X152200000Y-50500000D03*
%TD*%
D20*
%TO.C,J5*%
X106000000Y-63000000D03*
D21*
X106000000Y-68000000D03*
%TD*%
D24*
%TO.C,U4*%
X137590000Y-48330000D03*
D25*
X137590000Y-50870000D03*
X145210000Y-50870000D03*
X145210000Y-48330000D03*
%TD*%
%LPD*%
M02*
