%TF.GenerationSoftware,KiCad,Pcbnew,9.0.4-unknown*%
%TF.CreationDate,2025-11-20T10:05:47+01:00*%
%TF.ProjectId,KlimatizaceSamsung,4b6c696d-6174-4697-9a61-636553616d73,rev?*%
%TF.SameCoordinates,Original*%
%TF.FileFunction,Legend,Bot*%
%TF.FilePolarity,Positive*%
%FSLAX46Y46*%
G04 Gerber Fmt 4.6, Leading zero omitted, Abs format (unit mm)*
G04 Created by KiCad (PCBNEW 9.0.4-unknown) date 2025-11-20 10:05:47*
%MOMM*%
%LPD*%
G01*
G04 APERTURE LIST*
G04 Aperture macros list*
%AMRoundRect*
0 Rectangle with rounded corners*
0 $1 Rounding radius*
0 $2 $3 $4 $5 $6 $7 $8 $9 X,Y pos of 4 corners*
0 Add a 4 corners polygon primitive as box body*
4,1,4,$2,$3,$4,$5,$6,$7,$8,$9,$2,$3,0*
0 Add four circle primitives for the rounded corners*
1,1,$1+$1,$2,$3*
1,1,$1+$1,$4,$5*
1,1,$1+$1,$6,$7*
1,1,$1+$1,$8,$9*
0 Add four rect primitives between the rounded corners*
20,1,$1+$1,$2,$3,$4,$5,0*
20,1,$1+$1,$4,$5,$6,$7,0*
20,1,$1+$1,$6,$7,$8,$9,0*
20,1,$1+$1,$8,$9,$2,$3,0*%
%AMFreePoly0*
4,1,9,3.862500,-0.866500,0.737500,-0.866500,0.737500,-0.450000,-0.737500,-0.450000,-0.737500,0.450000,0.737500,0.450000,0.737500,0.866500,3.862500,0.866500,3.862500,-0.866500,3.862500,-0.866500,$1*%
G04 Aperture macros list end*
%ADD10C,0.150000*%
%ADD11C,0.120000*%
%ADD12C,0.200000*%
%ADD13C,0.300000*%
%ADD14C,3.200000*%
%ADD15O,4.000000X2.500000*%
%ADD16C,1.600000*%
%ADD17C,4.000000*%
%ADD18O,4.000000X4.000000*%
%ADD19R,1.700000X1.700000*%
%ADD20O,1.700000X1.700000*%
%ADD21R,2.500000X1.600000*%
%ADD22O,2.500000X1.600000*%
%ADD23RoundRect,0.250000X0.262500X0.450000X-0.262500X0.450000X-0.262500X-0.450000X0.262500X-0.450000X0*%
%ADD24RoundRect,0.225000X-0.425000X-0.225000X0.425000X-0.225000X0.425000X0.225000X-0.425000X0.225000X0*%
%ADD25FreePoly0,0.000000*%
%ADD26RoundRect,0.250000X-0.625000X0.312500X-0.625000X-0.312500X0.625000X-0.312500X0.625000X0.312500X0*%
%ADD27RoundRect,0.250000X-0.475000X0.250000X-0.475000X-0.250000X0.475000X-0.250000X0.475000X0.250000X0*%
%ADD28RoundRect,0.250000X0.650000X-1.500000X0.650000X1.500000X-0.650000X1.500000X-0.650000X-1.500000X0*%
%ADD29RoundRect,0.250000X-0.262500X-0.450000X0.262500X-0.450000X0.262500X0.450000X-0.262500X0.450000X0*%
%ADD30RoundRect,0.160000X0.640000X0.740000X-0.640000X0.740000X-0.640000X-0.740000X0.640000X-0.740000X0*%
%ADD31RoundRect,0.250000X0.600000X-0.400000X0.600000X0.400000X-0.600000X0.400000X-0.600000X-0.400000X0*%
%ADD32R,1.500000X0.370000*%
%ADD33R,0.370000X1.500000*%
%ADD34R,1.062500X0.830000*%
%ADD35R,1.062500X1.062500*%
%ADD36R,1.062500X0.650000*%
%ADD37RoundRect,0.250000X0.625000X-0.312500X0.625000X0.312500X-0.625000X0.312500X-0.625000X-0.312500X0*%
%ADD38RoundRect,0.250000X0.450000X-0.262500X0.450000X0.262500X-0.450000X0.262500X-0.450000X-0.262500X0*%
%ADD39R,6.096000X6.096000*%
%ADD40R,1.651000X3.048000*%
G04 APERTURE END LIST*
D10*
X116366666Y-74054819D02*
X116699999Y-73578628D01*
X116938094Y-74054819D02*
X116938094Y-73054819D01*
X116938094Y-73054819D02*
X116557142Y-73054819D01*
X116557142Y-73054819D02*
X116461904Y-73102438D01*
X116461904Y-73102438D02*
X116414285Y-73150057D01*
X116414285Y-73150057D02*
X116366666Y-73245295D01*
X116366666Y-73245295D02*
X116366666Y-73388152D01*
X116366666Y-73388152D02*
X116414285Y-73483390D01*
X116414285Y-73483390D02*
X116461904Y-73531009D01*
X116461904Y-73531009D02*
X116557142Y-73578628D01*
X116557142Y-73578628D02*
X116938094Y-73578628D01*
X116033332Y-73054819D02*
X115366666Y-73054819D01*
X115366666Y-73054819D02*
X115795237Y-74054819D01*
X118161904Y-59054819D02*
X118161904Y-59864342D01*
X118161904Y-59864342D02*
X118114285Y-59959580D01*
X118114285Y-59959580D02*
X118066666Y-60007200D01*
X118066666Y-60007200D02*
X117971428Y-60054819D01*
X117971428Y-60054819D02*
X117780952Y-60054819D01*
X117780952Y-60054819D02*
X117685714Y-60007200D01*
X117685714Y-60007200D02*
X117638095Y-59959580D01*
X117638095Y-59959580D02*
X117590476Y-59864342D01*
X117590476Y-59864342D02*
X117590476Y-59054819D01*
X117161904Y-59150057D02*
X117114285Y-59102438D01*
X117114285Y-59102438D02*
X117019047Y-59054819D01*
X117019047Y-59054819D02*
X116780952Y-59054819D01*
X116780952Y-59054819D02*
X116685714Y-59102438D01*
X116685714Y-59102438D02*
X116638095Y-59150057D01*
X116638095Y-59150057D02*
X116590476Y-59245295D01*
X116590476Y-59245295D02*
X116590476Y-59340533D01*
X116590476Y-59340533D02*
X116638095Y-59483390D01*
X116638095Y-59483390D02*
X117209523Y-60054819D01*
X117209523Y-60054819D02*
X116590476Y-60054819D01*
X131566666Y-75854819D02*
X131899999Y-75378628D01*
X132138094Y-75854819D02*
X132138094Y-74854819D01*
X132138094Y-74854819D02*
X131757142Y-74854819D01*
X131757142Y-74854819D02*
X131661904Y-74902438D01*
X131661904Y-74902438D02*
X131614285Y-74950057D01*
X131614285Y-74950057D02*
X131566666Y-75045295D01*
X131566666Y-75045295D02*
X131566666Y-75188152D01*
X131566666Y-75188152D02*
X131614285Y-75283390D01*
X131614285Y-75283390D02*
X131661904Y-75331009D01*
X131661904Y-75331009D02*
X131757142Y-75378628D01*
X131757142Y-75378628D02*
X132138094Y-75378628D01*
X130995237Y-75283390D02*
X131090475Y-75235771D01*
X131090475Y-75235771D02*
X131138094Y-75188152D01*
X131138094Y-75188152D02*
X131185713Y-75092914D01*
X131185713Y-75092914D02*
X131185713Y-75045295D01*
X131185713Y-75045295D02*
X131138094Y-74950057D01*
X131138094Y-74950057D02*
X131090475Y-74902438D01*
X131090475Y-74902438D02*
X130995237Y-74854819D01*
X130995237Y-74854819D02*
X130804761Y-74854819D01*
X130804761Y-74854819D02*
X130709523Y-74902438D01*
X130709523Y-74902438D02*
X130661904Y-74950057D01*
X130661904Y-74950057D02*
X130614285Y-75045295D01*
X130614285Y-75045295D02*
X130614285Y-75092914D01*
X130614285Y-75092914D02*
X130661904Y-75188152D01*
X130661904Y-75188152D02*
X130709523Y-75235771D01*
X130709523Y-75235771D02*
X130804761Y-75283390D01*
X130804761Y-75283390D02*
X130995237Y-75283390D01*
X130995237Y-75283390D02*
X131090475Y-75331009D01*
X131090475Y-75331009D02*
X131138094Y-75378628D01*
X131138094Y-75378628D02*
X131185713Y-75473866D01*
X131185713Y-75473866D02*
X131185713Y-75664342D01*
X131185713Y-75664342D02*
X131138094Y-75759580D01*
X131138094Y-75759580D02*
X131090475Y-75807200D01*
X131090475Y-75807200D02*
X130995237Y-75854819D01*
X130995237Y-75854819D02*
X130804761Y-75854819D01*
X130804761Y-75854819D02*
X130709523Y-75807200D01*
X130709523Y-75807200D02*
X130661904Y-75759580D01*
X130661904Y-75759580D02*
X130614285Y-75664342D01*
X130614285Y-75664342D02*
X130614285Y-75473866D01*
X130614285Y-75473866D02*
X130661904Y-75378628D01*
X130661904Y-75378628D02*
X130709523Y-75331009D01*
X130709523Y-75331009D02*
X130804761Y-75283390D01*
X115566666Y-70159580D02*
X115614285Y-70207200D01*
X115614285Y-70207200D02*
X115757142Y-70254819D01*
X115757142Y-70254819D02*
X115852380Y-70254819D01*
X115852380Y-70254819D02*
X115995237Y-70207200D01*
X115995237Y-70207200D02*
X116090475Y-70111961D01*
X116090475Y-70111961D02*
X116138094Y-70016723D01*
X116138094Y-70016723D02*
X116185713Y-69826247D01*
X116185713Y-69826247D02*
X116185713Y-69683390D01*
X116185713Y-69683390D02*
X116138094Y-69492914D01*
X116138094Y-69492914D02*
X116090475Y-69397676D01*
X116090475Y-69397676D02*
X115995237Y-69302438D01*
X115995237Y-69302438D02*
X115852380Y-69254819D01*
X115852380Y-69254819D02*
X115757142Y-69254819D01*
X115757142Y-69254819D02*
X115614285Y-69302438D01*
X115614285Y-69302438D02*
X115566666Y-69350057D01*
X115185713Y-69350057D02*
X115138094Y-69302438D01*
X115138094Y-69302438D02*
X115042856Y-69254819D01*
X115042856Y-69254819D02*
X114804761Y-69254819D01*
X114804761Y-69254819D02*
X114709523Y-69302438D01*
X114709523Y-69302438D02*
X114661904Y-69350057D01*
X114661904Y-69350057D02*
X114614285Y-69445295D01*
X114614285Y-69445295D02*
X114614285Y-69540533D01*
X114614285Y-69540533D02*
X114661904Y-69683390D01*
X114661904Y-69683390D02*
X115233332Y-70254819D01*
X115233332Y-70254819D02*
X114614285Y-70254819D01*
X113738094Y-44854819D02*
X113738094Y-43854819D01*
X113738094Y-43854819D02*
X113499999Y-43854819D01*
X113499999Y-43854819D02*
X113357142Y-43902438D01*
X113357142Y-43902438D02*
X113261904Y-43997676D01*
X113261904Y-43997676D02*
X113214285Y-44092914D01*
X113214285Y-44092914D02*
X113166666Y-44283390D01*
X113166666Y-44283390D02*
X113166666Y-44426247D01*
X113166666Y-44426247D02*
X113214285Y-44616723D01*
X113214285Y-44616723D02*
X113261904Y-44711961D01*
X113261904Y-44711961D02*
X113357142Y-44807200D01*
X113357142Y-44807200D02*
X113499999Y-44854819D01*
X113499999Y-44854819D02*
X113738094Y-44854819D01*
X112785713Y-43950057D02*
X112738094Y-43902438D01*
X112738094Y-43902438D02*
X112642856Y-43854819D01*
X112642856Y-43854819D02*
X112404761Y-43854819D01*
X112404761Y-43854819D02*
X112309523Y-43902438D01*
X112309523Y-43902438D02*
X112261904Y-43950057D01*
X112261904Y-43950057D02*
X112214285Y-44045295D01*
X112214285Y-44045295D02*
X112214285Y-44140533D01*
X112214285Y-44140533D02*
X112261904Y-44283390D01*
X112261904Y-44283390D02*
X112833332Y-44854819D01*
X112833332Y-44854819D02*
X112214285Y-44854819D01*
X139966666Y-62854819D02*
X140299999Y-62378628D01*
X140538094Y-62854819D02*
X140538094Y-61854819D01*
X140538094Y-61854819D02*
X140157142Y-61854819D01*
X140157142Y-61854819D02*
X140061904Y-61902438D01*
X140061904Y-61902438D02*
X140014285Y-61950057D01*
X140014285Y-61950057D02*
X139966666Y-62045295D01*
X139966666Y-62045295D02*
X139966666Y-62188152D01*
X139966666Y-62188152D02*
X140014285Y-62283390D01*
X140014285Y-62283390D02*
X140061904Y-62331009D01*
X140061904Y-62331009D02*
X140157142Y-62378628D01*
X140157142Y-62378628D02*
X140538094Y-62378628D01*
X139585713Y-61950057D02*
X139538094Y-61902438D01*
X139538094Y-61902438D02*
X139442856Y-61854819D01*
X139442856Y-61854819D02*
X139204761Y-61854819D01*
X139204761Y-61854819D02*
X139109523Y-61902438D01*
X139109523Y-61902438D02*
X139061904Y-61950057D01*
X139061904Y-61950057D02*
X139014285Y-62045295D01*
X139014285Y-62045295D02*
X139014285Y-62140533D01*
X139014285Y-62140533D02*
X139061904Y-62283390D01*
X139061904Y-62283390D02*
X139633332Y-62854819D01*
X139633332Y-62854819D02*
X139014285Y-62854819D01*
X113333333Y-55531009D02*
X113666666Y-55531009D01*
X113666666Y-56054819D02*
X113666666Y-55054819D01*
X113666666Y-55054819D02*
X113190476Y-55054819D01*
X112285714Y-56054819D02*
X112857142Y-56054819D01*
X112571428Y-56054819D02*
X112571428Y-55054819D01*
X112571428Y-55054819D02*
X112666666Y-55197676D01*
X112666666Y-55197676D02*
X112761904Y-55292914D01*
X112761904Y-55292914D02*
X112857142Y-55340533D01*
X117966666Y-70159580D02*
X118014285Y-70207200D01*
X118014285Y-70207200D02*
X118157142Y-70254819D01*
X118157142Y-70254819D02*
X118252380Y-70254819D01*
X118252380Y-70254819D02*
X118395237Y-70207200D01*
X118395237Y-70207200D02*
X118490475Y-70111961D01*
X118490475Y-70111961D02*
X118538094Y-70016723D01*
X118538094Y-70016723D02*
X118585713Y-69826247D01*
X118585713Y-69826247D02*
X118585713Y-69683390D01*
X118585713Y-69683390D02*
X118538094Y-69492914D01*
X118538094Y-69492914D02*
X118490475Y-69397676D01*
X118490475Y-69397676D02*
X118395237Y-69302438D01*
X118395237Y-69302438D02*
X118252380Y-69254819D01*
X118252380Y-69254819D02*
X118157142Y-69254819D01*
X118157142Y-69254819D02*
X118014285Y-69302438D01*
X118014285Y-69302438D02*
X117966666Y-69350057D01*
X117633332Y-69254819D02*
X117014285Y-69254819D01*
X117014285Y-69254819D02*
X117347618Y-69635771D01*
X117347618Y-69635771D02*
X117204761Y-69635771D01*
X117204761Y-69635771D02*
X117109523Y-69683390D01*
X117109523Y-69683390D02*
X117061904Y-69731009D01*
X117061904Y-69731009D02*
X117014285Y-69826247D01*
X117014285Y-69826247D02*
X117014285Y-70064342D01*
X117014285Y-70064342D02*
X117061904Y-70159580D01*
X117061904Y-70159580D02*
X117109523Y-70207200D01*
X117109523Y-70207200D02*
X117204761Y-70254819D01*
X117204761Y-70254819D02*
X117490475Y-70254819D01*
X117490475Y-70254819D02*
X117585713Y-70207200D01*
X117585713Y-70207200D02*
X117633332Y-70159580D01*
X112479166Y-74054819D02*
X112812499Y-73578628D01*
X113050594Y-74054819D02*
X113050594Y-73054819D01*
X113050594Y-73054819D02*
X112669642Y-73054819D01*
X112669642Y-73054819D02*
X112574404Y-73102438D01*
X112574404Y-73102438D02*
X112526785Y-73150057D01*
X112526785Y-73150057D02*
X112479166Y-73245295D01*
X112479166Y-73245295D02*
X112479166Y-73388152D01*
X112479166Y-73388152D02*
X112526785Y-73483390D01*
X112526785Y-73483390D02*
X112574404Y-73531009D01*
X112574404Y-73531009D02*
X112669642Y-73578628D01*
X112669642Y-73578628D02*
X113050594Y-73578628D01*
X111622023Y-73054819D02*
X111812499Y-73054819D01*
X111812499Y-73054819D02*
X111907737Y-73102438D01*
X111907737Y-73102438D02*
X111955356Y-73150057D01*
X111955356Y-73150057D02*
X112050594Y-73292914D01*
X112050594Y-73292914D02*
X112098213Y-73483390D01*
X112098213Y-73483390D02*
X112098213Y-73864342D01*
X112098213Y-73864342D02*
X112050594Y-73959580D01*
X112050594Y-73959580D02*
X112002975Y-74007200D01*
X112002975Y-74007200D02*
X111907737Y-74054819D01*
X111907737Y-74054819D02*
X111717261Y-74054819D01*
X111717261Y-74054819D02*
X111622023Y-74007200D01*
X111622023Y-74007200D02*
X111574404Y-73959580D01*
X111574404Y-73959580D02*
X111526785Y-73864342D01*
X111526785Y-73864342D02*
X111526785Y-73626247D01*
X111526785Y-73626247D02*
X111574404Y-73531009D01*
X111574404Y-73531009D02*
X111622023Y-73483390D01*
X111622023Y-73483390D02*
X111717261Y-73435771D01*
X111717261Y-73435771D02*
X111907737Y-73435771D01*
X111907737Y-73435771D02*
X112002975Y-73483390D01*
X112002975Y-73483390D02*
X112050594Y-73531009D01*
X112050594Y-73531009D02*
X112098213Y-73626247D01*
X124138094Y-75854819D02*
X124138094Y-74854819D01*
X124138094Y-74854819D02*
X123899999Y-74854819D01*
X123899999Y-74854819D02*
X123757142Y-74902438D01*
X123757142Y-74902438D02*
X123661904Y-74997676D01*
X123661904Y-74997676D02*
X123614285Y-75092914D01*
X123614285Y-75092914D02*
X123566666Y-75283390D01*
X123566666Y-75283390D02*
X123566666Y-75426247D01*
X123566666Y-75426247D02*
X123614285Y-75616723D01*
X123614285Y-75616723D02*
X123661904Y-75711961D01*
X123661904Y-75711961D02*
X123757142Y-75807200D01*
X123757142Y-75807200D02*
X123899999Y-75854819D01*
X123899999Y-75854819D02*
X124138094Y-75854819D01*
X122614285Y-75854819D02*
X123185713Y-75854819D01*
X122899999Y-75854819D02*
X122899999Y-74854819D01*
X122899999Y-74854819D02*
X122995237Y-74997676D01*
X122995237Y-74997676D02*
X123090475Y-75092914D01*
X123090475Y-75092914D02*
X123185713Y-75140533D01*
X120366666Y-70159580D02*
X120414285Y-70207200D01*
X120414285Y-70207200D02*
X120557142Y-70254819D01*
X120557142Y-70254819D02*
X120652380Y-70254819D01*
X120652380Y-70254819D02*
X120795237Y-70207200D01*
X120795237Y-70207200D02*
X120890475Y-70111961D01*
X120890475Y-70111961D02*
X120938094Y-70016723D01*
X120938094Y-70016723D02*
X120985713Y-69826247D01*
X120985713Y-69826247D02*
X120985713Y-69683390D01*
X120985713Y-69683390D02*
X120938094Y-69492914D01*
X120938094Y-69492914D02*
X120890475Y-69397676D01*
X120890475Y-69397676D02*
X120795237Y-69302438D01*
X120795237Y-69302438D02*
X120652380Y-69254819D01*
X120652380Y-69254819D02*
X120557142Y-69254819D01*
X120557142Y-69254819D02*
X120414285Y-69302438D01*
X120414285Y-69302438D02*
X120366666Y-69350057D01*
X119509523Y-69588152D02*
X119509523Y-70254819D01*
X119747618Y-69207200D02*
X119985713Y-69921485D01*
X119985713Y-69921485D02*
X119366666Y-69921485D01*
X130161904Y-59254819D02*
X130161904Y-60064342D01*
X130161904Y-60064342D02*
X130114285Y-60159580D01*
X130114285Y-60159580D02*
X130066666Y-60207200D01*
X130066666Y-60207200D02*
X129971428Y-60254819D01*
X129971428Y-60254819D02*
X129780952Y-60254819D01*
X129780952Y-60254819D02*
X129685714Y-60207200D01*
X129685714Y-60207200D02*
X129638095Y-60159580D01*
X129638095Y-60159580D02*
X129590476Y-60064342D01*
X129590476Y-60064342D02*
X129590476Y-59254819D01*
X128590476Y-60254819D02*
X129161904Y-60254819D01*
X128876190Y-60254819D02*
X128876190Y-59254819D01*
X128876190Y-59254819D02*
X128971428Y-59397676D01*
X128971428Y-59397676D02*
X129066666Y-59492914D01*
X129066666Y-59492914D02*
X129161904Y-59540533D01*
X111679580Y-61833333D02*
X111727200Y-61785714D01*
X111727200Y-61785714D02*
X111774819Y-61642857D01*
X111774819Y-61642857D02*
X111774819Y-61547619D01*
X111774819Y-61547619D02*
X111727200Y-61404762D01*
X111727200Y-61404762D02*
X111631961Y-61309524D01*
X111631961Y-61309524D02*
X111536723Y-61261905D01*
X111536723Y-61261905D02*
X111346247Y-61214286D01*
X111346247Y-61214286D02*
X111203390Y-61214286D01*
X111203390Y-61214286D02*
X111012914Y-61261905D01*
X111012914Y-61261905D02*
X110917676Y-61309524D01*
X110917676Y-61309524D02*
X110822438Y-61404762D01*
X110822438Y-61404762D02*
X110774819Y-61547619D01*
X110774819Y-61547619D02*
X110774819Y-61642857D01*
X110774819Y-61642857D02*
X110822438Y-61785714D01*
X110822438Y-61785714D02*
X110870057Y-61833333D01*
X111774819Y-62785714D02*
X111774819Y-62214286D01*
X111774819Y-62500000D02*
X110774819Y-62500000D01*
X110774819Y-62500000D02*
X110917676Y-62404762D01*
X110917676Y-62404762D02*
X111012914Y-62309524D01*
X111012914Y-62309524D02*
X111060533Y-62214286D01*
X127274819Y-54233333D02*
X126798628Y-53900000D01*
X127274819Y-53661905D02*
X126274819Y-53661905D01*
X126274819Y-53661905D02*
X126274819Y-54042857D01*
X126274819Y-54042857D02*
X126322438Y-54138095D01*
X126322438Y-54138095D02*
X126370057Y-54185714D01*
X126370057Y-54185714D02*
X126465295Y-54233333D01*
X126465295Y-54233333D02*
X126608152Y-54233333D01*
X126608152Y-54233333D02*
X126703390Y-54185714D01*
X126703390Y-54185714D02*
X126751009Y-54138095D01*
X126751009Y-54138095D02*
X126798628Y-54042857D01*
X126798628Y-54042857D02*
X126798628Y-53661905D01*
X126608152Y-55090476D02*
X127274819Y-55090476D01*
X126227200Y-54852381D02*
X126941485Y-54614286D01*
X126941485Y-54614286D02*
X126941485Y-55233333D01*
X124354819Y-61133333D02*
X123878628Y-60800000D01*
X124354819Y-60561905D02*
X123354819Y-60561905D01*
X123354819Y-60561905D02*
X123354819Y-60942857D01*
X123354819Y-60942857D02*
X123402438Y-61038095D01*
X123402438Y-61038095D02*
X123450057Y-61085714D01*
X123450057Y-61085714D02*
X123545295Y-61133333D01*
X123545295Y-61133333D02*
X123688152Y-61133333D01*
X123688152Y-61133333D02*
X123783390Y-61085714D01*
X123783390Y-61085714D02*
X123831009Y-61038095D01*
X123831009Y-61038095D02*
X123878628Y-60942857D01*
X123878628Y-60942857D02*
X123878628Y-60561905D01*
X123354819Y-62038095D02*
X123354819Y-61561905D01*
X123354819Y-61561905D02*
X123831009Y-61514286D01*
X123831009Y-61514286D02*
X123783390Y-61561905D01*
X123783390Y-61561905D02*
X123735771Y-61657143D01*
X123735771Y-61657143D02*
X123735771Y-61895238D01*
X123735771Y-61895238D02*
X123783390Y-61990476D01*
X123783390Y-61990476D02*
X123831009Y-62038095D01*
X123831009Y-62038095D02*
X123926247Y-62085714D01*
X123926247Y-62085714D02*
X124164342Y-62085714D01*
X124164342Y-62085714D02*
X124259580Y-62038095D01*
X124259580Y-62038095D02*
X124307200Y-61990476D01*
X124307200Y-61990476D02*
X124354819Y-61895238D01*
X124354819Y-61895238D02*
X124354819Y-61657143D01*
X124354819Y-61657143D02*
X124307200Y-61561905D01*
X124307200Y-61561905D02*
X124259580Y-61514286D01*
X134654819Y-58633333D02*
X134178628Y-58300000D01*
X134654819Y-58061905D02*
X133654819Y-58061905D01*
X133654819Y-58061905D02*
X133654819Y-58442857D01*
X133654819Y-58442857D02*
X133702438Y-58538095D01*
X133702438Y-58538095D02*
X133750057Y-58585714D01*
X133750057Y-58585714D02*
X133845295Y-58633333D01*
X133845295Y-58633333D02*
X133988152Y-58633333D01*
X133988152Y-58633333D02*
X134083390Y-58585714D01*
X134083390Y-58585714D02*
X134131009Y-58538095D01*
X134131009Y-58538095D02*
X134178628Y-58442857D01*
X134178628Y-58442857D02*
X134178628Y-58061905D01*
X134654819Y-59585714D02*
X134654819Y-59014286D01*
X134654819Y-59300000D02*
X133654819Y-59300000D01*
X133654819Y-59300000D02*
X133797676Y-59204762D01*
X133797676Y-59204762D02*
X133892914Y-59109524D01*
X133892914Y-59109524D02*
X133940533Y-59014286D01*
X119809238Y-46350057D02*
X119904476Y-46302438D01*
X119904476Y-46302438D02*
X119999714Y-46207200D01*
X119999714Y-46207200D02*
X120142571Y-46064342D01*
X120142571Y-46064342D02*
X120237809Y-46016723D01*
X120237809Y-46016723D02*
X120333047Y-46016723D01*
X120285428Y-46254819D02*
X120380666Y-46207200D01*
X120380666Y-46207200D02*
X120475904Y-46111961D01*
X120475904Y-46111961D02*
X120523523Y-45921485D01*
X120523523Y-45921485D02*
X120523523Y-45588152D01*
X120523523Y-45588152D02*
X120475904Y-45397676D01*
X120475904Y-45397676D02*
X120380666Y-45302438D01*
X120380666Y-45302438D02*
X120285428Y-45254819D01*
X120285428Y-45254819D02*
X120094952Y-45254819D01*
X120094952Y-45254819D02*
X119999714Y-45302438D01*
X119999714Y-45302438D02*
X119904476Y-45397676D01*
X119904476Y-45397676D02*
X119856857Y-45588152D01*
X119856857Y-45588152D02*
X119856857Y-45921485D01*
X119856857Y-45921485D02*
X119904476Y-46111961D01*
X119904476Y-46111961D02*
X119999714Y-46207200D01*
X119999714Y-46207200D02*
X120094952Y-46254819D01*
X120094952Y-46254819D02*
X120285428Y-46254819D01*
X118904476Y-46254819D02*
X119475904Y-46254819D01*
X119190190Y-46254819D02*
X119190190Y-45254819D01*
X119190190Y-45254819D02*
X119285428Y-45397676D01*
X119285428Y-45397676D02*
X119380666Y-45492914D01*
X119380666Y-45492914D02*
X119475904Y-45540533D01*
X139966666Y-54454819D02*
X140299999Y-53978628D01*
X140538094Y-54454819D02*
X140538094Y-53454819D01*
X140538094Y-53454819D02*
X140157142Y-53454819D01*
X140157142Y-53454819D02*
X140061904Y-53502438D01*
X140061904Y-53502438D02*
X140014285Y-53550057D01*
X140014285Y-53550057D02*
X139966666Y-53645295D01*
X139966666Y-53645295D02*
X139966666Y-53788152D01*
X139966666Y-53788152D02*
X140014285Y-53883390D01*
X140014285Y-53883390D02*
X140061904Y-53931009D01*
X140061904Y-53931009D02*
X140157142Y-53978628D01*
X140157142Y-53978628D02*
X140538094Y-53978628D01*
X139633332Y-53454819D02*
X139014285Y-53454819D01*
X139014285Y-53454819D02*
X139347618Y-53835771D01*
X139347618Y-53835771D02*
X139204761Y-53835771D01*
X139204761Y-53835771D02*
X139109523Y-53883390D01*
X139109523Y-53883390D02*
X139061904Y-53931009D01*
X139061904Y-53931009D02*
X139014285Y-54026247D01*
X139014285Y-54026247D02*
X139014285Y-54264342D01*
X139014285Y-54264342D02*
X139061904Y-54359580D01*
X139061904Y-54359580D02*
X139109523Y-54407200D01*
X139109523Y-54407200D02*
X139204761Y-54454819D01*
X139204761Y-54454819D02*
X139490475Y-54454819D01*
X139490475Y-54454819D02*
X139585713Y-54407200D01*
X139585713Y-54407200D02*
X139633332Y-54359580D01*
D11*
%TO.C,R7*%
X116427064Y-70865000D02*
X115972936Y-70865000D01*
X116427064Y-72335000D02*
X115972936Y-72335000D01*
%TO.C,U2*%
X116242500Y-65160000D02*
X118822500Y-65160000D01*
X118822500Y-60440000D02*
X116102500Y-60440000D01*
X118822500Y-61420000D02*
X118822500Y-60440000D01*
X118822500Y-64180000D02*
X118822500Y-65160000D01*
X115932500Y-65340000D02*
X115452500Y-65340000D01*
X115692500Y-65010000D01*
X115932500Y-65340000D01*
G36*
X115932500Y-65340000D02*
G01*
X115452500Y-65340000D01*
X115692500Y-65010000D01*
X115932500Y-65340000D01*
G37*
%TO.C,R8*%
X130490000Y-71272936D02*
X130490000Y-72727064D01*
X132310000Y-71272936D02*
X132310000Y-72727064D01*
%TO.C,C2*%
X114665000Y-67138748D02*
X114665000Y-67661252D01*
X116135000Y-67138748D02*
X116135000Y-67661252D01*
%TO.C,D2*%
X111350000Y-54510000D02*
X111350000Y-47500000D01*
X114650000Y-54510000D02*
X111350000Y-54510000D01*
X114650000Y-54510000D02*
X114650000Y-47500000D01*
%TO.C,R2*%
X136772936Y-61665000D02*
X137227064Y-61665000D01*
X136772936Y-63135000D02*
X137227064Y-63135000D01*
%TO.C,F1*%
X115500000Y-56400000D02*
X110500000Y-56400000D01*
X110500000Y-58800000D01*
X115500000Y-58800000D01*
X115500000Y-56400000D01*
%TO.C,C3*%
X117065000Y-67138748D02*
X117065000Y-67661252D01*
X118535000Y-67138748D02*
X118535000Y-67661252D01*
%TO.C,R6*%
X112085436Y-70865000D02*
X112539564Y-70865000D01*
X112085436Y-72335000D02*
X112539564Y-72335000D01*
%TO.C,D1*%
X122290000Y-74260000D02*
X122290000Y-69850000D01*
X124510000Y-69850000D02*
X124510000Y-74260000D01*
X124510000Y-74260000D02*
X122290000Y-74260000D01*
%TO.C,C4*%
X119465000Y-67188748D02*
X119465000Y-67711252D01*
X120935000Y-67188748D02*
X120935000Y-67711252D01*
D10*
%TO.C,U1*%
X126250000Y-61250000D02*
X126250000Y-62040000D01*
X126250000Y-61250000D02*
X127040000Y-61250000D01*
X126250000Y-67550000D02*
X126250000Y-66760000D01*
X126250000Y-67550000D02*
X127040000Y-67550000D01*
X132550000Y-61250000D02*
X131760000Y-61250000D01*
X132550000Y-67550000D02*
X131760000Y-67550000D01*
X132550000Y-67550000D02*
X132550000Y-66760000D01*
D11*
%TO.C,C1*%
X112265000Y-61738748D02*
X112265000Y-62261252D01*
X113735000Y-61738748D02*
X113735000Y-62261252D01*
%TO.C,R4*%
X124090000Y-55127064D02*
X124090000Y-53672936D01*
X125910000Y-55127064D02*
X125910000Y-53672936D01*
%TO.C,R5*%
X121090000Y-60610436D02*
X121090000Y-62064564D01*
X122910000Y-60610436D02*
X122910000Y-62064564D01*
%TO.C,R1*%
X133465000Y-56227064D02*
X133465000Y-55772936D01*
X134935000Y-56227064D02*
X134935000Y-55772936D01*
D12*
%TO.C,Q1*%
X116314000Y-47000000D02*
X116314000Y-55000000D01*
X116314000Y-55000000D02*
X123114000Y-55000000D01*
X116314000Y-58600000D02*
X116314000Y-55000000D01*
X118514000Y-55000000D02*
X118514000Y-58600000D01*
X118514000Y-58600000D02*
X116314000Y-58600000D01*
X120914000Y-58600000D02*
X120914000Y-55000000D01*
X123114000Y-47000000D02*
X116314000Y-47000000D01*
X123114000Y-55000000D02*
X123114000Y-47000000D01*
X123114000Y-55000000D02*
X123114000Y-58600000D01*
X123114000Y-58600000D02*
X120914000Y-58600000D01*
D11*
%TO.C,R3*%
X137227064Y-53265000D02*
X136772936Y-53265000D01*
X137227064Y-54735000D02*
X136772936Y-54735000D01*
%TD*%
%LPC*%
D13*
%TO.C,U1*%
X127925000Y-64900000D02*
G75*
G02*
X128501791Y-65449833I50000J-525000D01*
G01*
X130300000Y-64825000D02*
G75*
G02*
X130849833Y-64248208I525003J49998D01*
G01*
X130875000Y-65850000D02*
G75*
G02*
X130298208Y-65300167I-49998J525003D01*
G01*
%TD*%
D14*
%TO.C,*%
X106000000Y-74500000D03*
%TD*%
D15*
%TO.C,J4*%
X106000000Y-48000000D03*
X106000000Y-53000000D03*
X106000000Y-58000000D03*
%TD*%
D14*
%TO.C,Dira3mmNTPH*%
X152000000Y-74500000D03*
%TD*%
D16*
%TO.C,TP3*%
X137000000Y-56600000D03*
%TD*%
D14*
%TO.C,Dira3mmNTPH*%
X152000000Y-41500000D03*
%TD*%
D17*
%TO.C,J2*%
X152200000Y-65500000D03*
D18*
X152200000Y-60500000D03*
%TD*%
D14*
%TO.C,Dira3mmNTPH*%
X106000000Y-41500000D03*
%TD*%
D16*
%TO.C,TP1*%
X127400000Y-73400000D03*
%TD*%
%TO.C,TP2*%
X137000000Y-59800000D03*
%TD*%
D19*
%TO.C,J1*%
X131600000Y-57200000D03*
D20*
X131600000Y-54660000D03*
X131600000Y-52120000D03*
X131600000Y-49580000D03*
X131600000Y-47040000D03*
%TD*%
D21*
%TO.C,U3*%
X137590000Y-65530000D03*
D22*
X137590000Y-68070000D03*
X145210000Y-68070000D03*
X145210000Y-65530000D03*
%TD*%
D17*
%TO.C,J3*%
X152200000Y-55500000D03*
D18*
X152200000Y-50500000D03*
%TD*%
D17*
%TO.C,J5*%
X106000000Y-63000000D03*
D18*
X106000000Y-68000000D03*
%TD*%
D21*
%TO.C,U4*%
X137590000Y-48330000D03*
D22*
X137590000Y-50870000D03*
X145210000Y-50870000D03*
X145210000Y-48330000D03*
%TD*%
D23*
%TO.C,R7*%
X117112500Y-71600000D03*
X115287500Y-71600000D03*
%TD*%
D24*
%TO.C,U2*%
X115512500Y-64300000D03*
D25*
X115600000Y-62800000D03*
D24*
X115512500Y-61300000D03*
%TD*%
D26*
%TO.C,R8*%
X131400000Y-70537500D03*
X131400000Y-73462500D03*
%TD*%
D27*
%TO.C,C2*%
X115400000Y-66450000D03*
X115400000Y-68350000D03*
%TD*%
D28*
%TO.C,D2*%
X113000000Y-52500000D03*
X113000000Y-47500000D03*
%TD*%
D29*
%TO.C,R2*%
X136087500Y-62400000D03*
X137912500Y-62400000D03*
%TD*%
D30*
%TO.C,F1*%
X111600000Y-57600000D03*
X114400000Y-57600000D03*
%TD*%
D27*
%TO.C,C3*%
X117800000Y-66450000D03*
X117800000Y-68350000D03*
%TD*%
D29*
%TO.C,R6*%
X111400000Y-71600000D03*
X113225000Y-71600000D03*
%TD*%
D31*
%TO.C,D1*%
X123400000Y-73350000D03*
X123400000Y-69850000D03*
%TD*%
D27*
%TO.C,C4*%
X120200000Y-66500000D03*
X120200000Y-68400000D03*
%TD*%
D32*
%TO.C,U1*%
X132500000Y-62450000D03*
X132500000Y-63100000D03*
X132500000Y-63750000D03*
X132500000Y-64400000D03*
X132500000Y-65050000D03*
X132500000Y-65700000D03*
X132500000Y-66350000D03*
D33*
X131350000Y-67500000D03*
X130700000Y-67500000D03*
X130050000Y-67500000D03*
X129400000Y-67500000D03*
X128750000Y-67500000D03*
X128100000Y-67500000D03*
X127450000Y-67500000D03*
D32*
X126300000Y-66350000D03*
X126300000Y-65700000D03*
X126300000Y-65050000D03*
X126300000Y-64400000D03*
X126300000Y-63750000D03*
X126300000Y-63100000D03*
X126300000Y-62450000D03*
D33*
X127450000Y-61300000D03*
X128100000Y-61300000D03*
X128750000Y-61300000D03*
X129400000Y-61300000D03*
X130050000Y-61300000D03*
X130700000Y-61300000D03*
X131350000Y-61300000D03*
D34*
X130993750Y-66110000D03*
D35*
X130993750Y-63868750D03*
X130993750Y-62806250D03*
X129931250Y-65993750D03*
X129931250Y-64931250D03*
X129931250Y-63868750D03*
X129931250Y-62806250D03*
X128868750Y-65993750D03*
X128868750Y-64931250D03*
X128868750Y-63868750D03*
X128868750Y-62806250D03*
D36*
X127806250Y-64725000D03*
D35*
X127806250Y-63868750D03*
X127806250Y-62806250D03*
%TD*%
D27*
%TO.C,C1*%
X113000000Y-61050000D03*
X113000000Y-62950000D03*
%TD*%
D37*
%TO.C,R4*%
X125000000Y-55862500D03*
X125000000Y-52937500D03*
%TD*%
D26*
%TO.C,R5*%
X122000000Y-59875000D03*
X122000000Y-62800000D03*
%TD*%
D38*
%TO.C,R1*%
X134200000Y-56912500D03*
X134200000Y-55087500D03*
%TD*%
D39*
%TO.C,Q1*%
X119714000Y-50450000D03*
D40*
X122000000Y-56800000D03*
X117428000Y-56800000D03*
%TD*%
D23*
%TO.C,R3*%
X137912500Y-54000000D03*
X136087500Y-54000000D03*
%TD*%
%LPD*%
M02*
