%TF.GenerationSoftware,KiCad,Pcbnew,9.0.4-unknown*%
%TF.CreationDate,2025-11-20T15:33:37+01:00*%
%TF.ProjectId,KlimatizaceSamsung,4b6c696d-6174-4697-9a61-636553616d73,rev?*%
%TF.SameCoordinates,Original*%
%TF.FileFunction,AssemblyDrawing,Top*%
%FSLAX46Y46*%
G04 Gerber Fmt 4.6, Leading zero omitted, Abs format (unit mm)*
G04 Created by KiCad (PCBNEW 9.0.4-unknown) date 2025-11-20 15:33:37*
%MOMM*%
%LPD*%
G01*
G04 APERTURE LIST*
%ADD10C,0.150000*%
%ADD11C,0.120000*%
%ADD12C,0.100000*%
G04 APERTURE END LIST*
D10*
X109030895Y-49233333D02*
X109030895Y-49709523D01*
X108745180Y-49138095D02*
X109745180Y-49471428D01*
X109745180Y-49471428D02*
X108745180Y-49804761D01*
X108745180Y-50709523D02*
X109221371Y-50376190D01*
X108745180Y-50138095D02*
X109745180Y-50138095D01*
X109745180Y-50138095D02*
X109745180Y-50519047D01*
X109745180Y-50519047D02*
X109697561Y-50614285D01*
X109697561Y-50614285D02*
X109649942Y-50661904D01*
X109649942Y-50661904D02*
X109554704Y-50709523D01*
X109554704Y-50709523D02*
X109411847Y-50709523D01*
X109411847Y-50709523D02*
X109316609Y-50661904D01*
X109316609Y-50661904D02*
X109268990Y-50614285D01*
X109268990Y-50614285D02*
X109221371Y-50519047D01*
X109221371Y-50519047D02*
X109221371Y-50138095D01*
X108745180Y-51138095D02*
X109745180Y-51138095D01*
X108745180Y-51709523D02*
X109316609Y-51280952D01*
X109745180Y-51709523D02*
X109173752Y-51138095D01*
X109745180Y-52614285D02*
X109745180Y-52138095D01*
X109745180Y-52138095D02*
X109268990Y-52090476D01*
X109268990Y-52090476D02*
X109316609Y-52138095D01*
X109316609Y-52138095D02*
X109364228Y-52233333D01*
X109364228Y-52233333D02*
X109364228Y-52471428D01*
X109364228Y-52471428D02*
X109316609Y-52566666D01*
X109316609Y-52566666D02*
X109268990Y-52614285D01*
X109268990Y-52614285D02*
X109173752Y-52661904D01*
X109173752Y-52661904D02*
X108935657Y-52661904D01*
X108935657Y-52661904D02*
X108840419Y-52614285D01*
X108840419Y-52614285D02*
X108792800Y-52566666D01*
X108792800Y-52566666D02*
X108745180Y-52471428D01*
X108745180Y-52471428D02*
X108745180Y-52233333D01*
X108745180Y-52233333D02*
X108792800Y-52138095D01*
X108792800Y-52138095D02*
X108840419Y-52090476D01*
X109745180Y-53280952D02*
X109745180Y-53376190D01*
X109745180Y-53376190D02*
X109697561Y-53471428D01*
X109697561Y-53471428D02*
X109649942Y-53519047D01*
X109649942Y-53519047D02*
X109554704Y-53566666D01*
X109554704Y-53566666D02*
X109364228Y-53614285D01*
X109364228Y-53614285D02*
X109126133Y-53614285D01*
X109126133Y-53614285D02*
X108935657Y-53566666D01*
X108935657Y-53566666D02*
X108840419Y-53519047D01*
X108840419Y-53519047D02*
X108792800Y-53471428D01*
X108792800Y-53471428D02*
X108745180Y-53376190D01*
X108745180Y-53376190D02*
X108745180Y-53280952D01*
X108745180Y-53280952D02*
X108792800Y-53185714D01*
X108792800Y-53185714D02*
X108840419Y-53138095D01*
X108840419Y-53138095D02*
X108935657Y-53090476D01*
X108935657Y-53090476D02*
X109126133Y-53042857D01*
X109126133Y-53042857D02*
X109364228Y-53042857D01*
X109364228Y-53042857D02*
X109554704Y-53090476D01*
X109554704Y-53090476D02*
X109649942Y-53138095D01*
X109649942Y-53138095D02*
X109697561Y-53185714D01*
X109697561Y-53185714D02*
X109745180Y-53280952D01*
X109745180Y-54233333D02*
X109745180Y-54328571D01*
X109745180Y-54328571D02*
X109697561Y-54423809D01*
X109697561Y-54423809D02*
X109649942Y-54471428D01*
X109649942Y-54471428D02*
X109554704Y-54519047D01*
X109554704Y-54519047D02*
X109364228Y-54566666D01*
X109364228Y-54566666D02*
X109126133Y-54566666D01*
X109126133Y-54566666D02*
X108935657Y-54519047D01*
X108935657Y-54519047D02*
X108840419Y-54471428D01*
X108840419Y-54471428D02*
X108792800Y-54423809D01*
X108792800Y-54423809D02*
X108745180Y-54328571D01*
X108745180Y-54328571D02*
X108745180Y-54233333D01*
X108745180Y-54233333D02*
X108792800Y-54138095D01*
X108792800Y-54138095D02*
X108840419Y-54090476D01*
X108840419Y-54090476D02*
X108935657Y-54042857D01*
X108935657Y-54042857D02*
X109126133Y-53995238D01*
X109126133Y-53995238D02*
X109364228Y-53995238D01*
X109364228Y-53995238D02*
X109554704Y-54042857D01*
X109554704Y-54042857D02*
X109649942Y-54090476D01*
X109649942Y-54090476D02*
X109697561Y-54138095D01*
X109697561Y-54138095D02*
X109745180Y-54233333D01*
X109792800Y-55709523D02*
X108507085Y-54852381D01*
X109745180Y-55947619D02*
X109745180Y-56566666D01*
X109745180Y-56566666D02*
X109364228Y-56233333D01*
X109364228Y-56233333D02*
X109364228Y-56376190D01*
X109364228Y-56376190D02*
X109316609Y-56471428D01*
X109316609Y-56471428D02*
X109268990Y-56519047D01*
X109268990Y-56519047D02*
X109173752Y-56566666D01*
X109173752Y-56566666D02*
X108935657Y-56566666D01*
X108935657Y-56566666D02*
X108840419Y-56519047D01*
X108840419Y-56519047D02*
X108792800Y-56471428D01*
X108792800Y-56471428D02*
X108745180Y-56376190D01*
X108745180Y-56376190D02*
X108745180Y-56090476D01*
X108745180Y-56090476D02*
X108792800Y-55995238D01*
X108792800Y-55995238D02*
X108840419Y-55947619D01*
X111945180Y-52666666D02*
X111230895Y-52666666D01*
X111230895Y-52666666D02*
X111088038Y-52619047D01*
X111088038Y-52619047D02*
X110992800Y-52523809D01*
X110992800Y-52523809D02*
X110945180Y-52380952D01*
X110945180Y-52380952D02*
X110945180Y-52285714D01*
X111611847Y-53571428D02*
X110945180Y-53571428D01*
X111992800Y-53333333D02*
X111278514Y-53095238D01*
X111278514Y-53095238D02*
X111278514Y-53714285D01*
X147933333Y-69469104D02*
X148409523Y-69469104D01*
X147838095Y-69754819D02*
X148171428Y-68754819D01*
X148171428Y-68754819D02*
X148504761Y-69754819D01*
X149409523Y-69754819D02*
X149076190Y-69278628D01*
X148838095Y-69754819D02*
X148838095Y-68754819D01*
X148838095Y-68754819D02*
X149219047Y-68754819D01*
X149219047Y-68754819D02*
X149314285Y-68802438D01*
X149314285Y-68802438D02*
X149361904Y-68850057D01*
X149361904Y-68850057D02*
X149409523Y-68945295D01*
X149409523Y-68945295D02*
X149409523Y-69088152D01*
X149409523Y-69088152D02*
X149361904Y-69183390D01*
X149361904Y-69183390D02*
X149314285Y-69231009D01*
X149314285Y-69231009D02*
X149219047Y-69278628D01*
X149219047Y-69278628D02*
X148838095Y-69278628D01*
X149838095Y-69754819D02*
X149838095Y-68754819D01*
X150409523Y-69754819D02*
X149980952Y-69183390D01*
X150409523Y-68754819D02*
X149838095Y-69326247D01*
X151314285Y-68754819D02*
X150838095Y-68754819D01*
X150838095Y-68754819D02*
X150790476Y-69231009D01*
X150790476Y-69231009D02*
X150838095Y-69183390D01*
X150838095Y-69183390D02*
X150933333Y-69135771D01*
X150933333Y-69135771D02*
X151171428Y-69135771D01*
X151171428Y-69135771D02*
X151266666Y-69183390D01*
X151266666Y-69183390D02*
X151314285Y-69231009D01*
X151314285Y-69231009D02*
X151361904Y-69326247D01*
X151361904Y-69326247D02*
X151361904Y-69564342D01*
X151361904Y-69564342D02*
X151314285Y-69659580D01*
X151314285Y-69659580D02*
X151266666Y-69707200D01*
X151266666Y-69707200D02*
X151171428Y-69754819D01*
X151171428Y-69754819D02*
X150933333Y-69754819D01*
X150933333Y-69754819D02*
X150838095Y-69707200D01*
X150838095Y-69707200D02*
X150790476Y-69659580D01*
X151980952Y-68754819D02*
X152076190Y-68754819D01*
X152076190Y-68754819D02*
X152171428Y-68802438D01*
X152171428Y-68802438D02*
X152219047Y-68850057D01*
X152219047Y-68850057D02*
X152266666Y-68945295D01*
X152266666Y-68945295D02*
X152314285Y-69135771D01*
X152314285Y-69135771D02*
X152314285Y-69373866D01*
X152314285Y-69373866D02*
X152266666Y-69564342D01*
X152266666Y-69564342D02*
X152219047Y-69659580D01*
X152219047Y-69659580D02*
X152171428Y-69707200D01*
X152171428Y-69707200D02*
X152076190Y-69754819D01*
X152076190Y-69754819D02*
X151980952Y-69754819D01*
X151980952Y-69754819D02*
X151885714Y-69707200D01*
X151885714Y-69707200D02*
X151838095Y-69659580D01*
X151838095Y-69659580D02*
X151790476Y-69564342D01*
X151790476Y-69564342D02*
X151742857Y-69373866D01*
X151742857Y-69373866D02*
X151742857Y-69135771D01*
X151742857Y-69135771D02*
X151790476Y-68945295D01*
X151790476Y-68945295D02*
X151838095Y-68850057D01*
X151838095Y-68850057D02*
X151885714Y-68802438D01*
X151885714Y-68802438D02*
X151980952Y-68754819D01*
X152933333Y-68754819D02*
X153028571Y-68754819D01*
X153028571Y-68754819D02*
X153123809Y-68802438D01*
X153123809Y-68802438D02*
X153171428Y-68850057D01*
X153171428Y-68850057D02*
X153219047Y-68945295D01*
X153219047Y-68945295D02*
X153266666Y-69135771D01*
X153266666Y-69135771D02*
X153266666Y-69373866D01*
X153266666Y-69373866D02*
X153219047Y-69564342D01*
X153219047Y-69564342D02*
X153171428Y-69659580D01*
X153171428Y-69659580D02*
X153123809Y-69707200D01*
X153123809Y-69707200D02*
X153028571Y-69754819D01*
X153028571Y-69754819D02*
X152933333Y-69754819D01*
X152933333Y-69754819D02*
X152838095Y-69707200D01*
X152838095Y-69707200D02*
X152790476Y-69659580D01*
X152790476Y-69659580D02*
X152742857Y-69564342D01*
X152742857Y-69564342D02*
X152695238Y-69373866D01*
X152695238Y-69373866D02*
X152695238Y-69135771D01*
X152695238Y-69135771D02*
X152742857Y-68945295D01*
X152742857Y-68945295D02*
X152790476Y-68850057D01*
X152790476Y-68850057D02*
X152838095Y-68802438D01*
X152838095Y-68802438D02*
X152933333Y-68754819D01*
X154409523Y-68707200D02*
X153552381Y-69992914D01*
X154695238Y-68850057D02*
X154742857Y-68802438D01*
X154742857Y-68802438D02*
X154838095Y-68754819D01*
X154838095Y-68754819D02*
X155076190Y-68754819D01*
X155076190Y-68754819D02*
X155171428Y-68802438D01*
X155171428Y-68802438D02*
X155219047Y-68850057D01*
X155219047Y-68850057D02*
X155266666Y-68945295D01*
X155266666Y-68945295D02*
X155266666Y-69040533D01*
X155266666Y-69040533D02*
X155219047Y-69183390D01*
X155219047Y-69183390D02*
X154647619Y-69754819D01*
X154647619Y-69754819D02*
X155266666Y-69754819D01*
X146254819Y-63333333D02*
X146969104Y-63333333D01*
X146969104Y-63333333D02*
X147111961Y-63380952D01*
X147111961Y-63380952D02*
X147207200Y-63476190D01*
X147207200Y-63476190D02*
X147254819Y-63619047D01*
X147254819Y-63619047D02*
X147254819Y-63714285D01*
X146350057Y-62904761D02*
X146302438Y-62857142D01*
X146302438Y-62857142D02*
X146254819Y-62761904D01*
X146254819Y-62761904D02*
X146254819Y-62523809D01*
X146254819Y-62523809D02*
X146302438Y-62428571D01*
X146302438Y-62428571D02*
X146350057Y-62380952D01*
X146350057Y-62380952D02*
X146445295Y-62333333D01*
X146445295Y-62333333D02*
X146540533Y-62333333D01*
X146540533Y-62333333D02*
X146683390Y-62380952D01*
X146683390Y-62380952D02*
X147254819Y-62952380D01*
X147254819Y-62952380D02*
X147254819Y-62333333D01*
X134554819Y-57404762D02*
X133554819Y-57404762D01*
X133554819Y-57404762D02*
X133554819Y-57166667D01*
X133554819Y-57166667D02*
X133602438Y-57023810D01*
X133602438Y-57023810D02*
X133697676Y-56928572D01*
X133697676Y-56928572D02*
X133792914Y-56880953D01*
X133792914Y-56880953D02*
X133983390Y-56833334D01*
X133983390Y-56833334D02*
X134126247Y-56833334D01*
X134126247Y-56833334D02*
X134316723Y-56880953D01*
X134316723Y-56880953D02*
X134411961Y-56928572D01*
X134411961Y-56928572D02*
X134507200Y-57023810D01*
X134507200Y-57023810D02*
X134554819Y-57166667D01*
X134554819Y-57166667D02*
X134554819Y-57404762D01*
X133888152Y-55976191D02*
X134554819Y-55976191D01*
X133888152Y-56404762D02*
X134411961Y-56404762D01*
X134411961Y-56404762D02*
X134507200Y-56357143D01*
X134507200Y-56357143D02*
X134554819Y-56261905D01*
X134554819Y-56261905D02*
X134554819Y-56119048D01*
X134554819Y-56119048D02*
X134507200Y-56023810D01*
X134507200Y-56023810D02*
X134459580Y-55976191D01*
X133888152Y-55642857D02*
X133888152Y-55261905D01*
X133554819Y-55500000D02*
X134411961Y-55500000D01*
X134411961Y-55500000D02*
X134507200Y-55452381D01*
X134507200Y-55452381D02*
X134554819Y-55357143D01*
X134554819Y-55357143D02*
X134554819Y-55261905D01*
X134554819Y-54928571D02*
X133888152Y-54928571D01*
X133554819Y-54928571D02*
X133602438Y-54976190D01*
X133602438Y-54976190D02*
X133650057Y-54928571D01*
X133650057Y-54928571D02*
X133602438Y-54880952D01*
X133602438Y-54880952D02*
X133554819Y-54928571D01*
X133554819Y-54928571D02*
X133650057Y-54928571D01*
X133888152Y-54452381D02*
X134554819Y-54452381D01*
X133983390Y-54452381D02*
X133935771Y-54404762D01*
X133935771Y-54404762D02*
X133888152Y-54309524D01*
X133888152Y-54309524D02*
X133888152Y-54166667D01*
X133888152Y-54166667D02*
X133935771Y-54071429D01*
X133935771Y-54071429D02*
X134031009Y-54023810D01*
X134031009Y-54023810D02*
X134554819Y-54023810D01*
X134554819Y-53547619D02*
X133554819Y-53547619D01*
X134173866Y-53452381D02*
X134554819Y-53166667D01*
X133888152Y-53166667D02*
X134269104Y-53547619D01*
X134554819Y-52595238D02*
X134507200Y-52690476D01*
X134507200Y-52690476D02*
X134459580Y-52738095D01*
X134459580Y-52738095D02*
X134364342Y-52785714D01*
X134364342Y-52785714D02*
X134078628Y-52785714D01*
X134078628Y-52785714D02*
X133983390Y-52738095D01*
X133983390Y-52738095D02*
X133935771Y-52690476D01*
X133935771Y-52690476D02*
X133888152Y-52595238D01*
X133888152Y-52595238D02*
X133888152Y-52452381D01*
X133888152Y-52452381D02*
X133935771Y-52357143D01*
X133935771Y-52357143D02*
X133983390Y-52309524D01*
X133983390Y-52309524D02*
X134078628Y-52261905D01*
X134078628Y-52261905D02*
X134364342Y-52261905D01*
X134364342Y-52261905D02*
X134459580Y-52309524D01*
X134459580Y-52309524D02*
X134507200Y-52357143D01*
X134507200Y-52357143D02*
X134554819Y-52452381D01*
X134554819Y-52452381D02*
X134554819Y-52595238D01*
X133888152Y-51928571D02*
X134554819Y-51690476D01*
X134554819Y-51690476D02*
X133888152Y-51452381D01*
X134554819Y-50642857D02*
X134031009Y-50642857D01*
X134031009Y-50642857D02*
X133935771Y-50690476D01*
X133935771Y-50690476D02*
X133888152Y-50785714D01*
X133888152Y-50785714D02*
X133888152Y-50976190D01*
X133888152Y-50976190D02*
X133935771Y-51071428D01*
X134507200Y-50642857D02*
X134554819Y-50738095D01*
X134554819Y-50738095D02*
X134554819Y-50976190D01*
X134554819Y-50976190D02*
X134507200Y-51071428D01*
X134507200Y-51071428D02*
X134411961Y-51119047D01*
X134411961Y-51119047D02*
X134316723Y-51119047D01*
X134316723Y-51119047D02*
X134221485Y-51071428D01*
X134221485Y-51071428D02*
X134173866Y-50976190D01*
X134173866Y-50976190D02*
X134173866Y-50738095D01*
X134173866Y-50738095D02*
X134126247Y-50642857D01*
X133507200Y-50785714D02*
X133650057Y-50928571D01*
X134554819Y-49261904D02*
X134507200Y-49357142D01*
X134507200Y-49357142D02*
X134411961Y-49404761D01*
X134411961Y-49404761D02*
X133554819Y-49404761D01*
X134554819Y-48880951D02*
X133888152Y-48880951D01*
X133554819Y-48880951D02*
X133602438Y-48928570D01*
X133602438Y-48928570D02*
X133650057Y-48880951D01*
X133650057Y-48880951D02*
X133602438Y-48833332D01*
X133602438Y-48833332D02*
X133554819Y-48880951D01*
X133554819Y-48880951D02*
X133650057Y-48880951D01*
X134507200Y-48452380D02*
X134554819Y-48357142D01*
X134554819Y-48357142D02*
X134554819Y-48166666D01*
X134554819Y-48166666D02*
X134507200Y-48071428D01*
X134507200Y-48071428D02*
X134411961Y-48023809D01*
X134411961Y-48023809D02*
X134364342Y-48023809D01*
X134364342Y-48023809D02*
X134269104Y-48071428D01*
X134269104Y-48071428D02*
X134221485Y-48166666D01*
X134221485Y-48166666D02*
X134221485Y-48309523D01*
X134221485Y-48309523D02*
X134173866Y-48404761D01*
X134173866Y-48404761D02*
X134078628Y-48452380D01*
X134078628Y-48452380D02*
X134031009Y-48452380D01*
X134031009Y-48452380D02*
X133935771Y-48404761D01*
X133935771Y-48404761D02*
X133888152Y-48309523D01*
X133888152Y-48309523D02*
X133888152Y-48166666D01*
X133888152Y-48166666D02*
X133935771Y-48071428D01*
X133507200Y-48452380D02*
X133650057Y-48261904D01*
X133650057Y-48261904D02*
X133507200Y-48071428D01*
X133888152Y-47738094D02*
X133888152Y-47357142D01*
X133554819Y-47595237D02*
X134411961Y-47595237D01*
X134411961Y-47595237D02*
X134507200Y-47547618D01*
X134507200Y-47547618D02*
X134554819Y-47452380D01*
X134554819Y-47452380D02*
X134554819Y-47357142D01*
X134554819Y-46595237D02*
X134031009Y-46595237D01*
X134031009Y-46595237D02*
X133935771Y-46642856D01*
X133935771Y-46642856D02*
X133888152Y-46738094D01*
X133888152Y-46738094D02*
X133888152Y-46928570D01*
X133888152Y-46928570D02*
X133935771Y-47023808D01*
X134507200Y-46595237D02*
X134554819Y-46690475D01*
X134554819Y-46690475D02*
X134554819Y-46928570D01*
X134554819Y-46928570D02*
X134507200Y-47023808D01*
X134507200Y-47023808D02*
X134411961Y-47071427D01*
X134411961Y-47071427D02*
X134316723Y-47071427D01*
X134316723Y-47071427D02*
X134221485Y-47023808D01*
X134221485Y-47023808D02*
X134173866Y-46928570D01*
X134173866Y-46928570D02*
X134173866Y-46690475D01*
X134173866Y-46690475D02*
X134126247Y-46595237D01*
X131054819Y-52453333D02*
X131769104Y-52453333D01*
X131769104Y-52453333D02*
X131911961Y-52500952D01*
X131911961Y-52500952D02*
X132007200Y-52596190D01*
X132007200Y-52596190D02*
X132054819Y-52739047D01*
X132054819Y-52739047D02*
X132054819Y-52834285D01*
X132054819Y-51453333D02*
X132054819Y-52024761D01*
X132054819Y-51739047D02*
X131054819Y-51739047D01*
X131054819Y-51739047D02*
X131197676Y-51834285D01*
X131197676Y-51834285D02*
X131292914Y-51929523D01*
X131292914Y-51929523D02*
X131340533Y-52024761D01*
D11*
X139647619Y-67163855D02*
X139647619Y-66363855D01*
X139647619Y-66363855D02*
X139952381Y-66363855D01*
X139952381Y-66363855D02*
X140028571Y-66401950D01*
X140028571Y-66401950D02*
X140066666Y-66440045D01*
X140066666Y-66440045D02*
X140104762Y-66516236D01*
X140104762Y-66516236D02*
X140104762Y-66630521D01*
X140104762Y-66630521D02*
X140066666Y-66706712D01*
X140066666Y-66706712D02*
X140028571Y-66744807D01*
X140028571Y-66744807D02*
X139952381Y-66782902D01*
X139952381Y-66782902D02*
X139647619Y-66782902D01*
X140904762Y-67087664D02*
X140866666Y-67125760D01*
X140866666Y-67125760D02*
X140752381Y-67163855D01*
X140752381Y-67163855D02*
X140676190Y-67163855D01*
X140676190Y-67163855D02*
X140561904Y-67125760D01*
X140561904Y-67125760D02*
X140485714Y-67049569D01*
X140485714Y-67049569D02*
X140447619Y-66973379D01*
X140447619Y-66973379D02*
X140409523Y-66820998D01*
X140409523Y-66820998D02*
X140409523Y-66706712D01*
X140409523Y-66706712D02*
X140447619Y-66554331D01*
X140447619Y-66554331D02*
X140485714Y-66478140D01*
X140485714Y-66478140D02*
X140561904Y-66401950D01*
X140561904Y-66401950D02*
X140676190Y-66363855D01*
X140676190Y-66363855D02*
X140752381Y-66363855D01*
X140752381Y-66363855D02*
X140866666Y-66401950D01*
X140866666Y-66401950D02*
X140904762Y-66440045D01*
X141361904Y-66706712D02*
X141285714Y-66668617D01*
X141285714Y-66668617D02*
X141247619Y-66630521D01*
X141247619Y-66630521D02*
X141209523Y-66554331D01*
X141209523Y-66554331D02*
X141209523Y-66516236D01*
X141209523Y-66516236D02*
X141247619Y-66440045D01*
X141247619Y-66440045D02*
X141285714Y-66401950D01*
X141285714Y-66401950D02*
X141361904Y-66363855D01*
X141361904Y-66363855D02*
X141514285Y-66363855D01*
X141514285Y-66363855D02*
X141590476Y-66401950D01*
X141590476Y-66401950D02*
X141628571Y-66440045D01*
X141628571Y-66440045D02*
X141666666Y-66516236D01*
X141666666Y-66516236D02*
X141666666Y-66554331D01*
X141666666Y-66554331D02*
X141628571Y-66630521D01*
X141628571Y-66630521D02*
X141590476Y-66668617D01*
X141590476Y-66668617D02*
X141514285Y-66706712D01*
X141514285Y-66706712D02*
X141361904Y-66706712D01*
X141361904Y-66706712D02*
X141285714Y-66744807D01*
X141285714Y-66744807D02*
X141247619Y-66782902D01*
X141247619Y-66782902D02*
X141209523Y-66859093D01*
X141209523Y-66859093D02*
X141209523Y-67011474D01*
X141209523Y-67011474D02*
X141247619Y-67087664D01*
X141247619Y-67087664D02*
X141285714Y-67125760D01*
X141285714Y-67125760D02*
X141361904Y-67163855D01*
X141361904Y-67163855D02*
X141514285Y-67163855D01*
X141514285Y-67163855D02*
X141590476Y-67125760D01*
X141590476Y-67125760D02*
X141628571Y-67087664D01*
X141628571Y-67087664D02*
X141666666Y-67011474D01*
X141666666Y-67011474D02*
X141666666Y-66859093D01*
X141666666Y-66859093D02*
X141628571Y-66782902D01*
X141628571Y-66782902D02*
X141590476Y-66744807D01*
X141590476Y-66744807D02*
X141514285Y-66706712D01*
X142428571Y-67163855D02*
X141971428Y-67163855D01*
X142200000Y-67163855D02*
X142200000Y-66363855D01*
X142200000Y-66363855D02*
X142123809Y-66478140D01*
X142123809Y-66478140D02*
X142047619Y-66554331D01*
X142047619Y-66554331D02*
X141971428Y-66592426D01*
X142695238Y-66363855D02*
X143228572Y-66363855D01*
X143228572Y-66363855D02*
X142885714Y-67163855D01*
D10*
X148133333Y-46869104D02*
X148609523Y-46869104D01*
X148038095Y-47154819D02*
X148371428Y-46154819D01*
X148371428Y-46154819D02*
X148704761Y-47154819D01*
X149609523Y-47154819D02*
X149276190Y-46678628D01*
X149038095Y-47154819D02*
X149038095Y-46154819D01*
X149038095Y-46154819D02*
X149419047Y-46154819D01*
X149419047Y-46154819D02*
X149514285Y-46202438D01*
X149514285Y-46202438D02*
X149561904Y-46250057D01*
X149561904Y-46250057D02*
X149609523Y-46345295D01*
X149609523Y-46345295D02*
X149609523Y-46488152D01*
X149609523Y-46488152D02*
X149561904Y-46583390D01*
X149561904Y-46583390D02*
X149514285Y-46631009D01*
X149514285Y-46631009D02*
X149419047Y-46678628D01*
X149419047Y-46678628D02*
X149038095Y-46678628D01*
X150038095Y-47154819D02*
X150038095Y-46154819D01*
X150609523Y-47154819D02*
X150180952Y-46583390D01*
X150609523Y-46154819D02*
X150038095Y-46726247D01*
X151514285Y-46154819D02*
X151038095Y-46154819D01*
X151038095Y-46154819D02*
X150990476Y-46631009D01*
X150990476Y-46631009D02*
X151038095Y-46583390D01*
X151038095Y-46583390D02*
X151133333Y-46535771D01*
X151133333Y-46535771D02*
X151371428Y-46535771D01*
X151371428Y-46535771D02*
X151466666Y-46583390D01*
X151466666Y-46583390D02*
X151514285Y-46631009D01*
X151514285Y-46631009D02*
X151561904Y-46726247D01*
X151561904Y-46726247D02*
X151561904Y-46964342D01*
X151561904Y-46964342D02*
X151514285Y-47059580D01*
X151514285Y-47059580D02*
X151466666Y-47107200D01*
X151466666Y-47107200D02*
X151371428Y-47154819D01*
X151371428Y-47154819D02*
X151133333Y-47154819D01*
X151133333Y-47154819D02*
X151038095Y-47107200D01*
X151038095Y-47107200D02*
X150990476Y-47059580D01*
X152180952Y-46154819D02*
X152276190Y-46154819D01*
X152276190Y-46154819D02*
X152371428Y-46202438D01*
X152371428Y-46202438D02*
X152419047Y-46250057D01*
X152419047Y-46250057D02*
X152466666Y-46345295D01*
X152466666Y-46345295D02*
X152514285Y-46535771D01*
X152514285Y-46535771D02*
X152514285Y-46773866D01*
X152514285Y-46773866D02*
X152466666Y-46964342D01*
X152466666Y-46964342D02*
X152419047Y-47059580D01*
X152419047Y-47059580D02*
X152371428Y-47107200D01*
X152371428Y-47107200D02*
X152276190Y-47154819D01*
X152276190Y-47154819D02*
X152180952Y-47154819D01*
X152180952Y-47154819D02*
X152085714Y-47107200D01*
X152085714Y-47107200D02*
X152038095Y-47059580D01*
X152038095Y-47059580D02*
X151990476Y-46964342D01*
X151990476Y-46964342D02*
X151942857Y-46773866D01*
X151942857Y-46773866D02*
X151942857Y-46535771D01*
X151942857Y-46535771D02*
X151990476Y-46345295D01*
X151990476Y-46345295D02*
X152038095Y-46250057D01*
X152038095Y-46250057D02*
X152085714Y-46202438D01*
X152085714Y-46202438D02*
X152180952Y-46154819D01*
X153133333Y-46154819D02*
X153228571Y-46154819D01*
X153228571Y-46154819D02*
X153323809Y-46202438D01*
X153323809Y-46202438D02*
X153371428Y-46250057D01*
X153371428Y-46250057D02*
X153419047Y-46345295D01*
X153419047Y-46345295D02*
X153466666Y-46535771D01*
X153466666Y-46535771D02*
X153466666Y-46773866D01*
X153466666Y-46773866D02*
X153419047Y-46964342D01*
X153419047Y-46964342D02*
X153371428Y-47059580D01*
X153371428Y-47059580D02*
X153323809Y-47107200D01*
X153323809Y-47107200D02*
X153228571Y-47154819D01*
X153228571Y-47154819D02*
X153133333Y-47154819D01*
X153133333Y-47154819D02*
X153038095Y-47107200D01*
X153038095Y-47107200D02*
X152990476Y-47059580D01*
X152990476Y-47059580D02*
X152942857Y-46964342D01*
X152942857Y-46964342D02*
X152895238Y-46773866D01*
X152895238Y-46773866D02*
X152895238Y-46535771D01*
X152895238Y-46535771D02*
X152942857Y-46345295D01*
X152942857Y-46345295D02*
X152990476Y-46250057D01*
X152990476Y-46250057D02*
X153038095Y-46202438D01*
X153038095Y-46202438D02*
X153133333Y-46154819D01*
X154609523Y-46107200D02*
X153752381Y-47392914D01*
X154895238Y-46250057D02*
X154942857Y-46202438D01*
X154942857Y-46202438D02*
X155038095Y-46154819D01*
X155038095Y-46154819D02*
X155276190Y-46154819D01*
X155276190Y-46154819D02*
X155371428Y-46202438D01*
X155371428Y-46202438D02*
X155419047Y-46250057D01*
X155419047Y-46250057D02*
X155466666Y-46345295D01*
X155466666Y-46345295D02*
X155466666Y-46440533D01*
X155466666Y-46440533D02*
X155419047Y-46583390D01*
X155419047Y-46583390D02*
X154847619Y-47154819D01*
X154847619Y-47154819D02*
X155466666Y-47154819D01*
X146254819Y-53333333D02*
X146969104Y-53333333D01*
X146969104Y-53333333D02*
X147111961Y-53380952D01*
X147111961Y-53380952D02*
X147207200Y-53476190D01*
X147207200Y-53476190D02*
X147254819Y-53619047D01*
X147254819Y-53619047D02*
X147254819Y-53714285D01*
X146254819Y-52952380D02*
X146254819Y-52333333D01*
X146254819Y-52333333D02*
X146635771Y-52666666D01*
X146635771Y-52666666D02*
X146635771Y-52523809D01*
X146635771Y-52523809D02*
X146683390Y-52428571D01*
X146683390Y-52428571D02*
X146731009Y-52380952D01*
X146731009Y-52380952D02*
X146826247Y-52333333D01*
X146826247Y-52333333D02*
X147064342Y-52333333D01*
X147064342Y-52333333D02*
X147159580Y-52380952D01*
X147159580Y-52380952D02*
X147207200Y-52428571D01*
X147207200Y-52428571D02*
X147254819Y-52523809D01*
X147254819Y-52523809D02*
X147254819Y-52809523D01*
X147254819Y-52809523D02*
X147207200Y-52904761D01*
X147207200Y-52904761D02*
X147159580Y-52952380D01*
X109030895Y-61833333D02*
X109030895Y-62309523D01*
X108745180Y-61738095D02*
X109745180Y-62071428D01*
X109745180Y-62071428D02*
X108745180Y-62404761D01*
X108745180Y-63309523D02*
X109221371Y-62976190D01*
X108745180Y-62738095D02*
X109745180Y-62738095D01*
X109745180Y-62738095D02*
X109745180Y-63119047D01*
X109745180Y-63119047D02*
X109697561Y-63214285D01*
X109697561Y-63214285D02*
X109649942Y-63261904D01*
X109649942Y-63261904D02*
X109554704Y-63309523D01*
X109554704Y-63309523D02*
X109411847Y-63309523D01*
X109411847Y-63309523D02*
X109316609Y-63261904D01*
X109316609Y-63261904D02*
X109268990Y-63214285D01*
X109268990Y-63214285D02*
X109221371Y-63119047D01*
X109221371Y-63119047D02*
X109221371Y-62738095D01*
X108745180Y-63738095D02*
X109745180Y-63738095D01*
X108745180Y-64309523D02*
X109316609Y-63880952D01*
X109745180Y-64309523D02*
X109173752Y-63738095D01*
X109745180Y-65214285D02*
X109745180Y-64738095D01*
X109745180Y-64738095D02*
X109268990Y-64690476D01*
X109268990Y-64690476D02*
X109316609Y-64738095D01*
X109316609Y-64738095D02*
X109364228Y-64833333D01*
X109364228Y-64833333D02*
X109364228Y-65071428D01*
X109364228Y-65071428D02*
X109316609Y-65166666D01*
X109316609Y-65166666D02*
X109268990Y-65214285D01*
X109268990Y-65214285D02*
X109173752Y-65261904D01*
X109173752Y-65261904D02*
X108935657Y-65261904D01*
X108935657Y-65261904D02*
X108840419Y-65214285D01*
X108840419Y-65214285D02*
X108792800Y-65166666D01*
X108792800Y-65166666D02*
X108745180Y-65071428D01*
X108745180Y-65071428D02*
X108745180Y-64833333D01*
X108745180Y-64833333D02*
X108792800Y-64738095D01*
X108792800Y-64738095D02*
X108840419Y-64690476D01*
X109745180Y-65880952D02*
X109745180Y-65976190D01*
X109745180Y-65976190D02*
X109697561Y-66071428D01*
X109697561Y-66071428D02*
X109649942Y-66119047D01*
X109649942Y-66119047D02*
X109554704Y-66166666D01*
X109554704Y-66166666D02*
X109364228Y-66214285D01*
X109364228Y-66214285D02*
X109126133Y-66214285D01*
X109126133Y-66214285D02*
X108935657Y-66166666D01*
X108935657Y-66166666D02*
X108840419Y-66119047D01*
X108840419Y-66119047D02*
X108792800Y-66071428D01*
X108792800Y-66071428D02*
X108745180Y-65976190D01*
X108745180Y-65976190D02*
X108745180Y-65880952D01*
X108745180Y-65880952D02*
X108792800Y-65785714D01*
X108792800Y-65785714D02*
X108840419Y-65738095D01*
X108840419Y-65738095D02*
X108935657Y-65690476D01*
X108935657Y-65690476D02*
X109126133Y-65642857D01*
X109126133Y-65642857D02*
X109364228Y-65642857D01*
X109364228Y-65642857D02*
X109554704Y-65690476D01*
X109554704Y-65690476D02*
X109649942Y-65738095D01*
X109649942Y-65738095D02*
X109697561Y-65785714D01*
X109697561Y-65785714D02*
X109745180Y-65880952D01*
X109745180Y-66833333D02*
X109745180Y-66928571D01*
X109745180Y-66928571D02*
X109697561Y-67023809D01*
X109697561Y-67023809D02*
X109649942Y-67071428D01*
X109649942Y-67071428D02*
X109554704Y-67119047D01*
X109554704Y-67119047D02*
X109364228Y-67166666D01*
X109364228Y-67166666D02*
X109126133Y-67166666D01*
X109126133Y-67166666D02*
X108935657Y-67119047D01*
X108935657Y-67119047D02*
X108840419Y-67071428D01*
X108840419Y-67071428D02*
X108792800Y-67023809D01*
X108792800Y-67023809D02*
X108745180Y-66928571D01*
X108745180Y-66928571D02*
X108745180Y-66833333D01*
X108745180Y-66833333D02*
X108792800Y-66738095D01*
X108792800Y-66738095D02*
X108840419Y-66690476D01*
X108840419Y-66690476D02*
X108935657Y-66642857D01*
X108935657Y-66642857D02*
X109126133Y-66595238D01*
X109126133Y-66595238D02*
X109364228Y-66595238D01*
X109364228Y-66595238D02*
X109554704Y-66642857D01*
X109554704Y-66642857D02*
X109649942Y-66690476D01*
X109649942Y-66690476D02*
X109697561Y-66738095D01*
X109697561Y-66738095D02*
X109745180Y-66833333D01*
X109792800Y-68309523D02*
X108507085Y-67452381D01*
X109649942Y-68595238D02*
X109697561Y-68642857D01*
X109697561Y-68642857D02*
X109745180Y-68738095D01*
X109745180Y-68738095D02*
X109745180Y-68976190D01*
X109745180Y-68976190D02*
X109697561Y-69071428D01*
X109697561Y-69071428D02*
X109649942Y-69119047D01*
X109649942Y-69119047D02*
X109554704Y-69166666D01*
X109554704Y-69166666D02*
X109459466Y-69166666D01*
X109459466Y-69166666D02*
X109316609Y-69119047D01*
X109316609Y-69119047D02*
X108745180Y-68547619D01*
X108745180Y-68547619D02*
X108745180Y-69166666D01*
X111945180Y-65166666D02*
X111230895Y-65166666D01*
X111230895Y-65166666D02*
X111088038Y-65119047D01*
X111088038Y-65119047D02*
X110992800Y-65023809D01*
X110992800Y-65023809D02*
X110945180Y-64880952D01*
X110945180Y-64880952D02*
X110945180Y-64785714D01*
X111945180Y-66119047D02*
X111945180Y-65642857D01*
X111945180Y-65642857D02*
X111468990Y-65595238D01*
X111468990Y-65595238D02*
X111516609Y-65642857D01*
X111516609Y-65642857D02*
X111564228Y-65738095D01*
X111564228Y-65738095D02*
X111564228Y-65976190D01*
X111564228Y-65976190D02*
X111516609Y-66071428D01*
X111516609Y-66071428D02*
X111468990Y-66119047D01*
X111468990Y-66119047D02*
X111373752Y-66166666D01*
X111373752Y-66166666D02*
X111135657Y-66166666D01*
X111135657Y-66166666D02*
X111040419Y-66119047D01*
X111040419Y-66119047D02*
X110992800Y-66071428D01*
X110992800Y-66071428D02*
X110945180Y-65976190D01*
X110945180Y-65976190D02*
X110945180Y-65738095D01*
X110945180Y-65738095D02*
X110992800Y-65642857D01*
X110992800Y-65642857D02*
X111040419Y-65595238D01*
D11*
X139647619Y-49963855D02*
X139647619Y-49163855D01*
X139647619Y-49163855D02*
X139952381Y-49163855D01*
X139952381Y-49163855D02*
X140028571Y-49201950D01*
X140028571Y-49201950D02*
X140066666Y-49240045D01*
X140066666Y-49240045D02*
X140104762Y-49316236D01*
X140104762Y-49316236D02*
X140104762Y-49430521D01*
X140104762Y-49430521D02*
X140066666Y-49506712D01*
X140066666Y-49506712D02*
X140028571Y-49544807D01*
X140028571Y-49544807D02*
X139952381Y-49582902D01*
X139952381Y-49582902D02*
X139647619Y-49582902D01*
X140904762Y-49887664D02*
X140866666Y-49925760D01*
X140866666Y-49925760D02*
X140752381Y-49963855D01*
X140752381Y-49963855D02*
X140676190Y-49963855D01*
X140676190Y-49963855D02*
X140561904Y-49925760D01*
X140561904Y-49925760D02*
X140485714Y-49849569D01*
X140485714Y-49849569D02*
X140447619Y-49773379D01*
X140447619Y-49773379D02*
X140409523Y-49620998D01*
X140409523Y-49620998D02*
X140409523Y-49506712D01*
X140409523Y-49506712D02*
X140447619Y-49354331D01*
X140447619Y-49354331D02*
X140485714Y-49278140D01*
X140485714Y-49278140D02*
X140561904Y-49201950D01*
X140561904Y-49201950D02*
X140676190Y-49163855D01*
X140676190Y-49163855D02*
X140752381Y-49163855D01*
X140752381Y-49163855D02*
X140866666Y-49201950D01*
X140866666Y-49201950D02*
X140904762Y-49240045D01*
X141361904Y-49506712D02*
X141285714Y-49468617D01*
X141285714Y-49468617D02*
X141247619Y-49430521D01*
X141247619Y-49430521D02*
X141209523Y-49354331D01*
X141209523Y-49354331D02*
X141209523Y-49316236D01*
X141209523Y-49316236D02*
X141247619Y-49240045D01*
X141247619Y-49240045D02*
X141285714Y-49201950D01*
X141285714Y-49201950D02*
X141361904Y-49163855D01*
X141361904Y-49163855D02*
X141514285Y-49163855D01*
X141514285Y-49163855D02*
X141590476Y-49201950D01*
X141590476Y-49201950D02*
X141628571Y-49240045D01*
X141628571Y-49240045D02*
X141666666Y-49316236D01*
X141666666Y-49316236D02*
X141666666Y-49354331D01*
X141666666Y-49354331D02*
X141628571Y-49430521D01*
X141628571Y-49430521D02*
X141590476Y-49468617D01*
X141590476Y-49468617D02*
X141514285Y-49506712D01*
X141514285Y-49506712D02*
X141361904Y-49506712D01*
X141361904Y-49506712D02*
X141285714Y-49544807D01*
X141285714Y-49544807D02*
X141247619Y-49582902D01*
X141247619Y-49582902D02*
X141209523Y-49659093D01*
X141209523Y-49659093D02*
X141209523Y-49811474D01*
X141209523Y-49811474D02*
X141247619Y-49887664D01*
X141247619Y-49887664D02*
X141285714Y-49925760D01*
X141285714Y-49925760D02*
X141361904Y-49963855D01*
X141361904Y-49963855D02*
X141514285Y-49963855D01*
X141514285Y-49963855D02*
X141590476Y-49925760D01*
X141590476Y-49925760D02*
X141628571Y-49887664D01*
X141628571Y-49887664D02*
X141666666Y-49811474D01*
X141666666Y-49811474D02*
X141666666Y-49659093D01*
X141666666Y-49659093D02*
X141628571Y-49582902D01*
X141628571Y-49582902D02*
X141590476Y-49544807D01*
X141590476Y-49544807D02*
X141514285Y-49506712D01*
X142428571Y-49963855D02*
X141971428Y-49963855D01*
X142200000Y-49963855D02*
X142200000Y-49163855D01*
X142200000Y-49163855D02*
X142123809Y-49278140D01*
X142123809Y-49278140D02*
X142047619Y-49354331D01*
X142047619Y-49354331D02*
X141971428Y-49392426D01*
X142695238Y-49163855D02*
X143228572Y-49163855D01*
X143228572Y-49163855D02*
X142885714Y-49963855D01*
D12*
%TO.C,J4*%
X103500000Y-45500000D02*
X103500000Y-60500000D01*
X110500000Y-50500000D02*
X102900000Y-50500000D01*
X110500000Y-55500000D02*
X102900000Y-55500000D01*
X110500000Y-45500000D02*
X102900000Y-45500000D01*
X102900000Y-60500000D01*
X110500000Y-60500000D01*
X110500000Y-45500000D01*
%TO.C,J2*%
X147700000Y-63000000D02*
X155300000Y-63000000D01*
X154700000Y-68000000D02*
X154700000Y-58000000D01*
X147700000Y-68000000D02*
X155300000Y-68000000D01*
X155300000Y-58000000D01*
X147700000Y-58000000D01*
X147700000Y-68000000D01*
%TO.C,J1*%
X130330000Y-45770000D02*
X132870000Y-45770000D01*
X130330000Y-57835000D02*
X130330000Y-45770000D01*
X130965000Y-58470000D02*
X130330000Y-57835000D01*
X132870000Y-45770000D02*
X132870000Y-58470000D01*
X132870000Y-58470000D02*
X130965000Y-58470000D01*
%TO.C,J3*%
X147700000Y-53000000D02*
X155300000Y-53000000D01*
X154700000Y-58000000D02*
X154700000Y-48000000D01*
X147700000Y-58000000D02*
X155300000Y-58000000D01*
X155300000Y-48000000D01*
X147700000Y-48000000D01*
X147700000Y-58000000D01*
%TO.C,J5*%
X103500000Y-60500000D02*
X103500000Y-70500000D01*
X110500000Y-65500000D02*
X102900000Y-65500000D01*
X110500000Y-60500000D02*
X102900000Y-60500000D01*
X102900000Y-70500000D01*
X110500000Y-70500000D01*
X110500000Y-60500000D01*
%TD*%
M02*
