%TF.GenerationSoftware,KiCad,Pcbnew,9.0.4-unknown*%
%TF.CreationDate,2025-11-20T15:33:38+01:00*%
%TF.ProjectId,KlimatizaceSamsung,4b6c696d-6174-4697-9a61-636553616d73,rev?*%
%TF.SameCoordinates,Original*%
%TF.FileFunction,AssemblyDrawing,Bot*%
%FSLAX46Y46*%
G04 Gerber Fmt 4.6, Leading zero omitted, Abs format (unit mm)*
G04 Created by KiCad (PCBNEW 9.0.4-unknown) date 2025-11-20 15:33:38*
%MOMM*%
%LPD*%
G01*
G04 APERTURE LIST*
%ADD10C,0.120000*%
G04 APERTURE END LIST*
D10*
X116752380Y-71430521D02*
X116752380Y-71963855D01*
X116942856Y-71125760D02*
X117133333Y-71697188D01*
X117133333Y-71697188D02*
X116638094Y-71697188D01*
X116333332Y-71963855D02*
X116333332Y-71163855D01*
X116257142Y-71659093D02*
X116028570Y-71963855D01*
X116028570Y-71430521D02*
X116333332Y-71735283D01*
X115761904Y-71163855D02*
X115228570Y-71163855D01*
X115228570Y-71163855D02*
X115571428Y-71963855D01*
X126314286Y-63963855D02*
X126314286Y-63163855D01*
X126314286Y-63163855D02*
X126047620Y-63735283D01*
X126047620Y-63735283D02*
X125780953Y-63163855D01*
X125780953Y-63163855D02*
X125780953Y-63963855D01*
X124942857Y-63887664D02*
X124980953Y-63925760D01*
X124980953Y-63925760D02*
X125095238Y-63963855D01*
X125095238Y-63963855D02*
X125171429Y-63963855D01*
X125171429Y-63963855D02*
X125285715Y-63925760D01*
X125285715Y-63925760D02*
X125361905Y-63849569D01*
X125361905Y-63849569D02*
X125400000Y-63773379D01*
X125400000Y-63773379D02*
X125438096Y-63620998D01*
X125438096Y-63620998D02*
X125438096Y-63506712D01*
X125438096Y-63506712D02*
X125400000Y-63354331D01*
X125400000Y-63354331D02*
X125361905Y-63278140D01*
X125361905Y-63278140D02*
X125285715Y-63201950D01*
X125285715Y-63201950D02*
X125171429Y-63163855D01*
X125171429Y-63163855D02*
X125095238Y-63163855D01*
X125095238Y-63163855D02*
X124980953Y-63201950D01*
X124980953Y-63201950D02*
X124942857Y-63240045D01*
X124600000Y-63963855D02*
X124600000Y-63163855D01*
X124600000Y-63163855D02*
X124295238Y-63163855D01*
X124295238Y-63163855D02*
X124219048Y-63201950D01*
X124219048Y-63201950D02*
X124180953Y-63240045D01*
X124180953Y-63240045D02*
X124142857Y-63316236D01*
X124142857Y-63316236D02*
X124142857Y-63430521D01*
X124142857Y-63430521D02*
X124180953Y-63506712D01*
X124180953Y-63506712D02*
X124219048Y-63544807D01*
X124219048Y-63544807D02*
X124295238Y-63582902D01*
X124295238Y-63582902D02*
X124600000Y-63582902D01*
X123380953Y-63963855D02*
X123838096Y-63963855D01*
X123609524Y-63963855D02*
X123609524Y-63163855D01*
X123609524Y-63163855D02*
X123685715Y-63278140D01*
X123685715Y-63278140D02*
X123761905Y-63354331D01*
X123761905Y-63354331D02*
X123838096Y-63392426D01*
X122923810Y-63506712D02*
X123000000Y-63468617D01*
X123000000Y-63468617D02*
X123038095Y-63430521D01*
X123038095Y-63430521D02*
X123076191Y-63354331D01*
X123076191Y-63354331D02*
X123076191Y-63316236D01*
X123076191Y-63316236D02*
X123038095Y-63240045D01*
X123038095Y-63240045D02*
X123000000Y-63201950D01*
X123000000Y-63201950D02*
X122923810Y-63163855D01*
X122923810Y-63163855D02*
X122771429Y-63163855D01*
X122771429Y-63163855D02*
X122695238Y-63201950D01*
X122695238Y-63201950D02*
X122657143Y-63240045D01*
X122657143Y-63240045D02*
X122619048Y-63316236D01*
X122619048Y-63316236D02*
X122619048Y-63354331D01*
X122619048Y-63354331D02*
X122657143Y-63430521D01*
X122657143Y-63430521D02*
X122695238Y-63468617D01*
X122695238Y-63468617D02*
X122771429Y-63506712D01*
X122771429Y-63506712D02*
X122923810Y-63506712D01*
X122923810Y-63506712D02*
X123000000Y-63544807D01*
X123000000Y-63544807D02*
X123038095Y-63582902D01*
X123038095Y-63582902D02*
X123076191Y-63659093D01*
X123076191Y-63659093D02*
X123076191Y-63811474D01*
X123076191Y-63811474D02*
X123038095Y-63887664D01*
X123038095Y-63887664D02*
X123000000Y-63925760D01*
X123000000Y-63925760D02*
X122923810Y-63963855D01*
X122923810Y-63963855D02*
X122771429Y-63963855D01*
X122771429Y-63963855D02*
X122695238Y-63925760D01*
X122695238Y-63925760D02*
X122657143Y-63887664D01*
X122657143Y-63887664D02*
X122619048Y-63811474D01*
X122619048Y-63811474D02*
X122619048Y-63659093D01*
X122619048Y-63659093D02*
X122657143Y-63582902D01*
X122657143Y-63582902D02*
X122695238Y-63544807D01*
X122695238Y-63544807D02*
X122771429Y-63506712D01*
X122123809Y-63163855D02*
X122047619Y-63163855D01*
X122047619Y-63163855D02*
X121971428Y-63201950D01*
X121971428Y-63201950D02*
X121933333Y-63240045D01*
X121933333Y-63240045D02*
X121895238Y-63316236D01*
X121895238Y-63316236D02*
X121857143Y-63468617D01*
X121857143Y-63468617D02*
X121857143Y-63659093D01*
X121857143Y-63659093D02*
X121895238Y-63811474D01*
X121895238Y-63811474D02*
X121933333Y-63887664D01*
X121933333Y-63887664D02*
X121971428Y-63925760D01*
X121971428Y-63925760D02*
X122047619Y-63963855D01*
X122047619Y-63963855D02*
X122123809Y-63963855D01*
X122123809Y-63963855D02*
X122200000Y-63925760D01*
X122200000Y-63925760D02*
X122238095Y-63887664D01*
X122238095Y-63887664D02*
X122276190Y-63811474D01*
X122276190Y-63811474D02*
X122314286Y-63659093D01*
X122314286Y-63659093D02*
X122314286Y-63468617D01*
X122314286Y-63468617D02*
X122276190Y-63316236D01*
X122276190Y-63316236D02*
X122238095Y-63240045D01*
X122238095Y-63240045D02*
X122200000Y-63201950D01*
X122200000Y-63201950D02*
X122123809Y-63163855D01*
X121171428Y-63430521D02*
X121171428Y-63963855D01*
X121361904Y-63125760D02*
X121552381Y-63697188D01*
X121552381Y-63697188D02*
X121057142Y-63697188D01*
X120828571Y-63963855D02*
X120409523Y-63430521D01*
X120828571Y-63430521D02*
X120409523Y-63963855D01*
X120104761Y-63659093D02*
X119495238Y-63659093D01*
X118733333Y-63163855D02*
X119114285Y-63163855D01*
X119114285Y-63163855D02*
X119152381Y-63544807D01*
X119152381Y-63544807D02*
X119114285Y-63506712D01*
X119114285Y-63506712D02*
X119038095Y-63468617D01*
X119038095Y-63468617D02*
X118847619Y-63468617D01*
X118847619Y-63468617D02*
X118771428Y-63506712D01*
X118771428Y-63506712D02*
X118733333Y-63544807D01*
X118733333Y-63544807D02*
X118695238Y-63620998D01*
X118695238Y-63620998D02*
X118695238Y-63811474D01*
X118695238Y-63811474D02*
X118733333Y-63887664D01*
X118733333Y-63887664D02*
X118771428Y-63925760D01*
X118771428Y-63925760D02*
X118847619Y-63963855D01*
X118847619Y-63963855D02*
X119038095Y-63963855D01*
X119038095Y-63963855D02*
X119114285Y-63925760D01*
X119114285Y-63925760D02*
X119152381Y-63887664D01*
X118199999Y-63163855D02*
X118123809Y-63163855D01*
X118123809Y-63163855D02*
X118047618Y-63201950D01*
X118047618Y-63201950D02*
X118009523Y-63240045D01*
X118009523Y-63240045D02*
X117971428Y-63316236D01*
X117971428Y-63316236D02*
X117933333Y-63468617D01*
X117933333Y-63468617D02*
X117933333Y-63659093D01*
X117933333Y-63659093D02*
X117971428Y-63811474D01*
X117971428Y-63811474D02*
X118009523Y-63887664D01*
X118009523Y-63887664D02*
X118047618Y-63925760D01*
X118047618Y-63925760D02*
X118123809Y-63963855D01*
X118123809Y-63963855D02*
X118199999Y-63963855D01*
X118199999Y-63963855D02*
X118276190Y-63925760D01*
X118276190Y-63925760D02*
X118314285Y-63887664D01*
X118314285Y-63887664D02*
X118352380Y-63811474D01*
X118352380Y-63811474D02*
X118390476Y-63659093D01*
X118390476Y-63659093D02*
X118390476Y-63468617D01*
X118390476Y-63468617D02*
X118352380Y-63316236D01*
X118352380Y-63316236D02*
X118314285Y-63240045D01*
X118314285Y-63240045D02*
X118276190Y-63201950D01*
X118276190Y-63201950D02*
X118199999Y-63163855D01*
X117438094Y-63163855D02*
X117361904Y-63163855D01*
X117361904Y-63163855D02*
X117285713Y-63201950D01*
X117285713Y-63201950D02*
X117247618Y-63240045D01*
X117247618Y-63240045D02*
X117209523Y-63316236D01*
X117209523Y-63316236D02*
X117171428Y-63468617D01*
X117171428Y-63468617D02*
X117171428Y-63659093D01*
X117171428Y-63659093D02*
X117209523Y-63811474D01*
X117209523Y-63811474D02*
X117247618Y-63887664D01*
X117247618Y-63887664D02*
X117285713Y-63925760D01*
X117285713Y-63925760D02*
X117361904Y-63963855D01*
X117361904Y-63963855D02*
X117438094Y-63963855D01*
X117438094Y-63963855D02*
X117514285Y-63925760D01*
X117514285Y-63925760D02*
X117552380Y-63887664D01*
X117552380Y-63887664D02*
X117590475Y-63811474D01*
X117590475Y-63811474D02*
X117628571Y-63659093D01*
X117628571Y-63659093D02*
X117628571Y-63468617D01*
X117628571Y-63468617D02*
X117590475Y-63316236D01*
X117590475Y-63316236D02*
X117552380Y-63240045D01*
X117552380Y-63240045D02*
X117514285Y-63201950D01*
X117514285Y-63201950D02*
X117438094Y-63163855D01*
X116866666Y-63240045D02*
X116828570Y-63201950D01*
X116828570Y-63201950D02*
X116752380Y-63163855D01*
X116752380Y-63163855D02*
X116561904Y-63163855D01*
X116561904Y-63163855D02*
X116485713Y-63201950D01*
X116485713Y-63201950D02*
X116447618Y-63240045D01*
X116447618Y-63240045D02*
X116409523Y-63316236D01*
X116409523Y-63316236D02*
X116409523Y-63392426D01*
X116409523Y-63392426D02*
X116447618Y-63506712D01*
X116447618Y-63506712D02*
X116904761Y-63963855D01*
X116904761Y-63963855D02*
X116409523Y-63963855D01*
X116142856Y-63963855D02*
X115723808Y-63430521D01*
X116142856Y-63430521D02*
X115723808Y-63963855D01*
X115419046Y-63963855D02*
X115419046Y-63163855D01*
X115419046Y-63163855D02*
X115152380Y-63735283D01*
X115152380Y-63735283D02*
X114885713Y-63163855D01*
X114885713Y-63163855D02*
X114885713Y-63963855D01*
X114238094Y-63544807D02*
X114123808Y-63582902D01*
X114123808Y-63582902D02*
X114085713Y-63620998D01*
X114085713Y-63620998D02*
X114047617Y-63697188D01*
X114047617Y-63697188D02*
X114047617Y-63811474D01*
X114047617Y-63811474D02*
X114085713Y-63887664D01*
X114085713Y-63887664D02*
X114123808Y-63925760D01*
X114123808Y-63925760D02*
X114199998Y-63963855D01*
X114199998Y-63963855D02*
X114504760Y-63963855D01*
X114504760Y-63963855D02*
X114504760Y-63163855D01*
X114504760Y-63163855D02*
X114238094Y-63163855D01*
X114238094Y-63163855D02*
X114161903Y-63201950D01*
X114161903Y-63201950D02*
X114123808Y-63240045D01*
X114123808Y-63240045D02*
X114085713Y-63316236D01*
X114085713Y-63316236D02*
X114085713Y-63392426D01*
X114085713Y-63392426D02*
X114123808Y-63468617D01*
X114123808Y-63468617D02*
X114161903Y-63506712D01*
X114161903Y-63506712D02*
X114238094Y-63544807D01*
X114238094Y-63544807D02*
X114504760Y-63544807D01*
X130963855Y-71561905D02*
X130963855Y-71638095D01*
X130963855Y-71638095D02*
X131001950Y-71714286D01*
X131001950Y-71714286D02*
X131040045Y-71752381D01*
X131040045Y-71752381D02*
X131116236Y-71790476D01*
X131116236Y-71790476D02*
X131268617Y-71828571D01*
X131268617Y-71828571D02*
X131459093Y-71828571D01*
X131459093Y-71828571D02*
X131611474Y-71790476D01*
X131611474Y-71790476D02*
X131687664Y-71752381D01*
X131687664Y-71752381D02*
X131725760Y-71714286D01*
X131725760Y-71714286D02*
X131763855Y-71638095D01*
X131763855Y-71638095D02*
X131763855Y-71561905D01*
X131763855Y-71561905D02*
X131725760Y-71485714D01*
X131725760Y-71485714D02*
X131687664Y-71447619D01*
X131687664Y-71447619D02*
X131611474Y-71409524D01*
X131611474Y-71409524D02*
X131459093Y-71371428D01*
X131459093Y-71371428D02*
X131268617Y-71371428D01*
X131268617Y-71371428D02*
X131116236Y-71409524D01*
X131116236Y-71409524D02*
X131040045Y-71447619D01*
X131040045Y-71447619D02*
X131001950Y-71485714D01*
X131001950Y-71485714D02*
X130963855Y-71561905D01*
X131763855Y-72628572D02*
X131382902Y-72361905D01*
X131763855Y-72171429D02*
X130963855Y-72171429D01*
X130963855Y-72171429D02*
X130963855Y-72476191D01*
X130963855Y-72476191D02*
X131001950Y-72552381D01*
X131001950Y-72552381D02*
X131040045Y-72590476D01*
X131040045Y-72590476D02*
X131116236Y-72628572D01*
X131116236Y-72628572D02*
X131230521Y-72628572D01*
X131230521Y-72628572D02*
X131306712Y-72590476D01*
X131306712Y-72590476D02*
X131344807Y-72552381D01*
X131344807Y-72552381D02*
X131382902Y-72476191D01*
X131382902Y-72476191D02*
X131382902Y-72171429D01*
X114063855Y-66042856D02*
X114063855Y-65585713D01*
X114063855Y-65814285D02*
X113263855Y-65814285D01*
X113263855Y-65814285D02*
X113378140Y-65738094D01*
X113378140Y-65738094D02*
X113454331Y-65661904D01*
X113454331Y-65661904D02*
X113492426Y-65585713D01*
X113530521Y-66728571D02*
X114063855Y-66728571D01*
X113530521Y-66385714D02*
X113949569Y-66385714D01*
X113949569Y-66385714D02*
X114025760Y-66423809D01*
X114025760Y-66423809D02*
X114063855Y-66499999D01*
X114063855Y-66499999D02*
X114063855Y-66614285D01*
X114063855Y-66614285D02*
X114025760Y-66690476D01*
X114025760Y-66690476D02*
X113987664Y-66728571D01*
X113225760Y-67680952D02*
X114254331Y-66995238D01*
X113340045Y-67909523D02*
X113301950Y-67947619D01*
X113301950Y-67947619D02*
X113263855Y-68023809D01*
X113263855Y-68023809D02*
X113263855Y-68214285D01*
X113263855Y-68214285D02*
X113301950Y-68290476D01*
X113301950Y-68290476D02*
X113340045Y-68328571D01*
X113340045Y-68328571D02*
X113416236Y-68366666D01*
X113416236Y-68366666D02*
X113492426Y-68366666D01*
X113492426Y-68366666D02*
X113606712Y-68328571D01*
X113606712Y-68328571D02*
X114063855Y-67871428D01*
X114063855Y-67871428D02*
X114063855Y-68366666D01*
X113263855Y-69090476D02*
X113263855Y-68709524D01*
X113263855Y-68709524D02*
X113644807Y-68671428D01*
X113644807Y-68671428D02*
X113606712Y-68709524D01*
X113606712Y-68709524D02*
X113568617Y-68785714D01*
X113568617Y-68785714D02*
X113568617Y-68976190D01*
X113568617Y-68976190D02*
X113606712Y-69052381D01*
X113606712Y-69052381D02*
X113644807Y-69090476D01*
X113644807Y-69090476D02*
X113720998Y-69128571D01*
X113720998Y-69128571D02*
X113911474Y-69128571D01*
X113911474Y-69128571D02*
X113987664Y-69090476D01*
X113987664Y-69090476D02*
X114025760Y-69052381D01*
X114025760Y-69052381D02*
X114063855Y-68976190D01*
X114063855Y-68976190D02*
X114063855Y-68785714D01*
X114063855Y-68785714D02*
X114025760Y-68709524D01*
X114025760Y-68709524D02*
X113987664Y-68671428D01*
X113263855Y-69357143D02*
X114063855Y-69623810D01*
X114063855Y-69623810D02*
X113263855Y-69890476D01*
X114733333Y-46725760D02*
X114619047Y-46763855D01*
X114619047Y-46763855D02*
X114428571Y-46763855D01*
X114428571Y-46763855D02*
X114352380Y-46725760D01*
X114352380Y-46725760D02*
X114314285Y-46687664D01*
X114314285Y-46687664D02*
X114276190Y-46611474D01*
X114276190Y-46611474D02*
X114276190Y-46535283D01*
X114276190Y-46535283D02*
X114314285Y-46459093D01*
X114314285Y-46459093D02*
X114352380Y-46420998D01*
X114352380Y-46420998D02*
X114428571Y-46382902D01*
X114428571Y-46382902D02*
X114580952Y-46344807D01*
X114580952Y-46344807D02*
X114657142Y-46306712D01*
X114657142Y-46306712D02*
X114695237Y-46268617D01*
X114695237Y-46268617D02*
X114733333Y-46192426D01*
X114733333Y-46192426D02*
X114733333Y-46116236D01*
X114733333Y-46116236D02*
X114695237Y-46040045D01*
X114695237Y-46040045D02*
X114657142Y-46001950D01*
X114657142Y-46001950D02*
X114580952Y-45963855D01*
X114580952Y-45963855D02*
X114390475Y-45963855D01*
X114390475Y-45963855D02*
X114276190Y-46001950D01*
X113933332Y-46763855D02*
X113933332Y-45963855D01*
X113476189Y-46763855D02*
X113819047Y-46306712D01*
X113476189Y-45963855D02*
X113933332Y-46420998D01*
X113209523Y-45963855D02*
X112714285Y-45963855D01*
X112714285Y-45963855D02*
X112980951Y-46268617D01*
X112980951Y-46268617D02*
X112866666Y-46268617D01*
X112866666Y-46268617D02*
X112790475Y-46306712D01*
X112790475Y-46306712D02*
X112752380Y-46344807D01*
X112752380Y-46344807D02*
X112714285Y-46420998D01*
X112714285Y-46420998D02*
X112714285Y-46611474D01*
X112714285Y-46611474D02*
X112752380Y-46687664D01*
X112752380Y-46687664D02*
X112790475Y-46725760D01*
X112790475Y-46725760D02*
X112866666Y-46763855D01*
X112866666Y-46763855D02*
X113095237Y-46763855D01*
X113095237Y-46763855D02*
X113171428Y-46725760D01*
X113171428Y-46725760D02*
X113209523Y-46687664D01*
X112028570Y-45963855D02*
X112180951Y-45963855D01*
X112180951Y-45963855D02*
X112257142Y-46001950D01*
X112257142Y-46001950D02*
X112295237Y-46040045D01*
X112295237Y-46040045D02*
X112371427Y-46154331D01*
X112371427Y-46154331D02*
X112409523Y-46306712D01*
X112409523Y-46306712D02*
X112409523Y-46611474D01*
X112409523Y-46611474D02*
X112371427Y-46687664D01*
X112371427Y-46687664D02*
X112333332Y-46725760D01*
X112333332Y-46725760D02*
X112257142Y-46763855D01*
X112257142Y-46763855D02*
X112104761Y-46763855D01*
X112104761Y-46763855D02*
X112028570Y-46725760D01*
X112028570Y-46725760D02*
X111990475Y-46687664D01*
X111990475Y-46687664D02*
X111952380Y-46611474D01*
X111952380Y-46611474D02*
X111952380Y-46420998D01*
X111952380Y-46420998D02*
X111990475Y-46344807D01*
X111990475Y-46344807D02*
X112028570Y-46306712D01*
X112028570Y-46306712D02*
X112104761Y-46268617D01*
X112104761Y-46268617D02*
X112257142Y-46268617D01*
X112257142Y-46268617D02*
X112333332Y-46306712D01*
X112333332Y-46306712D02*
X112371427Y-46344807D01*
X112371427Y-46344807D02*
X112409523Y-46420998D01*
X111647618Y-46535283D02*
X111266665Y-46535283D01*
X111723808Y-46763855D02*
X111457141Y-45963855D01*
X111457141Y-45963855D02*
X111190475Y-46763855D01*
X138428571Y-61963855D02*
X137933333Y-61963855D01*
X137933333Y-61963855D02*
X138199999Y-62268617D01*
X138199999Y-62268617D02*
X138085714Y-62268617D01*
X138085714Y-62268617D02*
X138009523Y-62306712D01*
X138009523Y-62306712D02*
X137971428Y-62344807D01*
X137971428Y-62344807D02*
X137933333Y-62420998D01*
X137933333Y-62420998D02*
X137933333Y-62611474D01*
X137933333Y-62611474D02*
X137971428Y-62687664D01*
X137971428Y-62687664D02*
X138009523Y-62725760D01*
X138009523Y-62725760D02*
X138085714Y-62763855D01*
X138085714Y-62763855D02*
X138314285Y-62763855D01*
X138314285Y-62763855D02*
X138390476Y-62725760D01*
X138390476Y-62725760D02*
X138428571Y-62687664D01*
X137666666Y-61963855D02*
X137171428Y-61963855D01*
X137171428Y-61963855D02*
X137438094Y-62268617D01*
X137438094Y-62268617D02*
X137323809Y-62268617D01*
X137323809Y-62268617D02*
X137247618Y-62306712D01*
X137247618Y-62306712D02*
X137209523Y-62344807D01*
X137209523Y-62344807D02*
X137171428Y-62420998D01*
X137171428Y-62420998D02*
X137171428Y-62611474D01*
X137171428Y-62611474D02*
X137209523Y-62687664D01*
X137209523Y-62687664D02*
X137247618Y-62725760D01*
X137247618Y-62725760D02*
X137323809Y-62763855D01*
X137323809Y-62763855D02*
X137552380Y-62763855D01*
X137552380Y-62763855D02*
X137628571Y-62725760D01*
X137628571Y-62725760D02*
X137666666Y-62687664D01*
X136676189Y-61963855D02*
X136599999Y-61963855D01*
X136599999Y-61963855D02*
X136523808Y-62001950D01*
X136523808Y-62001950D02*
X136485713Y-62040045D01*
X136485713Y-62040045D02*
X136447618Y-62116236D01*
X136447618Y-62116236D02*
X136409523Y-62268617D01*
X136409523Y-62268617D02*
X136409523Y-62459093D01*
X136409523Y-62459093D02*
X136447618Y-62611474D01*
X136447618Y-62611474D02*
X136485713Y-62687664D01*
X136485713Y-62687664D02*
X136523808Y-62725760D01*
X136523808Y-62725760D02*
X136599999Y-62763855D01*
X136599999Y-62763855D02*
X136676189Y-62763855D01*
X136676189Y-62763855D02*
X136752380Y-62725760D01*
X136752380Y-62725760D02*
X136790475Y-62687664D01*
X136790475Y-62687664D02*
X136828570Y-62611474D01*
X136828570Y-62611474D02*
X136866666Y-62459093D01*
X136866666Y-62459093D02*
X136866666Y-62268617D01*
X136866666Y-62268617D02*
X136828570Y-62116236D01*
X136828570Y-62116236D02*
X136790475Y-62040045D01*
X136790475Y-62040045D02*
X136752380Y-62001950D01*
X136752380Y-62001950D02*
X136676189Y-61963855D01*
X135609522Y-62763855D02*
X135876189Y-62382902D01*
X136066665Y-62763855D02*
X136066665Y-61963855D01*
X136066665Y-61963855D02*
X135761903Y-61963855D01*
X135761903Y-61963855D02*
X135685713Y-62001950D01*
X135685713Y-62001950D02*
X135647618Y-62040045D01*
X135647618Y-62040045D02*
X135609522Y-62116236D01*
X135609522Y-62116236D02*
X135609522Y-62230521D01*
X135609522Y-62230521D02*
X135647618Y-62306712D01*
X135647618Y-62306712D02*
X135685713Y-62344807D01*
X135685713Y-62344807D02*
X135761903Y-62382902D01*
X135761903Y-62382902D02*
X136066665Y-62382902D01*
X115666667Y-57925760D02*
X115552381Y-57963855D01*
X115552381Y-57963855D02*
X115361905Y-57963855D01*
X115361905Y-57963855D02*
X115285714Y-57925760D01*
X115285714Y-57925760D02*
X115247619Y-57887664D01*
X115247619Y-57887664D02*
X115209524Y-57811474D01*
X115209524Y-57811474D02*
X115209524Y-57735283D01*
X115209524Y-57735283D02*
X115247619Y-57659093D01*
X115247619Y-57659093D02*
X115285714Y-57620998D01*
X115285714Y-57620998D02*
X115361905Y-57582902D01*
X115361905Y-57582902D02*
X115514286Y-57544807D01*
X115514286Y-57544807D02*
X115590476Y-57506712D01*
X115590476Y-57506712D02*
X115628571Y-57468617D01*
X115628571Y-57468617D02*
X115666667Y-57392426D01*
X115666667Y-57392426D02*
X115666667Y-57316236D01*
X115666667Y-57316236D02*
X115628571Y-57240045D01*
X115628571Y-57240045D02*
X115590476Y-57201950D01*
X115590476Y-57201950D02*
X115514286Y-57163855D01*
X115514286Y-57163855D02*
X115323809Y-57163855D01*
X115323809Y-57163855D02*
X115209524Y-57201950D01*
X114866666Y-57963855D02*
X114866666Y-57163855D01*
X114866666Y-57163855D02*
X114409523Y-57963855D01*
X114409523Y-57963855D02*
X114409523Y-57163855D01*
X114066667Y-57240045D02*
X114028571Y-57201950D01*
X114028571Y-57201950D02*
X113952381Y-57163855D01*
X113952381Y-57163855D02*
X113761905Y-57163855D01*
X113761905Y-57163855D02*
X113685714Y-57201950D01*
X113685714Y-57201950D02*
X113647619Y-57240045D01*
X113647619Y-57240045D02*
X113609524Y-57316236D01*
X113609524Y-57316236D02*
X113609524Y-57392426D01*
X113609524Y-57392426D02*
X113647619Y-57506712D01*
X113647619Y-57506712D02*
X114104762Y-57963855D01*
X114104762Y-57963855D02*
X113609524Y-57963855D01*
X113114285Y-57163855D02*
X113038095Y-57163855D01*
X113038095Y-57163855D02*
X112961904Y-57201950D01*
X112961904Y-57201950D02*
X112923809Y-57240045D01*
X112923809Y-57240045D02*
X112885714Y-57316236D01*
X112885714Y-57316236D02*
X112847619Y-57468617D01*
X112847619Y-57468617D02*
X112847619Y-57659093D01*
X112847619Y-57659093D02*
X112885714Y-57811474D01*
X112885714Y-57811474D02*
X112923809Y-57887664D01*
X112923809Y-57887664D02*
X112961904Y-57925760D01*
X112961904Y-57925760D02*
X113038095Y-57963855D01*
X113038095Y-57963855D02*
X113114285Y-57963855D01*
X113114285Y-57963855D02*
X113190476Y-57925760D01*
X113190476Y-57925760D02*
X113228571Y-57887664D01*
X113228571Y-57887664D02*
X113266666Y-57811474D01*
X113266666Y-57811474D02*
X113304762Y-57659093D01*
X113304762Y-57659093D02*
X113304762Y-57468617D01*
X113304762Y-57468617D02*
X113266666Y-57316236D01*
X113266666Y-57316236D02*
X113228571Y-57240045D01*
X113228571Y-57240045D02*
X113190476Y-57201950D01*
X113190476Y-57201950D02*
X113114285Y-57163855D01*
X112504761Y-57659093D02*
X111895238Y-57659093D01*
X111590476Y-57163855D02*
X111095238Y-57163855D01*
X111095238Y-57163855D02*
X111361904Y-57468617D01*
X111361904Y-57468617D02*
X111247619Y-57468617D01*
X111247619Y-57468617D02*
X111171428Y-57506712D01*
X111171428Y-57506712D02*
X111133333Y-57544807D01*
X111133333Y-57544807D02*
X111095238Y-57620998D01*
X111095238Y-57620998D02*
X111095238Y-57811474D01*
X111095238Y-57811474D02*
X111133333Y-57887664D01*
X111133333Y-57887664D02*
X111171428Y-57925760D01*
X111171428Y-57925760D02*
X111247619Y-57963855D01*
X111247619Y-57963855D02*
X111476190Y-57963855D01*
X111476190Y-57963855D02*
X111552381Y-57925760D01*
X111552381Y-57925760D02*
X111590476Y-57887664D01*
X110599999Y-57163855D02*
X110523809Y-57163855D01*
X110523809Y-57163855D02*
X110447618Y-57201950D01*
X110447618Y-57201950D02*
X110409523Y-57240045D01*
X110409523Y-57240045D02*
X110371428Y-57316236D01*
X110371428Y-57316236D02*
X110333333Y-57468617D01*
X110333333Y-57468617D02*
X110333333Y-57659093D01*
X110333333Y-57659093D02*
X110371428Y-57811474D01*
X110371428Y-57811474D02*
X110409523Y-57887664D01*
X110409523Y-57887664D02*
X110447618Y-57925760D01*
X110447618Y-57925760D02*
X110523809Y-57963855D01*
X110523809Y-57963855D02*
X110599999Y-57963855D01*
X110599999Y-57963855D02*
X110676190Y-57925760D01*
X110676190Y-57925760D02*
X110714285Y-57887664D01*
X110714285Y-57887664D02*
X110752380Y-57811474D01*
X110752380Y-57811474D02*
X110790476Y-57659093D01*
X110790476Y-57659093D02*
X110790476Y-57468617D01*
X110790476Y-57468617D02*
X110752380Y-57316236D01*
X110752380Y-57316236D02*
X110714285Y-57240045D01*
X110714285Y-57240045D02*
X110676190Y-57201950D01*
X110676190Y-57201950D02*
X110599999Y-57163855D01*
X118163855Y-66885713D02*
X118163855Y-66428570D01*
X118163855Y-66657142D02*
X117363855Y-66657142D01*
X117363855Y-66657142D02*
X117478140Y-66580951D01*
X117478140Y-66580951D02*
X117554331Y-66504761D01*
X117554331Y-66504761D02*
X117592426Y-66428570D01*
X117363855Y-67380952D02*
X117363855Y-67457142D01*
X117363855Y-67457142D02*
X117401950Y-67533333D01*
X117401950Y-67533333D02*
X117440045Y-67571428D01*
X117440045Y-67571428D02*
X117516236Y-67609523D01*
X117516236Y-67609523D02*
X117668617Y-67647618D01*
X117668617Y-67647618D02*
X117859093Y-67647618D01*
X117859093Y-67647618D02*
X118011474Y-67609523D01*
X118011474Y-67609523D02*
X118087664Y-67571428D01*
X118087664Y-67571428D02*
X118125760Y-67533333D01*
X118125760Y-67533333D02*
X118163855Y-67457142D01*
X118163855Y-67457142D02*
X118163855Y-67380952D01*
X118163855Y-67380952D02*
X118125760Y-67304761D01*
X118125760Y-67304761D02*
X118087664Y-67266666D01*
X118087664Y-67266666D02*
X118011474Y-67228571D01*
X118011474Y-67228571D02*
X117859093Y-67190475D01*
X117859093Y-67190475D02*
X117668617Y-67190475D01*
X117668617Y-67190475D02*
X117516236Y-67228571D01*
X117516236Y-67228571D02*
X117440045Y-67266666D01*
X117440045Y-67266666D02*
X117401950Y-67304761D01*
X117401950Y-67304761D02*
X117363855Y-67380952D01*
X117630521Y-68333333D02*
X118163855Y-68333333D01*
X117630521Y-67990476D02*
X118049569Y-67990476D01*
X118049569Y-67990476D02*
X118125760Y-68028571D01*
X118125760Y-68028571D02*
X118163855Y-68104761D01*
X118163855Y-68104761D02*
X118163855Y-68219047D01*
X118163855Y-68219047D02*
X118125760Y-68295238D01*
X118125760Y-68295238D02*
X118087664Y-68333333D01*
X112864880Y-71430521D02*
X112864880Y-71963855D01*
X113055356Y-71125760D02*
X113245833Y-71697188D01*
X113245833Y-71697188D02*
X112750594Y-71697188D01*
X112445832Y-71963855D02*
X112445832Y-71163855D01*
X112369642Y-71659093D02*
X112141070Y-71963855D01*
X112141070Y-71430521D02*
X112445832Y-71735283D01*
X111874404Y-71163855D02*
X111341070Y-71163855D01*
X111341070Y-71163855D02*
X111683928Y-71963855D01*
X123971428Y-69030521D02*
X123971428Y-69563855D01*
X124161904Y-68725760D02*
X124352381Y-69297188D01*
X124352381Y-69297188D02*
X123857142Y-69297188D01*
X123666666Y-68763855D02*
X123399999Y-69563855D01*
X123399999Y-69563855D02*
X123133333Y-68763855D01*
X122942857Y-68763855D02*
X122409523Y-68763855D01*
X122409523Y-68763855D02*
X122752381Y-69563855D01*
X120563855Y-66935713D02*
X120563855Y-66478570D01*
X120563855Y-66707142D02*
X119763855Y-66707142D01*
X119763855Y-66707142D02*
X119878140Y-66630951D01*
X119878140Y-66630951D02*
X119954331Y-66554761D01*
X119954331Y-66554761D02*
X119992426Y-66478570D01*
X119763855Y-67430952D02*
X119763855Y-67507142D01*
X119763855Y-67507142D02*
X119801950Y-67583333D01*
X119801950Y-67583333D02*
X119840045Y-67621428D01*
X119840045Y-67621428D02*
X119916236Y-67659523D01*
X119916236Y-67659523D02*
X120068617Y-67697618D01*
X120068617Y-67697618D02*
X120259093Y-67697618D01*
X120259093Y-67697618D02*
X120411474Y-67659523D01*
X120411474Y-67659523D02*
X120487664Y-67621428D01*
X120487664Y-67621428D02*
X120525760Y-67583333D01*
X120525760Y-67583333D02*
X120563855Y-67507142D01*
X120563855Y-67507142D02*
X120563855Y-67430952D01*
X120563855Y-67430952D02*
X120525760Y-67354761D01*
X120525760Y-67354761D02*
X120487664Y-67316666D01*
X120487664Y-67316666D02*
X120411474Y-67278571D01*
X120411474Y-67278571D02*
X120259093Y-67240475D01*
X120259093Y-67240475D02*
X120068617Y-67240475D01*
X120068617Y-67240475D02*
X119916236Y-67278571D01*
X119916236Y-67278571D02*
X119840045Y-67316666D01*
X119840045Y-67316666D02*
X119801950Y-67354761D01*
X119801950Y-67354761D02*
X119763855Y-67430952D01*
X120030521Y-68383333D02*
X120563855Y-68383333D01*
X120030521Y-68040476D02*
X120449569Y-68040476D01*
X120449569Y-68040476D02*
X120525760Y-68078571D01*
X120525760Y-68078571D02*
X120563855Y-68154761D01*
X120563855Y-68154761D02*
X120563855Y-68269047D01*
X120563855Y-68269047D02*
X120525760Y-68345238D01*
X120525760Y-68345238D02*
X120487664Y-68383333D01*
X136504761Y-69163855D02*
X136504761Y-68363855D01*
X136504761Y-68363855D02*
X136199999Y-68363855D01*
X136199999Y-68363855D02*
X136123809Y-68401950D01*
X136123809Y-68401950D02*
X136085714Y-68440045D01*
X136085714Y-68440045D02*
X136047618Y-68516236D01*
X136047618Y-68516236D02*
X136047618Y-68630521D01*
X136047618Y-68630521D02*
X136085714Y-68706712D01*
X136085714Y-68706712D02*
X136123809Y-68744807D01*
X136123809Y-68744807D02*
X136199999Y-68782902D01*
X136199999Y-68782902D02*
X136504761Y-68782902D01*
X135704761Y-69163855D02*
X135704761Y-68363855D01*
X134866666Y-69087664D02*
X134904762Y-69125760D01*
X134904762Y-69125760D02*
X135019047Y-69163855D01*
X135019047Y-69163855D02*
X135095238Y-69163855D01*
X135095238Y-69163855D02*
X135209524Y-69125760D01*
X135209524Y-69125760D02*
X135285714Y-69049569D01*
X135285714Y-69049569D02*
X135323809Y-68973379D01*
X135323809Y-68973379D02*
X135361905Y-68820998D01*
X135361905Y-68820998D02*
X135361905Y-68706712D01*
X135361905Y-68706712D02*
X135323809Y-68554331D01*
X135323809Y-68554331D02*
X135285714Y-68478140D01*
X135285714Y-68478140D02*
X135209524Y-68401950D01*
X135209524Y-68401950D02*
X135095238Y-68363855D01*
X135095238Y-68363855D02*
X135019047Y-68363855D01*
X135019047Y-68363855D02*
X134904762Y-68401950D01*
X134904762Y-68401950D02*
X134866666Y-68440045D01*
X134104762Y-69163855D02*
X134561905Y-69163855D01*
X134333333Y-69163855D02*
X134333333Y-68363855D01*
X134333333Y-68363855D02*
X134409524Y-68478140D01*
X134409524Y-68478140D02*
X134485714Y-68554331D01*
X134485714Y-68554331D02*
X134561905Y-68592426D01*
X133647619Y-68706712D02*
X133723809Y-68668617D01*
X133723809Y-68668617D02*
X133761904Y-68630521D01*
X133761904Y-68630521D02*
X133800000Y-68554331D01*
X133800000Y-68554331D02*
X133800000Y-68516236D01*
X133800000Y-68516236D02*
X133761904Y-68440045D01*
X133761904Y-68440045D02*
X133723809Y-68401950D01*
X133723809Y-68401950D02*
X133647619Y-68363855D01*
X133647619Y-68363855D02*
X133495238Y-68363855D01*
X133495238Y-68363855D02*
X133419047Y-68401950D01*
X133419047Y-68401950D02*
X133380952Y-68440045D01*
X133380952Y-68440045D02*
X133342857Y-68516236D01*
X133342857Y-68516236D02*
X133342857Y-68554331D01*
X133342857Y-68554331D02*
X133380952Y-68630521D01*
X133380952Y-68630521D02*
X133419047Y-68668617D01*
X133419047Y-68668617D02*
X133495238Y-68706712D01*
X133495238Y-68706712D02*
X133647619Y-68706712D01*
X133647619Y-68706712D02*
X133723809Y-68744807D01*
X133723809Y-68744807D02*
X133761904Y-68782902D01*
X133761904Y-68782902D02*
X133800000Y-68859093D01*
X133800000Y-68859093D02*
X133800000Y-69011474D01*
X133800000Y-69011474D02*
X133761904Y-69087664D01*
X133761904Y-69087664D02*
X133723809Y-69125760D01*
X133723809Y-69125760D02*
X133647619Y-69163855D01*
X133647619Y-69163855D02*
X133495238Y-69163855D01*
X133495238Y-69163855D02*
X133419047Y-69125760D01*
X133419047Y-69125760D02*
X133380952Y-69087664D01*
X133380952Y-69087664D02*
X133342857Y-69011474D01*
X133342857Y-69011474D02*
X133342857Y-68859093D01*
X133342857Y-68859093D02*
X133380952Y-68782902D01*
X133380952Y-68782902D02*
X133419047Y-68744807D01*
X133419047Y-68744807D02*
X133495238Y-68706712D01*
X132733333Y-68744807D02*
X132999999Y-68744807D01*
X132999999Y-69163855D02*
X132999999Y-68363855D01*
X132999999Y-68363855D02*
X132619047Y-68363855D01*
X132352381Y-68440045D02*
X132314285Y-68401950D01*
X132314285Y-68401950D02*
X132238095Y-68363855D01*
X132238095Y-68363855D02*
X132047619Y-68363855D01*
X132047619Y-68363855D02*
X131971428Y-68401950D01*
X131971428Y-68401950D02*
X131933333Y-68440045D01*
X131933333Y-68440045D02*
X131895238Y-68516236D01*
X131895238Y-68516236D02*
X131895238Y-68592426D01*
X131895238Y-68592426D02*
X131933333Y-68706712D01*
X131933333Y-68706712D02*
X132390476Y-69163855D01*
X132390476Y-69163855D02*
X131895238Y-69163855D01*
X131628571Y-68363855D02*
X131095237Y-68363855D01*
X131095237Y-68363855D02*
X131438095Y-69163855D01*
X130790475Y-69163855D02*
X130790475Y-68363855D01*
X130333332Y-69163855D02*
X130676190Y-68706712D01*
X130333332Y-68363855D02*
X130790475Y-68820998D01*
X129647618Y-68630521D02*
X129647618Y-69163855D01*
X129838094Y-68325760D02*
X130028571Y-68897188D01*
X130028571Y-68897188D02*
X129533332Y-68897188D01*
X129076189Y-68363855D02*
X128999999Y-68363855D01*
X128999999Y-68363855D02*
X128923808Y-68401950D01*
X128923808Y-68401950D02*
X128885713Y-68440045D01*
X128885713Y-68440045D02*
X128847618Y-68516236D01*
X128847618Y-68516236D02*
X128809523Y-68668617D01*
X128809523Y-68668617D02*
X128809523Y-68859093D01*
X128809523Y-68859093D02*
X128847618Y-69011474D01*
X128847618Y-69011474D02*
X128885713Y-69087664D01*
X128885713Y-69087664D02*
X128923808Y-69125760D01*
X128923808Y-69125760D02*
X128999999Y-69163855D01*
X128999999Y-69163855D02*
X129076189Y-69163855D01*
X129076189Y-69163855D02*
X129152380Y-69125760D01*
X129152380Y-69125760D02*
X129190475Y-69087664D01*
X129190475Y-69087664D02*
X129228570Y-69011474D01*
X129228570Y-69011474D02*
X129266666Y-68859093D01*
X129266666Y-68859093D02*
X129266666Y-68668617D01*
X129266666Y-68668617D02*
X129228570Y-68516236D01*
X129228570Y-68516236D02*
X129190475Y-68440045D01*
X129190475Y-68440045D02*
X129152380Y-68401950D01*
X129152380Y-68401950D02*
X129076189Y-68363855D01*
X128466665Y-68859093D02*
X127857142Y-68859093D01*
X126942856Y-69240045D02*
X127019046Y-69201950D01*
X127019046Y-69201950D02*
X127095237Y-69125760D01*
X127095237Y-69125760D02*
X127209523Y-69011474D01*
X127209523Y-69011474D02*
X127285713Y-68973379D01*
X127285713Y-68973379D02*
X127361904Y-68973379D01*
X127323808Y-69163855D02*
X127399999Y-69125760D01*
X127399999Y-69125760D02*
X127476189Y-69049569D01*
X127476189Y-69049569D02*
X127514285Y-68897188D01*
X127514285Y-68897188D02*
X127514285Y-68630521D01*
X127514285Y-68630521D02*
X127476189Y-68478140D01*
X127476189Y-68478140D02*
X127399999Y-68401950D01*
X127399999Y-68401950D02*
X127323808Y-68363855D01*
X127323808Y-68363855D02*
X127171427Y-68363855D01*
X127171427Y-68363855D02*
X127095237Y-68401950D01*
X127095237Y-68401950D02*
X127019046Y-68478140D01*
X127019046Y-68478140D02*
X126980951Y-68630521D01*
X126980951Y-68630521D02*
X126980951Y-68897188D01*
X126980951Y-68897188D02*
X127019046Y-69049569D01*
X127019046Y-69049569D02*
X127095237Y-69125760D01*
X127095237Y-69125760D02*
X127171427Y-69163855D01*
X127171427Y-69163855D02*
X127323808Y-69163855D01*
X126371428Y-68744807D02*
X126638094Y-68744807D01*
X126638094Y-69163855D02*
X126638094Y-68363855D01*
X126638094Y-68363855D02*
X126257142Y-68363855D01*
X125952380Y-69163855D02*
X125952380Y-68363855D01*
X125952380Y-68363855D02*
X125495237Y-69163855D01*
X125495237Y-69163855D02*
X125495237Y-68363855D01*
X113363855Y-60542856D02*
X113363855Y-60085713D01*
X113363855Y-60314285D02*
X112563855Y-60314285D01*
X112563855Y-60314285D02*
X112678140Y-60238094D01*
X112678140Y-60238094D02*
X112754331Y-60161904D01*
X112754331Y-60161904D02*
X112792426Y-60085713D01*
X112830521Y-61228571D02*
X113363855Y-61228571D01*
X112830521Y-60885714D02*
X113249569Y-60885714D01*
X113249569Y-60885714D02*
X113325760Y-60923809D01*
X113325760Y-60923809D02*
X113363855Y-60999999D01*
X113363855Y-60999999D02*
X113363855Y-61114285D01*
X113363855Y-61114285D02*
X113325760Y-61190476D01*
X113325760Y-61190476D02*
X113287664Y-61228571D01*
X112525760Y-62180952D02*
X113554331Y-61495238D01*
X112640045Y-62409523D02*
X112601950Y-62447619D01*
X112601950Y-62447619D02*
X112563855Y-62523809D01*
X112563855Y-62523809D02*
X112563855Y-62714285D01*
X112563855Y-62714285D02*
X112601950Y-62790476D01*
X112601950Y-62790476D02*
X112640045Y-62828571D01*
X112640045Y-62828571D02*
X112716236Y-62866666D01*
X112716236Y-62866666D02*
X112792426Y-62866666D01*
X112792426Y-62866666D02*
X112906712Y-62828571D01*
X112906712Y-62828571D02*
X113363855Y-62371428D01*
X113363855Y-62371428D02*
X113363855Y-62866666D01*
X112563855Y-63590476D02*
X112563855Y-63209524D01*
X112563855Y-63209524D02*
X112944807Y-63171428D01*
X112944807Y-63171428D02*
X112906712Y-63209524D01*
X112906712Y-63209524D02*
X112868617Y-63285714D01*
X112868617Y-63285714D02*
X112868617Y-63476190D01*
X112868617Y-63476190D02*
X112906712Y-63552381D01*
X112906712Y-63552381D02*
X112944807Y-63590476D01*
X112944807Y-63590476D02*
X113020998Y-63628571D01*
X113020998Y-63628571D02*
X113211474Y-63628571D01*
X113211474Y-63628571D02*
X113287664Y-63590476D01*
X113287664Y-63590476D02*
X113325760Y-63552381D01*
X113325760Y-63552381D02*
X113363855Y-63476190D01*
X113363855Y-63476190D02*
X113363855Y-63285714D01*
X113363855Y-63285714D02*
X113325760Y-63209524D01*
X113325760Y-63209524D02*
X113287664Y-63171428D01*
X112563855Y-63857143D02*
X113363855Y-64123810D01*
X113363855Y-64123810D02*
X112563855Y-64390476D01*
X125363855Y-53542856D02*
X125363855Y-53085713D01*
X125363855Y-53314285D02*
X124563855Y-53314285D01*
X124563855Y-53314285D02*
X124678140Y-53238094D01*
X124678140Y-53238094D02*
X124754331Y-53161904D01*
X124754331Y-53161904D02*
X124792426Y-53085713D01*
X124563855Y-54038095D02*
X124563855Y-54114285D01*
X124563855Y-54114285D02*
X124601950Y-54190476D01*
X124601950Y-54190476D02*
X124640045Y-54228571D01*
X124640045Y-54228571D02*
X124716236Y-54266666D01*
X124716236Y-54266666D02*
X124868617Y-54304761D01*
X124868617Y-54304761D02*
X125059093Y-54304761D01*
X125059093Y-54304761D02*
X125211474Y-54266666D01*
X125211474Y-54266666D02*
X125287664Y-54228571D01*
X125287664Y-54228571D02*
X125325760Y-54190476D01*
X125325760Y-54190476D02*
X125363855Y-54114285D01*
X125363855Y-54114285D02*
X125363855Y-54038095D01*
X125363855Y-54038095D02*
X125325760Y-53961904D01*
X125325760Y-53961904D02*
X125287664Y-53923809D01*
X125287664Y-53923809D02*
X125211474Y-53885714D01*
X125211474Y-53885714D02*
X125059093Y-53847618D01*
X125059093Y-53847618D02*
X124868617Y-53847618D01*
X124868617Y-53847618D02*
X124716236Y-53885714D01*
X124716236Y-53885714D02*
X124640045Y-53923809D01*
X124640045Y-53923809D02*
X124601950Y-53961904D01*
X124601950Y-53961904D02*
X124563855Y-54038095D01*
X124563855Y-54800000D02*
X124563855Y-54876190D01*
X124563855Y-54876190D02*
X124601950Y-54952381D01*
X124601950Y-54952381D02*
X124640045Y-54990476D01*
X124640045Y-54990476D02*
X124716236Y-55028571D01*
X124716236Y-55028571D02*
X124868617Y-55066666D01*
X124868617Y-55066666D02*
X125059093Y-55066666D01*
X125059093Y-55066666D02*
X125211474Y-55028571D01*
X125211474Y-55028571D02*
X125287664Y-54990476D01*
X125287664Y-54990476D02*
X125325760Y-54952381D01*
X125325760Y-54952381D02*
X125363855Y-54876190D01*
X125363855Y-54876190D02*
X125363855Y-54800000D01*
X125363855Y-54800000D02*
X125325760Y-54723809D01*
X125325760Y-54723809D02*
X125287664Y-54685714D01*
X125287664Y-54685714D02*
X125211474Y-54647619D01*
X125211474Y-54647619D02*
X125059093Y-54609523D01*
X125059093Y-54609523D02*
X124868617Y-54609523D01*
X124868617Y-54609523D02*
X124716236Y-54647619D01*
X124716236Y-54647619D02*
X124640045Y-54685714D01*
X124640045Y-54685714D02*
X124601950Y-54723809D01*
X124601950Y-54723809D02*
X124563855Y-54800000D01*
X125363855Y-55409524D02*
X124563855Y-55409524D01*
X125059093Y-55485714D02*
X125363855Y-55714286D01*
X124830521Y-55714286D02*
X125135283Y-55409524D01*
X122363855Y-60480356D02*
X122363855Y-60023213D01*
X122363855Y-60251785D02*
X121563855Y-60251785D01*
X121563855Y-60251785D02*
X121678140Y-60175594D01*
X121678140Y-60175594D02*
X121754331Y-60099404D01*
X121754331Y-60099404D02*
X121792426Y-60023213D01*
X121563855Y-60975595D02*
X121563855Y-61051785D01*
X121563855Y-61051785D02*
X121601950Y-61127976D01*
X121601950Y-61127976D02*
X121640045Y-61166071D01*
X121640045Y-61166071D02*
X121716236Y-61204166D01*
X121716236Y-61204166D02*
X121868617Y-61242261D01*
X121868617Y-61242261D02*
X122059093Y-61242261D01*
X122059093Y-61242261D02*
X122211474Y-61204166D01*
X122211474Y-61204166D02*
X122287664Y-61166071D01*
X122287664Y-61166071D02*
X122325760Y-61127976D01*
X122325760Y-61127976D02*
X122363855Y-61051785D01*
X122363855Y-61051785D02*
X122363855Y-60975595D01*
X122363855Y-60975595D02*
X122325760Y-60899404D01*
X122325760Y-60899404D02*
X122287664Y-60861309D01*
X122287664Y-60861309D02*
X122211474Y-60823214D01*
X122211474Y-60823214D02*
X122059093Y-60785118D01*
X122059093Y-60785118D02*
X121868617Y-60785118D01*
X121868617Y-60785118D02*
X121716236Y-60823214D01*
X121716236Y-60823214D02*
X121640045Y-60861309D01*
X121640045Y-60861309D02*
X121601950Y-60899404D01*
X121601950Y-60899404D02*
X121563855Y-60975595D01*
X121563855Y-61737500D02*
X121563855Y-61813690D01*
X121563855Y-61813690D02*
X121601950Y-61889881D01*
X121601950Y-61889881D02*
X121640045Y-61927976D01*
X121640045Y-61927976D02*
X121716236Y-61966071D01*
X121716236Y-61966071D02*
X121868617Y-62004166D01*
X121868617Y-62004166D02*
X122059093Y-62004166D01*
X122059093Y-62004166D02*
X122211474Y-61966071D01*
X122211474Y-61966071D02*
X122287664Y-61927976D01*
X122287664Y-61927976D02*
X122325760Y-61889881D01*
X122325760Y-61889881D02*
X122363855Y-61813690D01*
X122363855Y-61813690D02*
X122363855Y-61737500D01*
X122363855Y-61737500D02*
X122325760Y-61661309D01*
X122325760Y-61661309D02*
X122287664Y-61623214D01*
X122287664Y-61623214D02*
X122211474Y-61585119D01*
X122211474Y-61585119D02*
X122059093Y-61547023D01*
X122059093Y-61547023D02*
X121868617Y-61547023D01*
X121868617Y-61547023D02*
X121716236Y-61585119D01*
X121716236Y-61585119D02*
X121640045Y-61623214D01*
X121640045Y-61623214D02*
X121601950Y-61661309D01*
X121601950Y-61661309D02*
X121563855Y-61737500D01*
X122363855Y-62347024D02*
X121563855Y-62347024D01*
X122059093Y-62423214D02*
X122363855Y-62651786D01*
X121830521Y-62651786D02*
X122135283Y-62347024D01*
X134030521Y-55447619D02*
X134563855Y-55447619D01*
X133725760Y-55257143D02*
X134297188Y-55066666D01*
X134297188Y-55066666D02*
X134297188Y-55561905D01*
X134563855Y-55866667D02*
X133763855Y-55866667D01*
X134259093Y-55942857D02*
X134563855Y-56171429D01*
X134030521Y-56171429D02*
X134335283Y-55866667D01*
X133763855Y-56438095D02*
X133763855Y-56971429D01*
X133763855Y-56971429D02*
X134563855Y-56628571D01*
X122399713Y-53163855D02*
X122399713Y-52363855D01*
X121561618Y-53163855D02*
X121828285Y-52782902D01*
X122018761Y-53163855D02*
X122018761Y-52363855D01*
X122018761Y-52363855D02*
X121713999Y-52363855D01*
X121713999Y-52363855D02*
X121637809Y-52401950D01*
X121637809Y-52401950D02*
X121599714Y-52440045D01*
X121599714Y-52440045D02*
X121561618Y-52516236D01*
X121561618Y-52516236D02*
X121561618Y-52630521D01*
X121561618Y-52630521D02*
X121599714Y-52706712D01*
X121599714Y-52706712D02*
X121637809Y-52744807D01*
X121637809Y-52744807D02*
X121713999Y-52782902D01*
X121713999Y-52782902D02*
X122018761Y-52782902D01*
X120837809Y-53163855D02*
X121218761Y-53163855D01*
X121218761Y-53163855D02*
X121218761Y-52363855D01*
X120113999Y-53163855D02*
X120380666Y-52782902D01*
X120571142Y-53163855D02*
X120571142Y-52363855D01*
X120571142Y-52363855D02*
X120266380Y-52363855D01*
X120266380Y-52363855D02*
X120190190Y-52401950D01*
X120190190Y-52401950D02*
X120152095Y-52440045D01*
X120152095Y-52440045D02*
X120113999Y-52516236D01*
X120113999Y-52516236D02*
X120113999Y-52630521D01*
X120113999Y-52630521D02*
X120152095Y-52706712D01*
X120152095Y-52706712D02*
X120190190Y-52744807D01*
X120190190Y-52744807D02*
X120266380Y-52782902D01*
X120266380Y-52782902D02*
X120571142Y-52782902D01*
X119618761Y-52363855D02*
X119542571Y-52363855D01*
X119542571Y-52363855D02*
X119466380Y-52401950D01*
X119466380Y-52401950D02*
X119428285Y-52440045D01*
X119428285Y-52440045D02*
X119390190Y-52516236D01*
X119390190Y-52516236D02*
X119352095Y-52668617D01*
X119352095Y-52668617D02*
X119352095Y-52859093D01*
X119352095Y-52859093D02*
X119390190Y-53011474D01*
X119390190Y-53011474D02*
X119428285Y-53087664D01*
X119428285Y-53087664D02*
X119466380Y-53125760D01*
X119466380Y-53125760D02*
X119542571Y-53163855D01*
X119542571Y-53163855D02*
X119618761Y-53163855D01*
X119618761Y-53163855D02*
X119694952Y-53125760D01*
X119694952Y-53125760D02*
X119733047Y-53087664D01*
X119733047Y-53087664D02*
X119771142Y-53011474D01*
X119771142Y-53011474D02*
X119809238Y-52859093D01*
X119809238Y-52859093D02*
X119809238Y-52668617D01*
X119809238Y-52668617D02*
X119771142Y-52516236D01*
X119771142Y-52516236D02*
X119733047Y-52440045D01*
X119733047Y-52440045D02*
X119694952Y-52401950D01*
X119694952Y-52401950D02*
X119618761Y-52363855D01*
X119047333Y-52440045D02*
X119009237Y-52401950D01*
X119009237Y-52401950D02*
X118933047Y-52363855D01*
X118933047Y-52363855D02*
X118742571Y-52363855D01*
X118742571Y-52363855D02*
X118666380Y-52401950D01*
X118666380Y-52401950D02*
X118628285Y-52440045D01*
X118628285Y-52440045D02*
X118590190Y-52516236D01*
X118590190Y-52516236D02*
X118590190Y-52592426D01*
X118590190Y-52592426D02*
X118628285Y-52706712D01*
X118628285Y-52706712D02*
X119085428Y-53163855D01*
X119085428Y-53163855D02*
X118590190Y-53163855D01*
X117904475Y-52630521D02*
X117904475Y-53163855D01*
X118094951Y-52325760D02*
X118285428Y-52897188D01*
X118285428Y-52897188D02*
X117790189Y-52897188D01*
X117485427Y-53163855D02*
X117485427Y-52363855D01*
X117485427Y-52363855D02*
X117028284Y-53163855D01*
X117028284Y-53163855D02*
X117028284Y-52363855D01*
X138428571Y-53563855D02*
X137933333Y-53563855D01*
X137933333Y-53563855D02*
X138199999Y-53868617D01*
X138199999Y-53868617D02*
X138085714Y-53868617D01*
X138085714Y-53868617D02*
X138009523Y-53906712D01*
X138009523Y-53906712D02*
X137971428Y-53944807D01*
X137971428Y-53944807D02*
X137933333Y-54020998D01*
X137933333Y-54020998D02*
X137933333Y-54211474D01*
X137933333Y-54211474D02*
X137971428Y-54287664D01*
X137971428Y-54287664D02*
X138009523Y-54325760D01*
X138009523Y-54325760D02*
X138085714Y-54363855D01*
X138085714Y-54363855D02*
X138314285Y-54363855D01*
X138314285Y-54363855D02*
X138390476Y-54325760D01*
X138390476Y-54325760D02*
X138428571Y-54287664D01*
X137666666Y-53563855D02*
X137171428Y-53563855D01*
X137171428Y-53563855D02*
X137438094Y-53868617D01*
X137438094Y-53868617D02*
X137323809Y-53868617D01*
X137323809Y-53868617D02*
X137247618Y-53906712D01*
X137247618Y-53906712D02*
X137209523Y-53944807D01*
X137209523Y-53944807D02*
X137171428Y-54020998D01*
X137171428Y-54020998D02*
X137171428Y-54211474D01*
X137171428Y-54211474D02*
X137209523Y-54287664D01*
X137209523Y-54287664D02*
X137247618Y-54325760D01*
X137247618Y-54325760D02*
X137323809Y-54363855D01*
X137323809Y-54363855D02*
X137552380Y-54363855D01*
X137552380Y-54363855D02*
X137628571Y-54325760D01*
X137628571Y-54325760D02*
X137666666Y-54287664D01*
X136676189Y-53563855D02*
X136599999Y-53563855D01*
X136599999Y-53563855D02*
X136523808Y-53601950D01*
X136523808Y-53601950D02*
X136485713Y-53640045D01*
X136485713Y-53640045D02*
X136447618Y-53716236D01*
X136447618Y-53716236D02*
X136409523Y-53868617D01*
X136409523Y-53868617D02*
X136409523Y-54059093D01*
X136409523Y-54059093D02*
X136447618Y-54211474D01*
X136447618Y-54211474D02*
X136485713Y-54287664D01*
X136485713Y-54287664D02*
X136523808Y-54325760D01*
X136523808Y-54325760D02*
X136599999Y-54363855D01*
X136599999Y-54363855D02*
X136676189Y-54363855D01*
X136676189Y-54363855D02*
X136752380Y-54325760D01*
X136752380Y-54325760D02*
X136790475Y-54287664D01*
X136790475Y-54287664D02*
X136828570Y-54211474D01*
X136828570Y-54211474D02*
X136866666Y-54059093D01*
X136866666Y-54059093D02*
X136866666Y-53868617D01*
X136866666Y-53868617D02*
X136828570Y-53716236D01*
X136828570Y-53716236D02*
X136790475Y-53640045D01*
X136790475Y-53640045D02*
X136752380Y-53601950D01*
X136752380Y-53601950D02*
X136676189Y-53563855D01*
X135609522Y-54363855D02*
X135876189Y-53982902D01*
X136066665Y-54363855D02*
X136066665Y-53563855D01*
X136066665Y-53563855D02*
X135761903Y-53563855D01*
X135761903Y-53563855D02*
X135685713Y-53601950D01*
X135685713Y-53601950D02*
X135647618Y-53640045D01*
X135647618Y-53640045D02*
X135609522Y-53716236D01*
X135609522Y-53716236D02*
X135609522Y-53830521D01*
X135609522Y-53830521D02*
X135647618Y-53906712D01*
X135647618Y-53906712D02*
X135685713Y-53944807D01*
X135685713Y-53944807D02*
X135761903Y-53982902D01*
X135761903Y-53982902D02*
X136066665Y-53982902D01*
M02*
