%TF.GenerationSoftware,KiCad,Pcbnew,9.0.4-unknown*%
%TF.CreationDate,2025-11-20T15:33:38+01:00*%
%TF.ProjectId,KlimatizaceSamsung,4b6c696d-6174-4697-9a61-636553616d73,rev?*%
%TF.SameCoordinates,Original*%
%TF.FileFunction,Other,User*%
%FSLAX46Y46*%
G04 Gerber Fmt 4.6, Leading zero omitted, Abs format (unit mm)*
G04 Created by KiCad (PCBNEW 9.0.4-unknown) date 2025-11-20 15:33:38*
%MOMM*%
%LPD*%
G01*
G04 APERTURE LIST*
%ADD10C,0.100000*%
%ADD11C,0.150000*%
G04 APERTURE END LIST*
D10*
%TO.C,R7*%
X115200000Y-70975000D02*
X115200000Y-72225000D01*
X115200000Y-72225000D02*
X117200000Y-72225000D01*
X117200000Y-70975000D02*
X115200000Y-70975000D01*
X117200000Y-72225000D02*
X117200000Y-70975000D01*
%TO.C,U2*%
X116212500Y-60550000D02*
X116212500Y-64050000D01*
X116212500Y-64050000D02*
X117212500Y-65050000D01*
X117212500Y-65050000D02*
X118712500Y-65050000D01*
X118712500Y-60550000D02*
X116212500Y-60550000D01*
X118712500Y-65050000D02*
X118712500Y-60550000D01*
%TO.C,R8*%
X130600000Y-70400000D02*
X130600000Y-73600000D01*
X130600000Y-73600000D02*
X132200000Y-73600000D01*
X132200000Y-70400000D02*
X130600000Y-70400000D01*
X132200000Y-73600000D02*
X132200000Y-70400000D01*
%TO.C,C2*%
X114775000Y-66400000D02*
X114775000Y-68400000D01*
X114775000Y-68400000D02*
X116025000Y-68400000D01*
X116025000Y-66400000D02*
X114775000Y-66400000D01*
X116025000Y-68400000D02*
X116025000Y-66400000D01*
%TO.C,D2*%
X111500000Y-47700000D02*
X111500000Y-52300000D01*
X111500000Y-52300000D02*
X114500000Y-52300000D01*
X112249680Y-49498820D02*
X113799080Y-49498820D01*
X112998980Y-49498820D02*
X112998980Y-48500600D01*
X112998980Y-50649440D02*
X112249680Y-49498820D01*
X112998980Y-50649440D02*
X112998980Y-51551140D01*
X112998980Y-50649440D02*
X113799080Y-49498820D01*
X113799080Y-50649440D02*
X112198880Y-50649440D01*
X114500000Y-47700000D02*
X111500000Y-47700000D01*
X114500000Y-47700000D02*
X114500000Y-52300000D01*
%TO.C,R2*%
X136000000Y-61775000D02*
X136000000Y-63025000D01*
X136000000Y-63025000D02*
X138000000Y-63025000D01*
X138000000Y-61775000D02*
X136000000Y-61775000D01*
X138000000Y-63025000D02*
X138000000Y-61775000D01*
%TO.C,F1*%
X115500000Y-56400000D02*
X110500000Y-56400000D01*
X110500000Y-58800000D01*
X115500000Y-58800000D01*
X115500000Y-56400000D01*
%TO.C,C3*%
X117175000Y-66400000D02*
X117175000Y-68400000D01*
X117175000Y-68400000D02*
X118425000Y-68400000D01*
X118425000Y-66400000D02*
X117175000Y-66400000D01*
X118425000Y-68400000D02*
X118425000Y-66400000D01*
%TO.C,R6*%
X111312500Y-70975000D02*
X111312500Y-72225000D01*
X111312500Y-72225000D02*
X113312500Y-72225000D01*
X113312500Y-70975000D02*
X111312500Y-70975000D01*
X113312500Y-72225000D02*
X113312500Y-70975000D01*
%TO.C,D1*%
X122600000Y-69950000D02*
X122600000Y-73250000D01*
X122600000Y-73250000D02*
X124200000Y-73250000D01*
X123000000Y-71350000D02*
X123400000Y-71950000D01*
X123400000Y-71350000D02*
X123400000Y-70850000D01*
X123400000Y-71950000D02*
X122850000Y-71950000D01*
X123400000Y-71950000D02*
X123800000Y-71350000D01*
X123400000Y-71950000D02*
X123950000Y-71950000D01*
X123400000Y-72350000D02*
X123400000Y-71950000D01*
X123800000Y-71350000D02*
X123000000Y-71350000D01*
X124200000Y-69950000D02*
X122600000Y-69950000D01*
X124200000Y-73250000D02*
X124200000Y-69950000D01*
%TO.C,C4*%
X119575000Y-66450000D02*
X119575000Y-68450000D01*
X119575000Y-68450000D02*
X120825000Y-68450000D01*
X120825000Y-66450000D02*
X119575000Y-66450000D01*
X120825000Y-68450000D02*
X120825000Y-66450000D01*
D11*
%TO.C,U1*%
X126400000Y-61400000D02*
X126400000Y-67400000D01*
X126400000Y-67400000D02*
X132400000Y-67400000D01*
X131400000Y-61400000D02*
X126400000Y-61400000D01*
X132400000Y-62400000D02*
X131400000Y-61400000D01*
X132400000Y-67400000D02*
X132400000Y-62400000D01*
D10*
%TO.C,C1*%
X112375000Y-61000000D02*
X112375000Y-63000000D01*
X112375000Y-63000000D02*
X113625000Y-63000000D01*
X113625000Y-61000000D02*
X112375000Y-61000000D01*
X113625000Y-63000000D02*
X113625000Y-61000000D01*
%TO.C,R4*%
X124200000Y-52800000D02*
X124200000Y-56000000D01*
X124200000Y-56000000D02*
X125800000Y-56000000D01*
X125800000Y-52800000D02*
X124200000Y-52800000D01*
X125800000Y-56000000D02*
X125800000Y-52800000D01*
%TO.C,R5*%
X121200000Y-59737500D02*
X121200000Y-62937500D01*
X121200000Y-62937500D02*
X122800000Y-62937500D01*
X122800000Y-59737500D02*
X121200000Y-59737500D01*
X122800000Y-62937500D02*
X122800000Y-59737500D01*
%TO.C,R1*%
X133575000Y-55000000D02*
X133575000Y-57000000D01*
X133575000Y-57000000D02*
X134825000Y-57000000D01*
X134825000Y-55000000D02*
X133575000Y-55000000D01*
X134825000Y-57000000D02*
X134825000Y-55000000D01*
%TO.C,R3*%
X136000000Y-53375000D02*
X136000000Y-54625000D01*
X136000000Y-54625000D02*
X138000000Y-54625000D01*
X138000000Y-53375000D02*
X136000000Y-53375000D01*
X138000000Y-54625000D02*
X138000000Y-53375000D01*
%TD*%
M02*
